SplineFontDB: 3.0
FontName: MJ-Bold
FullName: MJ-Bold
FamilyName: MJ
Weight: Bold
Copyright: Copyright (c) 2009-2010 Design Science, Inc.
Version: 3.0
ItalicAngle: 0
UnderlinePosition: -100
UnderlineWidth: 50
Ascent: 800
Descent: 200
InvalidEm: 0
sfntRevision: 0x00030000
LayerCount: 2
Layer: 0 0 "Back" 1
Layer: 1 0 "Fore" 0
XUID: [1021 555 1361428464 4316]
StyleMap: 0x0020
FSType: 0
OS2Version: 3
OS2_WeightWidthSlopeOnly: 0
OS2_UseTypoMetrics: 0
CreationTime: 1255375311
ModificationTime: 1520406721
PfmFamily: 81
TTFWeight: 700
TTFWidth: 5
LineGap: 0
VLineGap: 0
Panose: 0 0 8 0 0 0 0 0 0 0
OS2TypoAscent: 951
OS2TypoAOffset: 0
OS2TypoDescent: -267
OS2TypoDOffset: 0
OS2TypoLinegap: 0
OS2WinAscent: 951
OS2WinAOffset: 0
OS2WinDescent: 267
OS2WinDOffset: 0
HheadAscent: 951
HheadAOffset: 0
HheadDescent: -267
HheadDOffset: 0
OS2SubXSize: 650
OS2SubYSize: 700
OS2SubXOff: 0
OS2SubYOff: 140
OS2SupXSize: 650
OS2SupYSize: 700
OS2SupXOff: 0
OS2SupYOff: 480
OS2StrikeYSize: 49
OS2StrikeYPos: 258
OS2CapHeight: 686
OS2XHeight: 444
OS2Vendor: 'PfEd'
OS2CodePages: 2000008f.5e030000
OS2UnicodeRanges: 800000ef.1000eced.00000000.00000000
MarkAttachClasses: 1
DEI: 91125
LangName: 1033 "" "" "" "FontForge 2.0 : MJ-Bold" "" "Version 1.1" "" "" "" "" "" "" "" "Copyright (c) 2009-2010, Design Science, Inc. (<www.mathjax.org>),+AAoA-with Reserved Font Name MathJax_Main.+AAoACgAA-This Font Software is licensed under the SIL Open Font License, Version 1.1.+AAoA-This license available with a FAQ at:+AAoA-http://scripts.sil.org/OFL" "http://scripts.sil.org/OFL" "" "MJ" "Bold"
Encoding: UnicodeBmp
UnicodeInterp: none
NameList: AGL For New Fonts
DisplaySize: -48
AntiAlias: 1
FitToEm: 0
WinInfo: 38 38 12
BeginPrivate: 6
BlueValues 31 [-10 0 444 452 654 656 686 696]
OtherBlues 11 [-201 -200]
BlueScale 7 0.03963
BlueShift 1 0
StdHW 4 [50]
StdVW 4 [50]
EndPrivate
BeginChars: 65537 287

StartChar: .notdef
Encoding: 65536 -1 0
Width: 250
Flags: MW
HStem: 0 50<100 150 100 200> 483 50<100 150 100 100>
VStem: 50 50<50 50 50 483> 150 50<50 483 483 483>
LayerCount: 2
Fore
SplineSet
50 0 m 1
 50 533 l 1
 200 533 l 1
 200 0 l 1
 50 0 l 1
100 50 m 1
 150 50 l 1
 150 483 l 1
 100 483 l 1
 100 50 l 1
EndSplineSet
EndChar

StartChar: exclam
Encoding: 33 33 2
Width: 350
GlyphClass: 2
Flags: MW
HStem: 1 170<151.5 177 151.5 199.5>
VStem: 90 169<61.5 110.5 61.5 111>
LayerCount: 2
Fore
SplineSet
89 629 m 0
 89 672 127 705 171 705 c 0
 218 705 249 680 259 645 c 0
 260 642 260 639 260 634 c 0
 260 612 206 248 204 244 c 0
 203 242 200 240 198 239 c 0
 194 237 192 237 175 237 c 0
 153 237 149 238 146 244 c 0
 143 249 89 615 89 629 c 0
90 86 m 0
 90 136 126 171 177 171 c 0
 223 168 259 135 259 86 c 0
 259 37 224 1 175 1 c 0
 125 1 90 36 90 86 c 0
EndSplineSet
EndChar

StartChar: quotedbl
Encoding: 34 34 3
Width: 603
GlyphClass: 2
Flags: W
LayerCount: 2
Fore
SplineSet
38 608 m 0
 38 654 71 694 121 694 c 0
 192 694 225 628 225 559 c 0
 225 538 222 516 216 492 c 0
 200 430 165 376 115 337 c 0
 108 332 103 329 99 329 c 0
 94 329 90 333 83 340 c 0
 72 351 70 354 70 360 c 0
 70 365 72 368 81 375 c 0
 91 382 112 403 122 414 c 0
 143 441 159 474 167 506 c 0
 170 518 173 535 172 535 c 1
 172 536 148 523 122 523 c 0
 74 523 38 561 38 608 c 0
305 608 m 0
 305 654 338 694 388 694 c 0
 459 694 492 628 492 559 c 0
 492 538 489 516 483 492 c 0
 467 430 432 376 382 337 c 0
 375 332 370 329 366 329 c 0
 361 329 357 333 350 340 c 0
 339 351 337 354 337 360 c 0
 337 365 339 368 348 375 c 0
 358 382 379 403 389 414 c 0
 410 441 426 474 434 506 c 0
 437 518 440 535 439 535 c 1
 439 536 415 523 389 523 c 0
 341 523 305 561 305 608 c 0
EndSplineSet
EndChar

StartChar: numbersign
Encoding: 35 35 4
Width: 958
GlyphClass: 2
Flags: MW
HStem: -193 21G<213 228.5 469 484.5> 108 61<180 224 87 434 87 337> 332 61<215 275.5 87 407 87 504> 674 20G<472 487 730.5 744>
VStem: 191 57 448 57
LayerCount: 2
Fore
SplineSet
64 362 m 0
 64 379 76 386 87 393 c 1
 363 393 l 1
 366 404 l 1
 389 472 448 674 453 681 c 0
 459 688 466 694 478 694 c 0
 496 694 509 680 509 662 c 0
 508 657 468 525 427 395 c 0
 427 393 432 393 523 393 c 2
 620 393 l 1
 623 404 l 2
 643 465 705 675 711 681 c 0
 716 690 726 694 735 694 c 0
 753 694 766 679 766 662 c 0
 765 657 725 525 684 395 c 0
 684 393 689 393 777 393 c 2
 871 393 l 1
 875 390 l 2
 886 386 893 374 893 363 c 0
 893 348 883 339 871 333 c 1
 767 332 l 1
 664 332 l 1
 660 319 l 2
 658 313 618 175 614 171 c 0
 614 169 621 169 742 169 c 2
 871 169 l 1
 875 166 l 2
 886 161 893 150 893 138 c 0
 893 123 883 115 871 109 c 1
 732 108 l 1
 594 108 l 1
 590 95 l 2
 588 88 568 24 546 -46 c 0
 525 -117 506 -177 505 -178 c 0
 501 -187 491 -193 478 -193 c 0
 460 -193 448 -180 448 -164 c 0
 448 -160 483 -44 530 106 c 0
 530 108 525 108 434 108 c 2
 337 108 l 1
 333 95 l 2
 331 88 311 24 289 -46 c 0
 268 -117 249 -177 248 -178 c 0
 244 -187 235 -193 222 -193 c 0
 204 -193 191 -180 191 -164 c 0
 191 -160 225 -46 273 106 c 0
 273 108 268 108 180 108 c 2
 87 109 l 1
 75 114 64 122 64 139 c 0
 64 154 75 162 87 169 c 1
 293 169 l 1
 321 262 l 2
 333 298 342 329 343 330 c 0
 343 332 336 332 215 332 c 2
 87 333 l 1
 74 339 64 347 64 362 c 0
600 330 m 0
 600 332 595 332 504 332 c 2
 407 332 l 1
 403 319 l 2
 401 313 361 175 357 171 c 0
 357 169 362 169 453 169 c 2
 550 169 l 1
 578 262 l 2
 590 298 599 329 600 330 c 0
EndSplineSet
EndChar

StartChar: dollar
Encoding: 36 36 5
Width: 575
GlyphClass: 2
Flags: MW
HStem: -5 63<254 255.5 252.5 256 254 254> 445 21G<440 462> 636 63<255 323 318 323 318 324 318 323>
VStem: 64 96<535 540.5> 64 140<176 211.5> 256 62<-56 -5 -5 -5 173 274 448 542 542 568 699 750> 370 140<503 525.5> 415 95<155 194.5>
LayerCount: 2
Fore
SplineSet
510 217 m 0xe5
 510 85 435 10 318 -4 c 1
 318 -56 l 1
 256 -56 l 1
 256 -5 l 1
 254 -5 l 2
 253 -4 246 -3 240 -3 c 0
 139 13 64 80 64 190 c 0
 64 233 90 262 134 262 c 0
 176 262 204 233 204 193 c 0xed
 204 159 184 133 153 125 c 0
 149 125 145 124 144 123 c 0
 142 123 162 86 218 66 c 0
 229 63 250 58 255 58 c 0
 256 58 256 78 256 173 c 2
 256 287 l 1
 239 291 l 2
 176 305 129 338 98 384 c 0
 75 418 64 454 64 494 c 0
 64 587 119 657 193 684 c 0
 211 691 243 698 253 698 c 2
 256 698 l 1
 256 750 l 1
 318 750 l 1
 318 699 l 1
 323 699 l 1
 348 695 365 692 382 686 c 0
 449 665 493 619 506 556 c 0
 509 543 510 531 510 520 c 0
 510 477 484 445 440 445 c 1
 422 447 l 2
 411 450 406 452 398 459 c 0
 380 471 370 491 370 515 c 0xf6
 370 547 389 573 418 582 c 0
 423 583 427 584 427 584 c 2
 428 585 409 603 403 608 c 0
 382 622 352 632 324 636 c 1
 318 636 l 1
 318 434 l 1
 426 416 499 336 509 236 c 0
 510 231 510 224 510 217 c 0xe5
255 636 m 0
 202 625 160 601 160 543 c 0xf4
 160 527 161 521 167 509 c 0
 181 480 213 457 253 449 c 1
 256 448 l 1
 256 542 l 2
 256 594 256 636 255 636 c 0
415 167 m 0xe5
 415 222 371 263 318 274 c 1
 318 59 l 1
 320 59 l 2
 324 59 338 63 349 67 c 0
 366 74 381 85 393 99 c 0
 407 117 415 143 415 167 c 0xe5
EndSplineSet
EndChar

StartChar: percent
Encoding: 37 37 6
Width: 958
GlyphClass: 2
Flags: MW
HStem: -56 52<742 755.5> 295 52<736.5 748.5> 347 52<232 245.5> 595 49<533 575> 698 52<226.5 238.5>
VStem: 65 117<511 585> 320 63<523 561.5 501.5 579.5> 575 117<108 182> 830 63<120 175 99 176.5>
LayerCount: 2
Fore
SplineSet
542 595 m 0
 446 595 373 633 373 632 c 0
 373 631 374 627 375 621 c 0
 380 600 383 575 383 548 c 0
 383 455 351 388 293 360 c 0
 274 351 256 347 235 347 c 0
 229 347 222 347 215 348 c 0
 119 363 65 435 65 549 c 0
 65 621 83 666 119 702 c 0
 149 732 185 750 236 750 c 0
 265 750 291 740 316 722 c 0
 374 680 432 656 498 646 c 0
 508 645 525 644 541 644 c 0
 626 644 690 676 736 730 c 0
 749 746 754 749 767 749 c 0
 784 749 797 736 797 719 c 0
 797 716 796 712 795 709 c 0
 792 701 216 -43 211 -48 c 0
 205 -53 199 -55 191 -55 c 0
 172 -55 161 -44 161 -25 c 0
 161 -19 161 -17 163 -12 c 2
 642 609 l 1
 642 609 608 595 542 595 c 0
256 696 m 0
 250 697 242 698 235 698 c 0
 218 698 205 687 196 674 c 0
 186 657 182 624 182 549 c 0
 182 473 186 440 196 423 c 0
 205 410 217 399 238 399 c 0
 265 399 280 414 293 431 c 0
 314 462 320 497 320 549 c 0
 320 610 311 650 281 680 c 0
 273 688 266 692 256 696 c 0
629 299 m 0
 659 329 696 347 747 347 c 0
 798 347 835 319 857 286 c 0
 881 250 893 204 893 146 c 0
 893 52 861 -15 803 -43 c 0
 784 -52 766 -56 745 -56 c 0
 739 -56 732 -56 725 -55 c 0
 629 -40 575 32 575 146 c 0
 575 218 593 263 629 299 c 0
766 293 m 0
 760 294 752 295 745 295 c 0
 728 295 715 284 706 271 c 0
 696 254 692 221 692 146 c 0
 692 70 696 37 706 20 c 0
 715 7 727 -4 748 -4 c 0
 775 -4 790 11 803 28 c 0
 824 59 830 94 830 146 c 0
 830 207 821 247 791 277 c 0
 783 285 776 289 766 293 c 0
EndSplineSet
EndChar

StartChar: ampersand
Encoding: 38 38 7
Width: 894
GlyphClass: 2
Flags: MW
HStem: -11 62<248.5 293.5 656.5 693.5> 382 62<601 610 601 671 601 610 830 836> 654 51<352.5 358 352.5 375.5>
VStem: 48 144<145 163> 166 117<475 565.5> 415 61<549 585> 767 62<115 118 112.5 118>
LayerCount: 2
Fore
SplineSet
610 444 m 2xee
 621 442 709 441 732 441 c 0
 754 441 818 441 830 444 c 2
 836 444 l 1
 836 382 l 1
 741 382 l 1
 709 335 l 2
 642 237 620 204 553 132 c 0
 544 124 537 116 537 116 c 2
 537 115 556 99 568 91 c 0
 606 63 640 51 673 51 c 0
 714 51 749 70 761 94 c 0
 764 100 767 110 767 115 c 2
 767 118 l 1
 829 118 l 1
 829 114 l 2
 829 111 828 105 827 100 c 0
 818 38 752 -11 668 -11 c 0
 590 -11 530 9 474 37 c 2
 451 49 l 1
 441 43 l 2
 391 12 332 -11 255 -11 c 0
 150 -11 71 37 50 121 c 0
 49 127 48 136 48 146 c 0xf6
 48 180 59 201 74 222 c 0
 96 255 204 330 204 334 c 0
 181 388 166 439 166 511 c 0
 166 536 166 538 168 551 c 0
 186 633 249 692 332 704 c 0
 338 704 347 705 358 705 c 0
 376 704 387 702 401 695 c 0
 443 675 476 629 476 565 c 0
 476 533 469 517 455 496 c 0
 430 457 374 404 334 371 c 2
 330 368 l 1
 335 357 l 1
 373 288 430 223 485 165 c 2
 496 154 l 1
 506 163 l 2
 533 190 566 231 597 273 c 2
 671 382 l 1
 601 382 l 1
 601 444 l 1
 610 444 l 2xee
415 564 m 0
 415 606 395 654 356 654 c 0
 349 654 341 653 334 650 c 0
 311 641 292 618 285 588 c 0
 283 580 283 577 283 554 c 0xee
 283 499 292 456 309 417 c 1
 325 431 l 2
 384 484 415 525 415 564 c 0
192 182 m 0xf6
 192 108 218 51 279 51 c 0
 320 51 372 66 400 83 c 1
 389 91 l 2
 335 134 279 199 240 266 c 2
 227 286 l 1
 222 279 l 2
 202 255 192 226 192 182 c 0xf6
EndSplineSet
EndChar

StartChar: quotesingle
Encoding: 39 39 8
Width: 319
GlyphClass: 2
Flags: W
LayerCount: 2
Fore
SplineSet
74 608 m 0
 74 654 107 694 157 694 c 0
 228 694 261 628 261 559 c 0
 261 538 258 516 252 492 c 0
 237 432 203 379 156 341 c 0
 146 333 140 329 135 329 c 0
 130 329 127 332 120 338 c 0
 109 349 106 353 106 359 c 0
 106 365 108 368 116 374 c 0
 156 403 189 452 203 505 c 0
 206 517 209 535 208 535 c 1
 208 536 184 523 158 523 c 0
 110 523 74 561 74 608 c 0
EndSplineSet
EndChar

StartChar: parenleft
Encoding: 40 40 9
Width: 447
GlyphClass: 2
Flags: MW
VStem: 103 111<229.5 272>
LayerCount: 2
Fore
SplineSet
108 341 m 0
 130 515 216 666 341 750 c 1
 356 750 l 2
 370 750 372 750 375 748 c 0
 379 746 382 741 382 736 c 0
 382 729 376 724 367 715 c 0
 334 679 313 651 292 612 c 0
 240 516 214 396 214 250 c 0
 214 33 272 -120 381 -229 c 0
 382 -231 382 -232 382 -234 c 0
 382 -239 379 -245 375 -247 c 0
 372 -249 370 -249 356 -249 c 2
 341 -249 l 1
 216 -166 130 -14 108 160 c 0
 104 191 103 208 103 251 c 0
 103 293 104 310 108 341 c 0
EndSplineSet
EndChar

StartChar: parenright
Encoding: 41 41 10
Width: 447
GlyphClass: 2
Flags: MW
VStem: 231 112<229.5 272 229.5 341>
LayerCount: 2
Fore
SplineSet
90 -249 m 2
 74 -249 64 -248 64 -234 c 0
 64 -229 67 -227 78 -215 c 0
 100 -191 113 -175 127 -155 c 0
 197 -55 231 81 231 251 c 0
 231 431 192 574 113 676 c 0
 102 689 95 698 78 716 c 0
 67 728 64 730 64 735 c 0
 64 741 68 746 73 749 c 0
 74 749 82 750 90 750 c 2
 105 750 l 1
 230 667 316 515 338 341 c 0
 342 310 343 293 343 251 c 0
 343 208 342 191 338 160 c 0
 321 26 269 -91 187 -179 c 0
 162 -205 128 -234 105 -249 c 1
 90 -249 l 2
EndSplineSet
EndChar

StartChar: asterisk
Encoding: 42 42 11
Width: 575
GlyphClass: 2
Flags: MW
HStem: 388 119<110 160> 549 119<110.5 160>
VStem: 235 104<337.5 352 704 718.5>
LayerCount: 2
Fore
SplineSet
235 706 m 0
 235 731 261 750 287 750 c 0
 314 750 339 732 339 706 c 0
 339 702 320 590 318 580 c 0
 317 578 318 579 318 579 c 1
 355 607 429 663 433 665 c 0
 438 667 443 668 449 668 c 0
 479 668 501 639 501 612 c 0
 501 594 492 578 478 572 c 0
 476 570 447 560 414 549 c 2
 354 528 l 1
 414 507 l 2
 447 496 476 486 478 484 c 0
 492 477 501 461 501 443 c 0
 501 415 478 388 449 388 c 0
 443 388 438 389 433 391 c 0
 429 393 355 449 318 477 c 1
 318 477 317 478 318 476 c 0
 320 466 339 354 339 350 c 0
 339 325 313 306 287 306 c 0
 261 306 235 325 235 350 c 0
 235 354 254 466 256 476 c 0
 257 478 256 477 256 477 c 1
 219 449 145 393 141 391 c 0
 136 389 131 388 125 388 c 0
 95 388 73 417 73 444 c 0
 73 462 82 478 96 484 c 0
 98 486 127 496 160 507 c 2
 220 528 l 1
 160 549 l 2
 127 560 98 570 96 572 c 0
 82 579 73 595 73 613 c 0
 73 641 96 668 125 668 c 0
 131 668 136 667 141 665 c 0
 145 663 219 607 256 579 c 1
 256 579 257 578 256 580 c 0
 254 590 235 702 235 706 c 0
EndSplineSet
EndChar

StartChar: plus
Encoding: 43 43 12
Width: 894
GlyphClass: 2
Flags: MW
HStem: 220 61<251 416 251 251 477 642>
VStem: 416 61<57 220 281 444>
LayerCount: 2
Fore
SplineSet
418 612 m 0
 422 623 431 633 446 633 c 0
 461 633 470 624 475 613 c 0
 477 608 477 607 477 444 c 2
 477 281 l 1
 807 281 l 1
 811 278 l 2
 822 274 829 262 829 251 c 0
 829 235 819 227 807 221 c 1
 642 220 l 1
 477 220 l 1
 477 57 l 2
 477 -106 477 -107 475 -112 c 0
 470 -123 461 -131 446 -131 c 0
 431 -131 423 -123 418 -112 c 0
 416 -107 416 -106 416 57 c 2
 416 220 l 1
 251 220 l 1
 87 221 l 1
 74 226 64 235 64 250 c 0
 64 262 71 274 82 278 c 2
 87 281 l 1
 416 281 l 1
 416 444 l 2
 416 589 416 608 418 612 c 0
EndSplineSet
EndChar

StartChar: comma
Encoding: 44 44 13
Width: 319
GlyphClass: 2
Flags: MW
HStem: -194 21G<133 137>
VStem: 74 184<14.5 110.5>
LayerCount: 2
Fore
SplineSet
74 85 m 0
 74 136 108 171 159 171 c 0
 191 171 211 158 226 138 c 0
 247 115 258 83 258 37 c 0
 258 -8 250 -40 236 -72 c 0
 218 -116 187 -156 152 -185 c 0
 144 -191 139 -194 135 -194 c 0
 131 -194 126 -191 120 -185 c 0
 109 -174 106 -170 106 -164 c 0
 106 -158 108 -155 115 -149 c 0
 119 -147 127 -139 133 -133 c 0
 163 -105 182 -73 195 -35 c 0
 200 -20 206 11 205 11 c 0
 204 11 201 10 198 8 c 0
 187 3 173 0 159 0 c 0
 107 0 74 40 74 85 c 0
EndSplineSet
EndChar

StartChar: hyphen
Encoding: 45 45 14
Width: 383
GlyphClass: 2
Flags: MW
HStem: 166 112<13 318 13 318>
VStem: 13 305<166 278 166 278>
LayerCount: 2
Fore
SplineSet
13 166 m 1
 13 278 l 1
 318 278 l 1
 318 166 l 1
 13 166 l 1
EndSplineSet
EndChar

StartChar: period
Encoding: 46 46 15
Width: 319
GlyphClass: 2
Flags: MW
HStem: 1 170<153.5 166.5>
VStem: 74 171<71.5 92.5 67 106>
LayerCount: 2
Fore
SplineSet
74 85 m 0
 74 127 104 160 143 170 c 0
 147 171 151 171 156 171 c 0
 193 171 218 155 232 130 c 0
 241 116 245 100 245 85 c 0
 245 49 222 15 184 3 c 0
 175 1 173 1 160 1 c 0
 132 1 121 7 105 20 c 0
 88 33 74 58 74 85 c 0
EndSplineSet
EndChar

StartChar: slash
Encoding: 47 47 16
Width: 575
GlyphClass: 2
Flags: W
LayerCount: 2
Fore
SplineSet
451 730 m 0
 456 742 465 750 479 750 c 0
 498 750 511 734 510 718 c 0
 509 712 492 668 318 244 c 2
 122 -232 l 2
 117 -242 108 -250 95 -250 c 0
 79 -250 63 -237 64 -218 c 0
 68 -196 449 721 451 730 c 0
EndSplineSet
EndChar

StartChar: zero
Encoding: 48 48 17
Width: 575
GlyphClass: 2
Flags: MW
HStem: -10 51<262 306.5 262 341> 604 50<270.5 280 280 288 266 308.5>
VStem: 45 143<280.5 311 311 361 257 408.5> 386 143<307 340.5 270 360>
LayerCount: 2
Fore
SplineSet
266 654 m 2
 280 654 l 2
 296 654 318 654 326 653 c 0
 451 634 511 549 524 418 c 0
 527 392 529 361 529 320 c 0
 529 220 520 160 494 108 c 0
 458 33 395 -10 287 -10 c 0
 159 -10 91 54 63 154 c 0
 50 196 45 245 45 316 c 0
 45 501 89 636 253 653 c 0
 258 654 264 654 266 654 c 2
374 548 m 0
 360 579 331 604 286 604 c 0
 255 604 235 592 218 575 c 0
 192 547 189 529 188 361 c 2
 188 311 l 2
 188 203 191 143 196 116 c 0
 204 76 237 41 287 41 c 0
 326 41 351 59 367 87 c 0
 380 109 383 130 385 222 c 0
 385 243 386 285 386 329 c 0
 386 391 385 457 384 474 c 0
 382 516 379 536 374 548 c 0
EndSplineSet
EndChar

StartChar: one
Encoding: 49 49 18
Width: 575
GlyphClass: 2
Flags: MW
HStem: 0 62<96 109 96 227 481 494 481 481> 529 62<80 97 80 97>
VStem: 227 134<62 304 304 351 62 419>
LayerCount: 2
Fore
SplineSet
481 0 m 2
 459 3 332 3 294 3 c 0
 256 3 129 3 109 0 c 2
 96 0 l 1
 96 62 l 1
 227 62 l 1
 227 304 l 2
 227 534 227 546 225 546 c 0
 192 536 141 529 97 529 c 2
 80 529 l 1
 80 591 l 1
 97 591 l 2
 186 591 259 611 308 647 c 2
 319 655 l 1
 333 655 l 2
 351 655 356 653 359 644 c 0
 361 640 361 609 361 351 c 2
 361 62 l 1
 494 62 l 1
 494 0 l 1
 481 0 l 2
EndSplineSet
EndChar

StartChar: two
Encoding: 50 50 19
Width: 575
GlyphClass: 2
Flags: MW
HStem: 0 140<210 274 274 319 210 486> 592 62<226 271.5>
VStem: 364 153<448.5 480.5> 455 62<235.5 237>
LayerCount: 2
Fore
SplineSet
215 510 m 0xe0
 215 461 184 430 137 430 c 0
 104 430 79 447 66 470 c 0
 59 483 58 492 58 511 c 0
 58 537 63 555 73 568 c 0
 102 618 171 654 259 654 c 0
 313 654 345 649 383 637 c 0
 418 623 453 601 474 576 c 0
 502 543 517 502 517 459 c 0xe0
 517 413 499 374 460 335 c 0
 439 314 423 301 368 262 c 0
 330 236 330 235 265 184 c 2
 210 140 l 1
 274 140 l 2
 364 140 421 142 429 145 c 0
 436 147 442 164 448 191 c 0
 449 198 455 234 455 237 c 2
 517 237 l 1
 517 233 l 2xd0
 516 231 509 180 501 119 c 0
 494 57 487 6 486 4 c 2
 486 0 l 1
 57 0 l 1
 57 25 l 2
 57 45 57 51 58 54 c 0
 62 62 250 246 288 291 c 0
 323 331 342 363 354 399 c 0
 361 419 364 439 364 458 c 0
 364 536 312 592 231 592 c 0
 221 592 212 592 206 591 c 0
 193 588 175 582 175 580 c 2
 175 580 178 577 183 574 c 0
 203 561 215 543 215 510 c 0xe0
EndSplineSet
EndChar

StartChar: three
Encoding: 51 51 20
Width: 575
GlyphClass: 2
Flags: MW
HStem: -11 59<252.5 289.5 252.5 333> 322 56<223 268> 600 55<247.5 295.5>
VStem: 48 120 80 154<480 523.5 478.5 550.5> 341 152<483 518 465.5 545.5> 358 168<177 200.5 177 220.5>
LayerCount: 2
Fore
SplineSet
80 503 m 0xec
 80 598 174 655 274 655 c 0
 381 655 469 617 491 538 c 0
 493 528 493 526 493 510 c 0
 493 421 427 373 361 348 c 1
 376 344 l 2
 426 331 469 306 493 275 c 0xec
 515 246 526 217 526 184 c 0
 526 170 524 154 520 139 c 0
 494 43 401 -11 265 -11 c 0
 186 -11 125 16 87 54 c 0
 61 80 47 116 48 152 c 0
 51 196 81 232 132 232 c 0
 184 232 216 195 216 147 c 0
 216 114 199 89 176 76 c 0
 172 74 168 71 168 71 c 2
 168 70 185 62 196 59 c 0
 218 51 239 48 266 48 c 0
 313 48 338 69 350 105 c 0
 356 122 358 144 358 185 c 0xf2
 358 256 350 290 309 313 c 0
 292 321 289 321 242 322 c 0
 204 322 200 323 197 324 c 0
 192 328 191 331 191 348 c 0
 191 373 191 372 232 375 c 0
 248 376 264 378 268 378 c 0
 317 394 341 449 341 517 c 0
 341 574 325 600 266 600 c 0
 229 600 206 590 183 576 c 1
 213 564 234 544 234 503 c 0
 234 454 200 426 157 426 c 0
 112 426 80 457 80 503 c 0xec
EndSplineSet
EndChar

StartChar: four
Encoding: 52 52 21
Width: 575
GlyphClass: 2
Flags: MW
HStem: 0 62<201 214 201 313 531 542 531 531> 155 62<213 313 32 32 453 542>
VStem: 313 140<62 155 62 155> 324 129<217 429>
LayerCount: 2
Fore
SplineSet
531 0 m 2xe0
 514 3 412 3 381 3 c 0
 348 3 232 3 214 0 c 2
 201 0 l 1
 201 62 l 1
 313 62 l 1
 313 155 l 1xe0
 32 155 l 1
 32 217 l 1
 205 434 l 2
 313 569 379 651 381 652 c 0
 383 653 385 655 387 655 c 0
 388 655 401 656 414 656 c 0
 436 656 439 656 443 654 c 0
 447 652 449 650 451 645 c 0
 453 641 453 618 453 429 c 2
 453 217 l 1xd0
 542 217 l 1
 542 155 l 1
 453 155 l 1
 453 62 l 1
 542 62 l 1
 542 0 l 1
 531 0 l 2xe0
324 217 m 1xd0
 324 494 l 1
 103 218 l 1
 213 217 l 1
 324 217 l 1xd0
EndSplineSet
EndChar

StartChar: five
Encoding: 53 53 22
Width: 575
GlyphClass: 2
Flags: MW
HStem: -11 58<240.5 271 235 326.5> 358 51<267.5 294> 487 136<209.5 313>
VStem: 57 149<146 176> 100 68<376 565> 360 157<177 218>
LayerCount: 2
Fore
SplineSet
131 229 m 0xf4
 175 229 206 198 206 154 c 0xf4
 206 116 185 93 155 83 c 0
 153 82 153 81 157 78 c 0
 181 59 217 47 253 47 c 0
 289 47 316 58 335 77 c 0
 360 104 360 145 360 209 c 0
 360 227 360 246 359 257 c 0
 356 308 353 322 337 338 c 0
 323 351 306 358 282 358 c 0
 225 358 187 338 160 303 c 0
 151 291 149 290 130 290 c 0
 110 290 106 292 102 301 c 0
 100 304 100 312 100 474 c 2
 100 565 l 2
 100 658 101 649 107 653 c 0
 109 654 111 655 113 655 c 0
 117 655 122 653 131 650 c 0
 173 634 233 623 286 623 c 0
 340 623 393 633 443 651 c 0
 451 654 456 655 459 655 c 0
 471 655 472 648 472 629 c 0
 472 613 472 613 463 601 c 0
 414 541 344 501 267 490 c 0
 254 488 237 487 219 487 c 0
 200 487 183 490 169 490 c 0
 168 490 168 464 168 433 c 2
 168 376 l 2xec
 169 376 173 379 179 382 c 0
 210 400 247 409 288 409 c 0
 420 409 517 329 517 201 c 0
 517 64 400 -11 253 -11 c 0
 228 -11 210 -8 186 -2 c 0
 130 15 83 56 66 104 c 0
 61 119 57 138 57 154 c 0
 57 198 91 229 131 229 c 0xf4
EndSplineSet
EndChar

StartChar: six
Encoding: 54 54 23
Width: 575
GlyphClass: 2
Flags: MW
HStem: -11 58<268.5 307.5 268.5 328.5> 374 52<298.5 313.5> 451 21G<409.5 449.5> 601 54<345.5 361.5>
VStem: 48 152<196 416.5> 357 140<502 531.5 502 537.5> 375 151<189.5 231>
LayerCount: 2
Fore
SplineSet
403 588 m 1xfc
 387 595 372 601 351 601 c 0
 324 601 303 596 282 584 c 0
 256 572 234 550 222 526 c 0
 212 503 206 474 202 433 c 0
 201 419 199 368 199 367 c 2
 199 367 202 370 205 374 c 0
 216 388 236 405 252 413 c 0
 269 422 285 426 312 426 c 0
 399 426 459 389 494 332 c 0
 517 298 526 264 526 208 c 0xfa
 526 134 507 94 465 53 c 0
 419 9 372 -11 285 -11 c 0
 200 -11 139 27 104 80 c 0
 65 139 48 212 48 318 c 0
 48 515 149 638 328 654 c 0
 332 654 341 655 350 655 c 0
 422 655 470 623 489 571 c 0
 494 556 497 539 497 524 c 0
 497 480 471 451 428 451 c 0
 391 451 357 477 357 521 c 0
 357 554 376 574 403 588 c 1xfc
356 353 m 0
 341 368 328 374 299 374 c 0
 264 374 251 365 233 342 c 0
 224 330 213 306 208 287 c 0
 201 261 200 239 200 196 c 0
 201 137 204 113 209 100 c 0
 223 69 249 47 288 47 c 0
 327 47 357 61 368 90 c 0
 373 106 375 148 375 231 c 0
 374 328 373 335 356 353 c 0
EndSplineSet
EndChar

StartChar: seven
Encoding: 55 55 24
Width: 575
GlyphClass: 2
Flags: MW
HStem: 504 140<301 558 301 558> 656 20G<130 161 161 161>
VStem: 64 62<407 411 411 411> 99 62<674.5 675.5> 185 137
LayerCount: 2
Fore
SplineSet
256 -11 m 0xd8
 214 -11 185 18 185 65 c 0
 185 72 185 80 186 89 c 0
 193 193 234 298 306 394 c 0
 324 419 332 427 397 502 c 1
 400 504 l 1
 301 504 l 2
 183 503 155 502 150 497 c 0
 140 489 126 430 126 407 c 1
 64 407 l 1
 64 411 l 2xe8
 65 415 99 674 99 675 c 0
 99 676 113 676 130 676 c 2
 161 676 l 1
 161 673 l 2
 161 669 165 662 170 659 c 0
 179 652 187 651 229 648 c 0
 244 648 265 646 276 646 c 0
 287 645 349 645 426 644 c 2
 558 644 l 1
 558 620 l 2
 558 600 558 596 556 593 c 0
 551 582 401 418 384 393 c 0
 353 345 335 283 329 196 c 0
 326 163 326 152 325 97 c 0
 324 46 324 44 322 38 c 0
 313 10 291 -11 256 -11 c 0xd8
EndSplineSet
EndChar

StartChar: eight
Encoding: 56 56 25
Width: 575
GlyphClass: 2
Flags: MW
HStem: -11 58<249 328 249 348.5> 600 54<246.5 283.5>
VStem: 48 101<153.5 174> 404 90<501 509 501 532> 425 101<105 229.5>
LayerCount: 2
Fore
SplineSet
97 555 m 0xe8
 126 613 190 654 278 654 c 0
 296 654 321 654 332 653 c 0
 362 649 389 641 411 632 c 0
 458 609 491 574 494 509 c 0xf0
 494 493 493 481 489 467 c 0
 480 430 455 400 416 376 c 2
 407 371 l 1
 418 364 l 2
 476 331 526 267 526 192 c 0
 526 178 524 163 521 148 c 0
 501 49 412 -11 285 -11 c 0
 169 -11 85 32 58 105 c 0
 51 122 48 143 48 164 c 0
 48 184 51 205 57 222 c 0
 72 263 105 298 154 324 c 2
 162 329 l 1
 152 336 l 2
 109 368 80 415 80 474 c 0
 80 502 86 532 97 555 c 0xe8
347 404 m 1
 375 425 404 456 404 503 c 0
 404 561 365 588 317 599 c 0
 309 600 291 600 276 600 c 0
 217 600 176 583 170 538 c 0
 169 519 178 503 196 490 c 0
 200 487 235 467 275 445 c 2
 347 404 l 1
289 47 m 0
 367 47 425 73 425 137 c 0xe8
 425 167 408 186 388 200 c 0
 387 201 226 293 223 293 c 0
 221 293 204 280 195 271 c 0
 165 242 149 210 149 167 c 0
 149 87 209 47 289 47 c 0
EndSplineSet
EndChar

StartChar: nine
Encoding: 57 57 26
Width: 575
GlyphClass: 2
Flags: MW
HStem: -11 59<224.5 255 224.5 264.5> 220 51<235.5 280.5> 601 53<279.5 287.5 250 293>
VStem: 48 151<350.5 446 350.5 446> 77 140<105 140.5> 375 151<259 278 278 278>
LayerCount: 2
Fore
SplineSet
217 122 m 0xec
 217 88 199 73 178 59 c 1
 195 52 211 48 238 48 c 0
 272 48 295 57 316 72 c 0
 325 79 339 93 345 102 c 0
 364 130 371 169 375 259 c 1
 375 278 l 2
 374 278 372 275 369 271 c 0
 357 256 338 240 322 232 c 0
 303 223 289 220 258 220 c 0
 213 220 177 230 150 247 c 0
 87 283 48 341 48 438 c 2
 48 446 l 1xf4
 52 532 88 582 146 618 c 0
 181 641 222 654 278 654 c 0
 297 654 321 654 329 653 c 0
 424 637 485 576 511 470 c 0
 521 430 526 384 526 330 c 0
 526 182 476 82 383 27 c 0
 341 2 289 -11 240 -11 c 0
 149 -11 77 33 77 120 c 0
 77 161 104 193 147 193 c 0
 186 193 217 166 217 122 c 0xec
199 433 m 2
 199 386 l 2
 199 315 205 275 274 271 c 0
 287 271 292 271 298 272 c 0
 335 281 361 322 371 385 c 0
 373 397 374 421 374 446 c 0
 374 486 372 530 368 542 c 0
 359 574 333 598 293 601 c 0
 266 601 248 597 232 586 c 0
 224 581 213 569 210 562 c 0
 202 545 199 513 199 433 c 2
EndSplineSet
EndChar

StartChar: colon
Encoding: 58 58 27
Width: 319
GlyphClass: 2
Flags: MW
HStem: 1 170<153.5 166.5> 274 170<134 166.5>
VStem: 74 171<71.5 92.5 67 106 340 365.5>
LayerCount: 2
Fore
SplineSet
74 359 m 0
 74 404 110 444 158 444 c 0
 194 444 218 427 232 403 c 0
 241 389 245 373 245 358 c 0
 245 322 222 288 184 276 c 0
 175 274 173 274 160 274 c 0
 104 274 74 317 74 359 c 0
74 85 m 0
 74 127 104 160 143 170 c 0
 147 171 151 171 156 171 c 0
 193 171 218 155 232 130 c 0
 241 116 245 100 245 85 c 0
 245 49 222 15 184 3 c 0
 175 1 173 1 160 1 c 0
 132 1 121 7 105 20 c 0
 88 33 74 58 74 85 c 0
EndSplineSet
EndChar

StartChar: semicolon
Encoding: 59 59 28
Width: 319
GlyphClass: 2
Flags: MW
HStem: -194 21G<133 137.5> 0 171<134 162.5 133 165> 274 170<134 166.5>
VStem: 74 174<62.5 72 -4.5 109.5>
LayerCount: 2
Fore
SplineSet
74 359 m 0
 74 404 110 444 158 444 c 0
 194 444 218 427 232 403 c 0
 241 389 245 373 245 358 c 0
 245 322 222 288 184 276 c 0
 175 274 173 274 160 274 c 0
 104 274 74 317 74 359 c 0
74 86 m 0
 74 133 108 171 158 171 c 0
 167 171 175 170 181 168 c 0
 223 155 248 106 248 38 c 0
 248 -47 211 -128 153 -183 c 0
 145 -190 140 -194 135 -194 c 0
 131 -194 127 -191 120 -185 c 0
 109 -174 106 -170 106 -164 c 0
 106 -162 107 -159 107 -158 c 0
 108 -156 115 -149 122 -141 c 0
 148 -115 165 -90 177 -58 c 0
 186 -38 190 -23 194 3 c 0
 195 6 195 6 193 6 c 0
 178 2 172 0 158 0 c 0
 110 0 74 39 74 86 c 0
EndSplineSet
EndChar

StartChar: less
Encoding: 60 60 29
Width: 894
GlyphClass: 2
Flags: MW
HStem: -85 51
LayerCount: 2
Fore
SplineSet
797 -56 m 0
 797 -72 784 -85 767 -85 c 2
 759 -85 l 1
 434 70 l 2
 141 210 109 225 105 229 c 0
 99 235 96 242 96 250 c 0
 96 258 99 266 105 272 c 0
 113 280 756 585 757 585 c 0
 760 586 763 587 766 587 c 0
 785 587 797 572 797 556 c 0
 797 548 794 541 788 535 c 0
 784 531 759 519 490 391 c 2
 197 251 l 1
 240 226 777 -23 788 -34 c 0
 794 -40 797 -48 797 -56 c 0
EndSplineSet
EndChar

StartChar: equal
Encoding: 61 61 30
Width: 894
GlyphClass: 2
Flags: MW
HStem: 109 60<448 807 448 807> 333 60<448 807 448 807>
LayerCount: 2
Fore
SplineSet
87 333 m 1
 75 338 64 346 64 362 c 0
 64 374 72 386 84 391 c 0
 89 393 110 393 448 393 c 2
 807 393 l 1
 811 390 l 2
 822 386 829 374 829 363 c 0
 829 348 819 339 807 333 c 1
 87 333 l 1
87 109 m 1
 74 114 64 124 64 139 c 0
 64 154 74 163 86 168 c 0
 89 169 155 169 448 169 c 2
 807 169 l 1
 811 166 l 2
 822 161 829 150 829 139 c 0
 829 123 819 115 807 109 c 1
 87 109 l 1
EndSplineSet
EndChar

StartChar: greater
Encoding: 62 62 31
Width: 894
GlyphClass: 2
Flags: MW
HStem: -85 58
LayerCount: 2
Fore
SplineSet
127 -85 m 2
 109 -85 96 -72 96 -55 c 0
 96 -40 104 -34 116 -27 c 0
 121 -24 254 39 411 114 c 2
 696 250 l 1
 427 379 l 2
 87 542 107 532 103 537 c 0
 98 543 96 550 96 557 c 0
 96 573 108 587 128 587 c 0
 140 585 783 277 788 272 c 0
 794 266 797 258 797 250 c 0
 797 242 794 235 788 229 c 0
 784 225 752 210 459 70 c 2
 135 -85 l 1
 127 -85 l 2
EndSplineSet
EndChar

StartChar: question
Encoding: 63 63 32
Width: 543
GlyphClass: 2
Flags: MW
HStem: 1 170<232.5 258 232.5 280.5> 648 52<246 272.5>
VStem: 65 105<548 631> 171 169<61.5 110.5 61.5 111> 225 62 335 143<557 583 543 594.5>
LayerCount: 2
Fore
SplineSet
134 499 m 0xec
 94 499 65 526 65 570 c 0
 65 578 65 587 67 593 c 0
 85 664 165 700 259 700 c 0
 340 700 411 685 447 646 c 0
 468 624 478 597 478 569 c 0
 478 517 450 488 412 465 c 0
 373 442 345 418 325 393 c 0
 307 371 295 347 289 322 c 0
 288 316 288 307 287 281 c 0
 286 243 286 243 279 239 c 0
 275 237 273 237 256 237 c 0
 239 237 236 237 232 239 c 0
 225 243 225 242 225 287 c 0
 226 327 226 332 231 355 c 0
 243 409 271 460 311 504 c 0
 330 524 335 539 335 575 c 0
 335 614 335 633 307 643 c 0
 295 647 286 648 259 648 c 0
 233 648 221 647 204 643 c 0
 190 640 170 632 170 630 c 2
 170 630 171 629 173 628 c 0
 191 618 204 595 204 570 c 0
 204 528 174 499 134 499 c 0xec
171 86 m 0xf0
 171 136 207 171 258 171 c 0
 304 168 340 135 340 86 c 0
 340 37 305 1 256 1 c 0
 206 1 171 36 171 86 c 0xf0
EndSplineSet
EndChar

StartChar: at
Encoding: 64 64 33
Width: 894
GlyphClass: 2
Flags: MW
HStem: -6 51<455 463 455 507.5> 125 52<435.5 461> 517 52<432.5 453.5 406.5 469.5> 649 50<394.5 445.5 366.5 545.5>
VStem: 64 62<338.5 355.5> 218 128<340 378.5> 547 130 767 61<303.5 369.5 289 435>
LayerCount: 2
Fore
SplineSet
705 176 m 0
 760 176 767 267 767 340 c 0
 767 530 645 649 446 649 c 0
 343 649 257 614 205 558 c 0
 157 510 126 439 126 346 c 0
 126 156 257 45 455 45 c 2
 463 45 l 1
 560 49 642 63 721 91 c 2
 746 99 l 1
 782 99 l 2
 817 99 818 99 822 97 c 0
 826 94 829 90 829 85 c 0
 829 83 828 81 827 79 c 0
 825 74 820 72 797 62 c 0
 686 18 564 -6 451 -6 c 0
 396 -6 356 -1 310 13 c 0
 174 50 83 155 66 307 c 0
 65 314 64 330 64 347 c 0
 64 364 65 380 66 388 c 0
 74 456 95 514 132 562 c 0
 191 644 299 699 434 699 c 0
 457 699 487 699 500 698 c 0
 652 681 771 599 811 464 c 0
 824 426 828 395 828 344 c 0
 828 234 793 142 710 126 c 0
 706 125 699 125 691 125 c 0
 604 125 567 164 566 164 c 0
 565 164 546 150 538 146 c 0
 511 133 478 125 444 125 c 0
 316 125 237 200 219 311 c 0
 218 319 218 333 218 347 c 0
 218 410 233 450 262 488 c 0
 299 537 365 569 448 569 c 0
 459 569 470 569 479 567 c 0
 539 556 581 526 610 479 c 1
 638 479 l 1
 652 479 l 2
 669 479 670 478 674 471 c 0
 676 468 676 459 676 340 c 0
 676 268 676 209 677 206 c 0
 680 190 688 176 705 176 c 0
547 468 m 1
 521 499 495 517 444 517 c 0
 421 517 405 507 391 494 c 0
 360 460 346 412 346 347 c 0
 346 282 360 234 391 200 c 0
 407 186 423 177 448 177 c 0
 497 177 524 199 547 226 c 1
 547 468 l 1
EndSplineSet
EndChar

StartChar: A
Encoding: 65 65 34
Width: 869
GlyphClass: 2
Flags: MW
HStem: 0 62<40 49 40 92 296 306 296 296 472 485 817 817 817 828> 175 62<287 390 287 517 262 390> 678 20G<424 447>
VStem: 144 73<63 64>
LayerCount: 2
Fore
SplineSet
296 0 m 2
 283 3 189 3 164 3 c 0
 139 3 63 3 49 0 c 2
 40 0 l 1
 40 62 l 1
 92 62 l 2
 141 62 144 62 144 64 c 2
 144 64 388 682 397 689 c 0
 399 692 403 695 406 696 c 0
 411 698 414 698 434 698 c 0
 460 698 464 697 471 689 c 0
 480 682 724 64 724 64 c 2
 724 62 727 62 776 62 c 2
 828 62 l 1
 828 0 l 1
 817 0 l 2
 799 3 691 3 658 3 c 0
 623 3 503 3 485 0 c 2
 472 0 l 1
 472 62 l 1
 517 62 l 2
 541 62 561 62 561 63 c 2
 517 175 l 1
 262 175 l 1
 240 120 l 2
 228 90 218 65 217 64 c 0
 217 62 219 62 261 62 c 2
 306 62 l 1
 306 0 l 1
 296 0 l 2
390 237 m 1
 492 238 l 1
 440 365 l 2
 399 468 389 493 388 491 c 0
 386 486 287 238 287 237 c 2
 390 237 l 1
EndSplineSet
EndChar

StartChar: B
Encoding: 66 66 35
Width: 818
GlyphClass: 2
Flags: MW
HStem: 0 62<39 147 39 288 39 147> 331 51<293 375 293 398 293 375> 624 62<39 147 39 264 293 293 293 334>
VStem: 147 146<62 331 382 624> 563 157<476 515.5 448.5 544.5> 590 162<175.5 208.5 175.5 230.5>
LayerCount: 2
Fore
SplineSet
720 510 m 0xf8
 720 387 564 359 564 359 c 2
 565 358 571 357 579 356 c 0
 621 349 660 333 690 312 c 0
 700 303 717 286 725 276 c 0
 742 250 752 228 752 189 c 0xf4
 752 162 747 144 741 125 c 0
 712 53 643 13 547 2 c 0
 540 1 475 1 288 0 c 2
 39 0 l 1
 39 62 l 1
 147 62 l 1
 147 624 l 1
 39 624 l 1
 39 686 l 1
 264 686 l 2
 404 686 494 686 503 685 c 0
 613 678 699 628 718 540 c 0
 720 532 720 521 720 510 c 0xf8
563 513 m 0xf8
 563 576 534 615 486 622 c 0
 479 624 463 624 385 624 c 2
 293 624 l 1
 293 382 l 1
 375 382 l 2
 454 383 458 383 467 385 c 0
 528 398 563 439 563 513 c 0xf8
590 192 m 0xf4
 590 269 559 316 503 330 c 1
 398 331 l 1
 293 331 l 1
 293 62 l 1
 391 62 l 2
 487 63 490 63 499 65 c 0
 556 78 590 119 590 192 c 0xf4
EndSplineSet
EndChar

StartChar: C
Encoding: 67 67 36
Width: 831
GlyphClass: 2
Flags: MW
HStem: -11 63<448.5 504.5 448.5 519.5> 634 63<448.5 496.5 355 506.5>
VStem: 64 168<334.5 351.5> 697 69 704 62<221 239 203 241>
LayerCount: 2
Fore
SplineSet
66 387 m 0xe8
 92 583 242 697 468 697 c 0
 525 697 571 684 613 661 c 0
 626 653 641 643 650 637 c 0
 653 634 656 632 657 632 c 2
 694 663 l 2
 714 679 732 694 733 695 c 0
 735 697 741 697 746 697 c 0
 751 697 757 697 759 695 c 0
 765 692 766 698 766 627 c 2xe8
 766 489 l 2
 766 418 765 424 759 421 c 0
 755 419 754 419 732 419 c 0
 710 419 709 419 705 421 c 0
 701 424 698 428 697 436 c 0xf0
 693 472 678 515 657 545 c 0
 629 590 588 621 532 632 c 0
 522 634 517 634 496 634 c 0
 401 634 330 604 286 553 c 0
 248 507 232 445 232 343 c 0
 232 241 248 179 286 133 c 0
 330 82 400 52 497 52 c 0
 512 52 525 52 533 53 c 0
 592 63 643 94 674 141 c 0
 692 169 704 205 704 237 c 0
 704 245 706 249 711 252 c 0
 714 254 716 254 735 254 c 0
 754 254 756 254 759 252 c 0
 764 249 766 244 766 234 c 0
 766 172 739 120 698 79 c 0
 645 26 570 -11 469 -11 c 0
 245 -11 92 104 66 300 c 0
 65 310 64 326 64 343 c 0
 64 360 65 377 66 387 c 0xe8
EndSplineSet
EndChar

StartChar: D
Encoding: 68 68 37
Width: 882
GlyphClass: 2
Flags: MW
HStem: 0 62<39 147 39 270 39 147> 624 62<39 270 39 147 39 298 39 368>
VStem: 147 151<62 624 62 624> 655 162<296 355>
LayerCount: 2
Fore
SplineSet
39 624 m 1
 39 686 l 1
 270 686 l 2
 436 685 503 685 510 684 c 0
 670 664 769 580 805 438 c 0
 813 404 817 376 817 338 c 0
 817 254 792 177 745 118 c 0
 736 106 714 85 702 75 c 0
 651 35 592 12 515 2 c 0
 503 1 479 1 270 0 c 2
 39 0 l 1
 39 62 l 1
 147 62 l 1
 147 624 l 1
 39 624 l 1
451 623 m 0
 443 624 408 624 368 624 c 2
 298 624 l 1
 298 62 l 1
 377 62 l 2
 463 63 467 63 496 69 c 0
 542 79 580 100 606 129 c 0
 646 176 655 245 655 337 c 0
 655 373 654 409 652 428 c 0
 636 549 577 613 451 623 c 0
EndSplineSet
EndChar

StartChar: E
Encoding: 69 69 38
Width: 756
GlyphClass: 2
Flags: MW
HStem: 0 62<39 147 304 375 375 432 39 147> 322 62<304 336 304 336> 618 62<39 147 39 660 304 304 304 374>
VStem: 147 157<62 322 62 384 384 618> 443 62<205 224 224 224 482 501 205 501> 629 62<424 428 424 428> 661 62<288 289>
LayerCount: 2
Fore
SplineSet
336 384 m 2xfc
 416 386 440 404 443 482 c 2
 443 501 l 1
 505 501 l 1
 505 205 l 1
 443 205 l 1
 443 224 l 2
 441 277 430 303 392 316 c 0
 378 320 369 321 336 322 c 2
 304 322 l 1
 304 62 l 1
 375 62 l 2
 489 62 554 64 603 119 c 0
 624 143 640 181 651 232 c 0
 653 243 661 287 661 289 c 2
 723 289 l 1
 723 286 l 2xfa
 720 283 680 6 677 3 c 2
 677 0 l 1
 39 0 l 1
 39 62 l 1
 147 62 l 1
 147 618 l 1
 39 618 l 1
 39 680 l 1
 660 680 l 1
 660 676 l 1
 665 665 686 439 691 428 c 1
 691 424 l 1
 629 424 l 1
 629 428 l 2
 628 430 627 437 626 444 c 0
 614 544 582 602 487 614 c 0
 466 617 444 618 374 618 c 2
 304 618 l 1
 304 384 l 1
 336 384 l 2xfc
EndSplineSet
EndChar

StartChar: F
Encoding: 70 70 39
Width: 724
GlyphClass: 2
Flags: MW
HStem: 0 62<39 51 39 147 425 439 425 425> 309 62<304 333 304 333> 618 62<39 147 39 644 304 304 304 368>
VStem: 147 157<62 309 371 618> 437 62<192 212 212 212 468 488 192 488> 613 62<424 425.5>
CounterMasks: 1 e0
LayerCount: 2
Fore
SplineSet
425 0 m 2
 405 3 266 3 228 3 c 0
 190 3 72 3 51 0 c 2
 39 0 l 1
 39 62 l 1
 147 62 l 1
 147 618 l 1
 39 618 l 1
 39 680 l 1
 644 680 l 1
 644 676 l 1
 649 665 670 439 675 428 c 1
 675 424 l 1
 613 424 l 2
 613 427 607 466 605 477 c 0
 591 556 559 595 497 610 c 0
 469 617 450 618 368 618 c 2
 304 618 l 1
 304 371 l 1
 333 371 l 2
 411 373 433 393 437 468 c 1
 437 488 l 1
 499 488 l 1
 499 192 l 1
 437 192 l 1
 437 212 l 1
 433 287 411 307 333 309 c 2
 304 309 l 1
 304 62 l 1
 439 62 l 1
 439 0 l 1
 425 0 l 2
EndSplineSet
EndChar

StartChar: G
Encoding: 71 71 40
Width: 904
GlyphClass: 2
Flags: MW
HStem: -10 61<453.5 507.5> 0 21G<750 751.5> 214 62<464 479 464 608 464 479 834 845> 635 62<451 452 422 511.5>
VStem: 64 168<334.5 383> 608 157<164 214 56 214> 695 70
LayerCount: 2
Fore
SplineSet
648 46 m 1x7c
 611 9 550 -10 465 -10 c 0
 353 -10 270 16 203 64 c 0
 128 118 82 191 66 300 c 0
 65 310 64 326 64 343 c 0
 64 423 83 478 116 531 c 0
 156 595 219 644 298 670 c 0
 342 686 395 697 449 697 c 0
 455 697 462 696 470 696 c 0
 534 696 575 683 617 658 c 0
 629 651 647 639 652 634 c 2
 656 632 l 1
 732 695 l 2
 734 697 740 697 745 697 c 0
 750 697 756 697 758 695 c 0
 764 692 765 698 765 627 c 2
 765 489 l 2
 765 418 764 424 758 421 c 0
 754 419 753 419 731 419 c 0
 709 419 708 419 704 421 c 0
 699 424 698 427 695 444 c 0
 683 520 638 586 579 616 c 0
 552 629 528 635 495 635 c 0
 407 635 339 608 295 563 c 0
 250 516 232 452 232 343 c 0
 232 234 250 170 295 123 c 0
 339 78 409 51 498 51 c 0xba
 549 51 599 71 607 108 c 0
 608 111 608 134 608 164 c 2
 608 214 l 1
 464 214 l 1
 464 276 l 1
 479 276 l 2
 498 274 643 273 680 273 c 0
 705 273 728 274 755 274 c 0
 793 275 828 275 834 276 c 2
 845 276 l 1
 845 214 l 1
 765 214 l 1
 765 113 l 2
 765 -1 765 6 758 2 c 0
 755 0 753 0 750 0 c 0
 735 3 677 29 658 40 c 2
 648 46 l 1x7c
EndSplineSet
EndChar

StartChar: H
Encoding: 72 72 41
Width: 900
GlyphClass: 2
Flags: MW
HStem: 0 62<39 51 39 147 400 412 400 400 487 499 848 848 848 860> 326 62<304 595 304 595> 624 62<39 51 39 147 39 51 400 412 487 499 848 860>
VStem: 147 157<62 326 388 624> 595 157<62 326 326 326 388 624 62 624>
LayerCount: 2
Fore
SplineSet
400 0 m 2
 380 3 261 3 226 3 c 0
 190 3 70 3 51 0 c 2
 39 0 l 1
 39 62 l 1
 147 62 l 1
 147 624 l 1
 39 624 l 1
 39 686 l 1
 51 686 l 2
 70 683 191 683 226 683 c 0
 261 683 380 683 400 686 c 2
 412 686 l 1
 412 624 l 1
 304 624 l 1
 304 388 l 1
 595 388 l 1
 595 624 l 1
 487 624 l 1
 487 686 l 1
 499 686 l 2
 519 683 638 683 673 683 c 0
 709 683 829 683 848 686 c 2
 860 686 l 1
 860 624 l 1
 752 624 l 1
 752 62 l 1
 860 62 l 1
 860 0 l 1
 848 0 l 2
 828 3 709 3 674 3 c 0
 638 3 518 3 499 0 c 2
 487 0 l 1
 487 62 l 1
 595 62 l 1
 595 326 l 1
 304 326 l 1
 304 62 l 1
 412 62 l 1
 412 0 l 1
 400 0 l 2
EndSplineSet
EndChar

StartChar: I
Encoding: 73 73 42
Width: 436
GlyphClass: 2
Flags: MW
HStem: 0 62<25 38 25 139 397 410 397 397> 624 62<25 38 25 139 25 38 397 410>
VStem: 139 157<62 624 62 624>
LayerCount: 2
Fore
SplineSet
397 0 m 2
 378 3 254 3 218 3 c 0
 182 3 58 3 38 0 c 2
 25 0 l 1
 25 62 l 1
 139 62 l 1
 139 624 l 1
 25 624 l 1
 25 686 l 1
 38 686 l 2
 58 683 182 683 218 683 c 0
 254 683 377 683 397 686 c 2
 410 686 l 1
 410 624 l 1
 296 624 l 1
 296 62 l 1
 410 62 l 1
 410 0 l 1
 397 0 l 2
EndSplineSet
EndChar

StartChar: J
Encoding: 74 74 43
Width: 594
GlyphClass: 2
Flags: MW
HStem: -11 51<196 227 196 228.5> 624 62<154 169 154 295 154 169 517 527>
VStem: 8 166<114 122 97 145> 295 151<380 624>
LayerCount: 2
Fore
SplineSet
174 114 m 2
 174 80 162 65 144 47 c 1
 155 45 l 2
 172 42 189 40 203 40 c 0
 251 40 278 64 290 104 c 0
 295 123 295 114 295 380 c 2
 295 624 l 1
 154 624 l 1
 154 686 l 1
 169 686 l 2
 187 684 329 683 365 683 c 0
 389 683 412 684 438 684 c 0
 476 685 511 685 517 686 c 2
 527 686 l 1
 527 624 l 1
 446 624 l 1
 446 379 l 2
 446 113 446 128 441 108 c 0
 420 52 374 20 315 2 c 0
 281 -7 249 -11 208 -11 c 0
 126 -11 60 11 29 50 c 0
 15 67 8 85 8 114 c 2
 8 122 l 2
 8 168 49 198 91 198 c 0
 133 198 174 168 174 122 c 2
 174 114 l 2
EndSplineSet
EndChar

StartChar: K
Encoding: 75 75 44
Width: 901
GlyphClass: 2
Flags: MW
HStem: 0 62<39 51 39 147 400 412 400 400 513 526 842 842 842 852> 624 62<39 51 39 147 39 51 400 412 565 576 829 836>
VStem: 147 157<62 256 338 624>
LayerCount: 2
Fore
SplineSet
400 0 m 2
 380 3 261 3 226 3 c 0
 190 3 70 3 51 0 c 2
 39 0 l 1
 39 62 l 1
 147 62 l 1
 147 624 l 1
 39 624 l 1
 39 686 l 1
 51 686 l 2
 70 683 191 683 226 683 c 0
 261 683 380 683 400 686 c 2
 412 686 l 1
 412 624 l 1
 304 624 l 1
 304 338 l 1
 311 342 380 403 472 483 c 2
 634 624 l 1
 565 624 l 1
 565 686 l 1
 576 686 l 2
 588 684 701 683 728 683 c 0
 746 683 760 684 778 684 c 0
 802 685 825 685 829 686 c 2
 836 686 l 1
 836 624 l 1
 730 624 l 1
 614 524 l 2
 550 469 498 423 497 422 c 0
 495 421 501 412 627 241 c 2
 759 63 l 1
 805 62 l 1
 852 62 l 1
 852 0 l 1
 842 0 l 2
 824 3 733 3 701 3 c 0
 668 3 543 2 526 0 c 2
 513 0 l 1
 513 62 l 1
 549 62 l 2
 568 62 584 62 584 63 c 0
 583 65 389 328 388 328 c 2
 304 256 l 1
 304 62 l 1
 412 62 l 1
 412 0 l 1
 400 0 l 2
EndSplineSet
EndChar

StartChar: L
Encoding: 76 76 45
Width: 692
GlyphClass: 2
Flags: MW
HStem: 0 62<39 147 304 352 352 365.5 39 147> 624 62<39 51 39 147 39 51 425 439>
VStem: 147 157<62 624 62 624>
LayerCount: 2
Fore
SplineSet
643 285 m 1
 639 272 619 24 612 4 c 1
 612 0 l 1
 39 0 l 1
 39 62 l 1
 147 62 l 1
 147 624 l 1
 39 624 l 1
 39 686 l 1
 51 686 l 2
 72 683 191 683 228 683 c 0
 267 683 404 683 425 686 c 2
 439 686 l 1
 439 624 l 1
 304 624 l 1
 304 62 l 1
 352 62 l 2
 379 62 405 62 411 63 c 0
 466 69 512 95 539 138 c 0
 561 171 572 211 580 283 c 2
 581 289 l 1
 643 289 l 1
 643 285 l 1
EndSplineSet
EndChar

StartChar: M
Encoding: 77 77 46
Width: 1092
GlyphClass: 2
Flags: MW
HStem: 0 62<39 48 39 147 314 323 314 314 696 708 1040 1040 1040 1052> 624 62<39 147 39 305 944 944 944 1052>
VStem: 147 68<62 334 62 624> 804 140<62 341 341 456>
LayerCount: 2
Fore
SplineSet
314 0 m 2
 300 3 208 3 181 3 c 0
 154 3 62 3 48 0 c 2
 39 0 l 1
 39 62 l 1
 147 62 l 1
 147 624 l 1
 39 624 l 1
 39 686 l 1
 305 686 l 1
 310 683 l 2
 320 677 313 693 434 414 c 2
 546 157 l 1
 658 414 l 2
 779 693 772 677 782 683 c 2
 788 686 l 1
 1052 686 l 1
 1052 624 l 1
 944 624 l 1
 944 62 l 1
 1052 62 l 1
 1052 0 l 1
 1040 0 l 2
 1023 3 907 3 874 3 c 0
 841 3 725 3 708 0 c 2
 696 0 l 1
 696 62 l 1
 804 62 l 1
 804 341 l 2
 804 571 804 620 803 618 c 0
 802 617 743 480 671 315 c 0
 551 38 540 13 536 9 c 0
 529 2 525 1 507 1 c 0
 488 1 484 2 477 9 c 0
 466 20 220 603 217 603 c 0
 215 603 215 578 215 334 c 2
 215 62 l 1
 323 62 l 1
 323 0 l 1
 314 0 l 2
EndSplineSet
EndChar

StartChar: N
Encoding: 78 78 47
Width: 900
GlyphClass: 2
Flags: MW
HStem: 0 62<39 48 39 147 314 323 314 314> 624 62<39 147 39 171 576 585 851 860>
VStem: 147 68<62 579 62 624 62 624> 684 68<233 319 319 624>
LayerCount: 2
Fore
SplineSet
314 0 m 2
 300 3 208 3 181 3 c 0
 154 3 62 3 48 0 c 2
 39 0 l 1
 39 62 l 1
 147 62 l 1
 147 624 l 1
 39 624 l 1
 39 686 l 1
 171 686 l 2
 298 686 304 686 308 684 c 0
 310 683 313 681 315 679 c 0
 318 674 683 234 684 233 c 2
 684 624 l 1
 576 624 l 1
 576 686 l 1
 585 686 l 2
 599 683 691 683 718 683 c 0
 745 683 837 683 851 686 c 2
 860 686 l 1
 860 624 l 1
 752 624 l 1
 752 319 l 2
 752 48 752 15 750 11 c 0
 746 1 743 0 718 0 c 0
 701 0 698 0 694 2 c 0
 691 3 687 8 674 23 c 0
 666 34 559 163 437 311 c 2
 215 579 l 1
 215 62 l 1
 323 62 l 1
 323 0 l 1
 314 0 l 2
EndSplineSet
EndChar

StartChar: O
Encoding: 79 79 48
Width: 864
GlyphClass: 2
Flags: MW
HStem: -10 56<422.5 442 422 494.5> 642 54<396 430.5 384.5 466.5>
VStem: 64 168<337.5 370> 631 166
LayerCount: 2
Fore
SplineSet
242 654 m 0
 293 680 349 696 420 696 c 0
 441 696 469 696 481 695 c 0
 661 675 775 563 797 385 c 0
 798 375 798 357 798 339 c 0
 798 321 798 304 797 294 c 0
 787 210 756 142 705 90 c 0
 641 28 557 -10 432 -10 c 0
 413 -10 393 -10 382 -9 c 0
 204 12 87 118 66 294 c 0
 65 304 64 321 64 339 c 0
 64 401 73 442 91 487 c 0
 120 561 171 619 242 654 c 0
587 563 m 0
 554 611 502 642 431 642 c 0
 361 642 309 611 276 563 c 0
 241 508 232 446 232 353 c 0
 232 322 233 291 236 267 c 0
 247 154 293 82 372 56 c 0
 392 50 412 46 432 46 c 0
 452 46 471 50 491 56 c 0
 570 82 616 154 627 267 c 0
 630 291 631 322 631 353 c 0
 631 446 622 508 587 563 c 0
EndSplineSet
EndChar

StartChar: P
Encoding: 80 80 49
Width: 786
GlyphClass: 2
Flags: MW
HStem: 0 62<39 51 39 147 400 412 400 400> 287 56<304 372 298 399 304 304> 624 62<39 147 39 253 298 298 298 373>
VStem: 147 151<343 624 343 624 343 624> 553 168<465.5 492>
LayerCount: 2
Fore
SplineSet
400 0 m 2
 380 3 261 3 226 3 c 0
 190 3 71 3 51 0 c 2
 39 0 l 1
 39 62 l 1
 147 62 l 1
 147 624 l 1
 39 624 l 1
 39 686 l 1
 253 686 l 2
 496 686 496 686 536 678 c 0
 626 660 688 612 711 542 c 0
 717 523 721 503 721 483 c 0
 721 448 710 414 690 385 c 0
 658 338 602 306 530 293 c 0
 500 288 500 288 399 287 c 2
 304 287 l 1
 304 62 l 1
 412 62 l 1
 412 0 l 1
 400 0 l 2
459 622 m 0
 449 623 436 623 373 624 c 2
 298 624 l 1
 298 343 l 1
 372 343 l 2
 453 344 457 344 480 350 c 0
 508 357 531 372 540 390 c 0
 550 409 553 429 553 475 c 0
 553 509 550 547 546 561 c 0
 537 601 504 614 459 622 c 0
EndSplineSet
EndChar

StartChar: Q
Encoding: 81 81 50
Width: 864
GlyphClass: 2
Flags: MW
HStem: -193 167<639 721.5> -10 54<418.5 445 418 457> 112 51<419.5 451 407 453.5> 641 55<406.5 420 420 430.5 398 452.5>
VStem: 64 162<330 370> 326 52<78.5 83.5> 637 161<306 346.5> 769 36<-9 -2 -13 5.5>
LayerCount: 2
Fore
SplineSet
787 18 m 0xfd
 802 18 805 9 805 -13 c 0xfd
 802 -81 776 -142 737 -171 c 0
 726 -179 709 -187 697 -191 c 0
 687 -193 685 -193 668 -193 c 0
 610 -193 584 -163 564 -124 c 0
 539 -77 530 -3 526 -3 c 0
 522 -3 483 -10 431 -10 c 0
 406 -10 393 -10 382 -9 c 0
 204 12 87 118 66 294 c 0
 65 304 64 321 64 339 c 0
 64 401 73 442 91 487 c 0
 138 607 244 683 398 696 c 1
 420 696 l 2
 441 696 469 696 481 695 c 0
 661 675 775 563 797 385 c 0
 798 375 798 357 798 339 c 0xfe
 798 273 787 230 768 184 c 0
 736 112 684 60 611 26 c 2
 600 21 l 1
 611 7 630 -11 644 -18 c 0
 657 -25 669 -26 696 -26 c 0
 747 -26 769 -18 769 0 c 0
 769 11 779 18 787 18 c 0xfd
548 604 m 0
 514 630 480 641 425 641 c 0
 388 641 357 630 333 616 c 0
 300 596 277 571 259 535 c 0
 235 487 226 429 226 338 c 0
 226 212 248 128 318 79 c 0
 321 76 325 74 325 74 c 2
 326 74 326 77 326 80 c 0
 326 87 329 100 333 109 c 0
 347 140 384 163 430 163 c 0
 472 163 507 144 542 100 c 2
 553 86 l 2
 554 84 569 99 578 108 c 0
 619 158 637 231 637 330 c 0xfe
 637 363 635 401 633 423 c 0
 625 507 596 569 548 604 c 0
506 58 m 1
 491 88 474 112 433 112 c 0
 406 112 378 103 378 77 c 0
 378 51 405 44 431 44 c 0
 459 44 489 50 506 58 c 1
EndSplineSet
EndChar

StartChar: R
Encoding: 82 82 51
Width: 862
GlyphClass: 2
Flags: MW
HStem: -11 51<731 744> 0 62<39 51 39 147 394 406 394 394> 318 51<298 356 298 366> 624 62<39 147 39 234 298 298 298 334>
VStem: 147 151<62 318 62 369 369 624> 548 168<492 498 498 518> 795 63<91 91>
LayerCount: 2
Fore
SplineSet
394 0 m 2x7e
 375 3 257 3 222 3 c 0
 187 3 70 3 51 0 c 2
 39 0 l 1
 39 62 l 1
 147 62 l 1x7e
 147 624 l 1
 39 624 l 1
 39 686 l 1
 234 686 l 2
 434 686 450 686 483 682 c 0
 569 673 636 643 681 593 c 0
 703 566 716 539 716 497 c 0
 716 487 716 478 715 472 c 0
 708 440 689 410 661 386 c 0
 637 367 611 353 568 338 c 0
 567 338 571 336 577 332 c 0
 621 309 649 275 659 233 c 0
 668 206 669 128 682 92 c 0
 694 58 714 40 748 40 c 0
 776 40 792 65 795 91 c 0
 796 104 798 107 801 111 c 0
 805 117 807 117 827 117 c 0
 847 117 849 117 853 111 c 0
 857 106 858 102 858 92 c 0
 855 40 815 -1 764 -10 c 0
 760 -11 749 -11 739 -11 c 0xbe
 627 -11 560 9 528 53 c 0
 522 62 515 76 511 87 c 0
 506 104 506 110 506 168 c 0
 506 225 505 233 500 248 c 0
 490 279 467 303 438 313 c 0
 424 318 418 318 356 318 c 2
 298 318 l 1
 298 62 l 1
 406 62 l 1
 406 0 l 1
 394 0 l 2x7e
513 600 m 0
 482 622 448 624 396 624 c 2
 358 624 l 1
 298 624 l 1
 298 369 l 1
 366 369 l 2
 437 370 444 370 465 375 c 0
 518 384 548 413 548 476 c 2
 548 498 l 2
 548 538 548 546 542 563 c 0
 536 580 529 590 513 600 c 0
EndSplineSet
EndChar

StartChar: S
Encoding: 83 83 52
Width: 639
GlyphClass: 2
Flags: MW
HStem: -10 61<307 354.5> 639 58<280.5 316.5 280.5 342.5>
VStem: 64 62<17 158.5> 64 113<441.5 575.5> 460 114<122 214> 479 63
LayerCount: 2
Fore
SplineSet
345 51 m 0xe8
 418 51 460 87 460 157 c 0xe8
 460 210 427 243 388 257 c 0
 381 261 229 292 221 295 c 0
 139 318 64 390 64 493 c 0
 64 516 68 539 75 562 c 0
 101 640 170 689 264 696 c 0
 266 696 276 697 285 697 c 0
 348 697 405 681 447 650 c 2
 454 645 l 1
 480 669 l 2
 494 682 507 694 509 695 c 0
 511 697 517 697 522 697 c 0
 527 697 533 697 535 695 c 0
 542 691 542 699 542 577 c 0
 542 456 542 464 535 460 c 0
 532 458 530 458 511 458 c 0
 492 458 491 458 487 460 c 0
 482 463 480 467 479 478 c 0
 466 577 398 639 287 639 c 0
 223 639 177 607 177 544 c 0xd4
 177 501 208 471 247 457 c 0
 255 453 402 423 411 420 c 0
 496 396 557 329 572 241 c 0
 573 234 574 221 574 207 c 0
 574 171 567 145 559 120 c 0
 531 50 474 5 389 -9 c 0
 380 -10 363 -10 346 -10 c 0
 268 -10 206 6 160 35 c 0
 156 38 152 40 151 40 c 2
 126 17 l 2
 112 4 99 -8 97 -9 c 0
 95 -11 89 -11 84 -11 c 0
 79 -11 73 -11 71 -9 c 0
 64 -5 64 -13 64 108 c 0
 64 209 64 217 66 220 c 0
 69 227 71 227 94 228 c 0
 114 228 115 228 119 226 c 0
 124 223 126 219 126 205 c 0
 131 100 224 51 345 51 c 0xe8
EndSplineSet
EndChar

StartChar: T
Encoding: 84 84 53
Width: 800
GlyphClass: 2
Flags: MW
HStem: 0 62<168 184 168 321 615 631 615 615> 613 62<277 321 277 277 478 522 478 478>
VStem: 41 62<419 425 419 425.5> 321 157<62 613 62 613> 696 62<419 425 419 425>
CounterMasks: 1 38
LayerCount: 2
Fore
SplineSet
41 425 m 2
 41 426 62 669 62 669 c 1
 62 675 l 1
 737 675 l 1
 737 669 l 1
 737 669 758 426 758 425 c 2
 758 419 l 1
 696 419 l 1
 696 425 l 1
 688 504 681 535 665 561 c 0
 652 583 627 599 595 607 c 0
 577 612 569 612 522 613 c 2
 478 613 l 1
 478 62 l 1
 631 62 l 1
 631 0 l 1
 615 0 l 2
 591 3 442 3 399 3 c 0
 355 3 208 3 184 0 c 2
 168 0 l 1
 168 62 l 1
 321 62 l 1
 321 613 l 1
 277 613 l 2
 230 612 222 612 204 607 c 0
 172 599 147 583 134 561 c 0
 118 535 111 504 103 425 c 1
 103 419 l 1
 41 419 l 1
 41 425 l 2
EndSplineSet
EndChar

StartChar: U
Encoding: 85 85 54
Width: 885
GlyphClass: 2
Flags: MW
HStem: -11 63<416.5 525.5 416.5 539.5> 624 62<39 51 39 147 39 51 400 412 561 570 836 845>
VStem: 147 157<421 624 405 624> 669 68<415 420 420 624>
LayerCount: 2
Fore
SplineSet
570 686 m 2
 584 683 676 683 703 683 c 0
 730 683 822 683 836 686 c 2
 845 686 l 1
 845 624 l 1
 737 624 l 1
 737 420 l 2
 737 283 737 212 736 204 c 0
 724 68 614 -11 465 -11 c 0
 344 -11 246 26 193 95 c 0
 168 128 152 167 148 207 c 0
 147 214 147 285 147 421 c 2
 147 624 l 1
 39 624 l 1
 39 686 l 1
 51 686 l 2
 70 683 191 683 226 683 c 0
 261 683 380 683 400 686 c 2
 412 686 l 1
 412 624 l 1
 304 624 l 1
 304 405 l 2
 305 208 305 185 306 174 c 0
 318 87 367 52 466 52 c 0
 585 52 650 99 667 195 c 0
 668 205 668 219 669 415 c 2
 669 624 l 1
 561 624 l 1
 561 686 l 1
 570 686 l 2
EndSplineSet
EndChar

StartChar: V
Encoding: 86 86 55
Width: 869
GlyphClass: 2
Flags: MW
HStem: 624 62<25 36 25 124 25 36 364 377 582 592 835 843>
LayerCount: 2
Fore
SplineSet
592 686 m 2
 606 684 698 683 724 683 c 0
 747 683 823 683 835 686 c 2
 843 686 l 1
 843 624 l 1
 744 624 l 1
 611 315 l 2
 466 -19 475 1 465 -5 c 2
 460 -7 l 1
 409 -7 l 1
 403 -5 l 2
 393 1 402 -19 257 315 c 2
 124 624 l 1
 25 624 l 1
 25 686 l 1
 36 686 l 2
 55 683 157 683 190 683 c 0
 224 683 346 683 364 686 c 2
 377 686 l 1
 377 624 l 1
 289 624 l 1
 384 403 l 1
 480 185 l 2
 481 186 523 285 575 405 c 2
 670 624 l 1
 582 624 l 1
 582 686 l 1
 592 686 l 2
EndSplineSet
EndChar

StartChar: W
Encoding: 87 87 56
Width: 1189
GlyphClass: 2
Flags: MW
HStem: 624 62<24 35 24 116 24 35 355 368 434 445 765 778 905 915 1157 1164>
LayerCount: 2
Fore
SplineSet
915 686 m 2
 928 684 1026 683 1052 683 c 0
 1069 683 1085 684 1103 684 c 0
 1128 685 1153 685 1157 686 c 2
 1164 686 l 1
 1164 624 l 1
 1073 624 l 1
 957 320 l 2
 894 153 840 14 839 10 c 0
 835 2 832 -1 826 -5 c 0
 821 -7 820 -7 799 -7 c 0
 767 -7 769 -7 759 10 c 0
 758 12 721 111 676 228 c 2
 594 442 l 1
 512 228 l 2
 467 111 430 12 429 10 c 0
 419 -7 421 -7 389 -7 c 0
 368 -7 367 -7 363 -5 c 0
 356 -1 353 2 349 10 c 0
 348 14 294 153 231 320 c 2
 116 624 l 1
 24 624 l 1
 24 686 l 1
 35 686 l 2
 53 683 151 683 183 683 c 0
 217 683 338 684 355 686 c 2
 368 686 l 1
 368 624 l 1
 323 624 l 2
 298 624 278 624 278 623 c 0
 278 621 437 207 437 207 c 2
 438 207 465 280 499 369 c 2
 561 531 l 1
 526 624 l 1
 434 624 l 1
 434 686 l 1
 445 686 l 2
 463 683 561 683 593 683 c 0
 627 683 748 684 765 686 c 2
 778 686 l 1
 778 624 l 1
 733 624 l 2
 708 624 688 624 688 623 c 0
 688 621 847 207 847 207 c 2
 848 207 1006 623 1006 624 c 2
 905 624 l 1
 905 686 l 1
 915 686 l 2
EndSplineSet
EndChar

StartChar: X
Encoding: 88 88 57
Width: 869
GlyphClass: 2
Flags: MW
HStem: 0 62<33 43 33 98 327 338 327 327 476 489 824 824 824 835> 624 62<48 59 48 157 48 59 395 408 483 494 778 787>
LayerCount: 2
Fore
SplineSet
327 0 m 2
 312 2 203 3 174 3 c 0
 146 3 58 3 43 0 c 2
 33 0 l 1
 33 62 l 1
 98 62 l 1
 162 63 l 1
 360 333 l 1
 157 624 l 1
 48 624 l 1
 48 686 l 1
 59 686 l 2
 77 683 184 683 217 683 c 0
 251 683 377 683 395 686 c 2
 408 686 l 1
 408 624 l 1
 335 624 l 1
 393 540 l 1
 452 458 l 2
 454 460 573 623 573 623 c 2
 573 624 553 624 528 624 c 2
 483 624 l 1
 483 686 l 1
 494 686 l 2
 509 683 617 683 646 683 c 0
 674 683 762 683 778 686 c 2
 787 686 l 1
 787 624 l 1
 658 624 l 1
 575 511 l 2
 530 449 493 398 493 397 c 1
 494 397 546 321 611 229 c 2
 727 62 l 1
 835 62 l 1
 835 0 l 1
 824 0 l 2
 806 3 700 3 667 3 c 0
 633 3 507 3 489 0 c 2
 476 0 l 1
 476 62 l 1
 513 62 l 1
 549 63 l 1
 401 274 l 1
 247 63 l 2
 247 62 267 62 292 62 c 2
 338 62 l 1
 338 0 l 1
 327 0 l 2
EndSplineSet
EndChar

StartChar: Y
Encoding: 89 89 58
Width: 869
GlyphClass: 2
Flags: MW
HStem: 0 62<250 262 250 358 605 618 605 605> 624 62<19 30 19 126 19 30 370 383 585 595 841 849>
VStem: 358 151<62 274 62 275 62 275>
LayerCount: 2
Fore
SplineSet
605 0 m 2
 586 3 469 3 434 3 c 0
 399 3 281 3 262 0 c 2
 250 0 l 1
 250 62 l 1
 358 62 l 1
 358 275 l 1
 126 624 l 1
 19 624 l 1
 19 686 l 1
 30 686 l 2
 49 683 156 683 189 683 c 0
 225 683 350 683 370 686 c 2
 383 686 l 1
 383 624 l 1
 308 624 l 2
 308 623 348 564 396 491 c 2
 484 359 l 1
 660 623 l 2
 660 624 643 624 623 624 c 2
 585 624 l 1
 585 686 l 1
 595 686 l 2
 607 684 703 683 728 683 c 0
 752 683 828 683 841 686 c 2
 849 686 l 1
 849 624 l 1
 742 624 l 1
 509 274 l 1
 509 62 l 1
 618 62 l 1
 618 0 l 1
 605 0 l 2
EndSplineSet
EndChar

StartChar: Z
Encoding: 90 90 59
Width: 703
GlyphClass: 2
Flags: MW
HStem: 0 66<298 314 314 353 353 360 298 627> 624 62<384 402.5>
VStem: 80 62<430 432> 583 62<291 298.5>
LayerCount: 2
Fore
SplineSet
80 430 m 1
 92 686 l 1
 358 686 l 2
 613 686 624 686 628 684 c 0
 636 680 638 676 638 656 c 0
 638 648 638 640 637 639 c 0
 637 638 550 509 445 353 c 0
 340 196 253 68 253 67 c 0
 252 66 272 66 298 66 c 2
 314 66 l 2
 406 66 455 67 504 100 c 0
 517 108 536 127 544 139 c 0
 567 174 583 236 583 298 c 0
 583 299 593 299 614 299 c 2
 645 299 l 1
 645 291 l 2
 644 287 628 11 627 8 c 2
 627 0 l 1
 353 0 l 2
 109 0 79 0 75 2 c 0
 66 6 64 10 64 31 c 0
 64 46 64 48 66 52 c 2
 259 340 l 2
 364 495 450 623 451 623 c 1
 451 624 421 624 384 624 c 0
 312 623 306 623 280 617 c 0
 196 600 152 545 143 446 c 0
 142 440 142 433 142 432 c 2
 142 430 l 1
 80 430 l 1
EndSplineSet
EndChar

StartChar: bracketleft
Encoding: 91 91 60
Width: 319
GlyphClass: 2
Flags: MW
HStem: -250 61<189 293 189 293> 689 61<189 293 189 189>
VStem: 128 61<-189 689 -189 750> 128 165<-250 -189 689 750>
LayerCount: 2
Fore
SplineSet
128 -250 m 1xd0
 128 750 l 1
 293 750 l 1
 293 689 l 1xd0
 189 689 l 1
 189 -189 l 1xe0
 293 -189 l 1
 293 -250 l 1
 128 -250 l 1xd0
EndSplineSet
EndChar

StartChar: backslash
Encoding: 92 92 61
Width: 575
GlyphClass: 2
Flags: W
LayerCount: 2
Fore
SplineSet
64 718 m 0
 63 734 75 750 94 750 c 0
 101 750 108 748 113 743 c 0
 117 741 119 738 122 732 c 2
 318 256 l 2
 492 -168 509 -212 510 -218 c 0
 511 -236 497 -250 480 -250 c 0
 466 -250 456 -241 451 -230 c 0
 447 -217 67 697 64 718 c 0
EndSplineSet
EndChar

StartChar: bracketright
Encoding: 93 93 62
Width: 319
GlyphClass: 2
Flags: MW
HStem: -250 61<25 129 25 190 25 129> 689 61<25 190 25 129>
VStem: 25 165<-250 -189 -189 -189 689 750 -250 750> 129 61<-189 689 689 689>
LayerCount: 2
Fore
SplineSet
25 689 m 1xe0
 25 750 l 1
 190 750 l 1
 190 -250 l 1
 25 -250 l 1
 25 -189 l 1xe0
 129 -189 l 1
 129 689 l 1xd0
 25 689 l 1xe0
EndSplineSet
EndChar

StartChar: asciicircum
Encoding: 94 94 63
Width: 575
GlyphClass: 2
Flags: MW
HStem: 520 174<160.5 287 287 413.5>
VStem: 126 322<569.5 570.5>
LayerCount: 2
Fore
SplineSet
207 632 m 2
 287 694 l 2
 289 693 448 571 448 570 c 0
 448 569 414 520 413 520 c 0
 412 520 384 537 350 559 c 2
 287 597 l 1
 224 559 l 2
 190 537 162 520 161 520 c 0
 160 520 126 569 126 570 c 0
 126 571 163 599 207 632 c 2
EndSplineSet
EndChar

StartChar: underscore
Encoding: 95 95 64
Width: 575
GlyphClass: 2
Flags: MW
HStem: -61 51<0 574 0 574>
LayerCount: 2
Fore
SplineSet
0 -61 m 1
 0 -10 l 1
 574 -10 l 1
 574 -61 l 1
 0 -61 l 1
EndSplineSet
EndChar

StartChar: grave
Encoding: 96 96 65
Width: 575
GlyphClass: 2
Flags: MW
HStem: 503 203<165 299>
VStem: 114 223
LayerCount: 2
Fore
SplineSet
114 634 m 0
 114 672 147 706 183 706 c 0
 198 706 210 701 223 690 c 0
 224 689 336 554 337 553 c 0
 338 552 335 548 318 527 c 2
 299 503 l 1
 223 543 l 2
 181 564 144 584 140 587 c 0
 125 597 114 613 114 634 c 0
EndSplineSet
EndChar

StartChar: a
Encoding: 97 97 66
Width: 559
GlyphClass: 2
Flags: MW
HStem: -6 51<217 243.5> 0 62<462.5 542.5> 226 46<347 350 347 347> 402 51<238.5 284.5>
VStem: 32 132<101 136.5 101 144> 64 140<349 363.5 334 389> 350 129<117 196 77 226 77 226 77 292 77 329.5>
LayerCount: 2
Fore
SplineSet
497 0 m 0x76
 428 0 375 2 367 56 c 1
 356 46 l 2
 323 14 277 -6 210 -6 c 0
 116 -6 32 41 32 121 c 0xba
 32 167 66 209 124 233 c 0
 177 255 247 268 332 272 c 1
 350 272 l 1
 350 292 l 2
 350 367 321 402 248 402 c 0
 229 402 207 401 194 399 c 2
 189 399 l 1
 197 387 204 373 204 354 c 0
 204 314 179 284 134 284 c 0
 91 284 66 312 64 349 c 0
 64 429 141 453 255 453 c 0
 340 453 404 432 444 391 c 0
 457 377 468 358 473 341 c 0
 479 322 479 325 479 196 c 2
 479 77 l 1
 489 67 499 63 529 62 c 0
 556 62 558 60 558 31 c 0
 558 10 556 6 547 2 c 0
 544 0 536 0 497 0 c 0x76
164 121 m 0
 164 81 196 45 238 45 c 0
 280 45 322 65 340 93 c 0
 344 99 347 110 350 117 c 2
 350 226 l 1
 347 226 l 1
 290 222 237 209 204 188 c 0xb6
 184 173 164 152 164 121 c 0
EndSplineSet
EndChar

StartChar: b
Encoding: 98 98 67
Width: 639
GlyphClass: 2
Flags: MW
HStem: -6 51<332 368.5 332 429.5> 398 52<349.5 369.5> 624 62<29 32 32 32.5 29 42 29 32> 674 20G<215 221 221 221>
VStem: 98 123<0 694 409 437> 457 143<214 221 214 259>
LayerCount: 2
Fore
SplineSet
32 686 m 2xec
 33 686 214 694 215 694 c 2
 221 694 l 1xdc
 221 409 l 1
 260 432 321 450 378 450 c 0
 512 450 600 360 600 221 c 2
 600 214 l 1
 593 76 501 -6 358 -6 c 0
 293 -6 241 20 203 53 c 1
 160 1 l 1
 129 0 l 1
 98 0 l 1
 98 301 l 2
 98 573 98 602 96 607 c 0
 91 624 68 624 42 624 c 2
 29 624 l 1
 29 686 l 1
 32 686 l 2xec
444 343 m 0
 429 379 396 398 343 398 c 0
 297 398 260 377 235 355 c 2
 227 348 l 1
 227 105 l 1
 233 98 l 2
 251 75 272 60 298 52 c 0
 311 47 325 45 339 45 c 0
 398 45 441 78 451 131 c 0
 455 149 457 190 457 230 c 0
 457 288 453 320 444 343 c 0
EndSplineSet
EndChar

StartChar: c
Encoding: 99 99 68
Width: 511
GlyphClass: 2
Flags: MW
HStem: -6 56<253 326> 398 55<247.5 302>
VStem: 39 143<183.5 258.5> 325 139<332 361.5>
LayerCount: 2
Fore
SplineSet
295 398 m 0
 200 398 182 331 182 231 c 0
 182 136 200 78 270 57 c 0
 286 51 298 50 317 50 c 2
 326 50 l 2
 373 50 399 81 414 115 c 0
 421 131 420 131 447 131 c 0
 466 131 468 131 471 129 c 0
 475 127 478 122 478 117 c 0
 478 115 476 110 474 105 c 0
 458 61 423 27 377 9 c 0
 349 0 325 -6 286 -6 c 0
 220 -6 174 9 135 35 c 0
 76 72 39 132 39 222 c 0
 39 295 61 346 101 384 c 0
 144 428 202 453 286 453 c 0
 375 453 464 432 464 353 c 0
 464 309 438 284 395 284 c 0
 352 284 325 311 325 353 c 0
 325 370 330 385 338 396 c 1
 333 396 l 2
 325 397 309 398 295 398 c 0
EndSplineSet
EndChar

StartChar: d
Encoding: 100 100 69
Width: 639
GlyphClass: 2
Flags: MW
HStem: -6 52<269.5 294.5> 0 62<596 608.5> 399 50<288 303 265 319> 624 62<348 351 351 351.5 348 361 348 351> 674 20G<534 540 540 540>
VStem: 38 144<203.5 235> 411 129<251 350 350 350>
LayerCount: 2
Fore
SplineSet
351 686 m 2xb6
 352 686 533 694 534 694 c 2
 540 694 l 1
 540 389 l 2
 540 113 540 84 542 79 c 0
 547 62 570 62 596 62 c 2
 609 62 l 1
 609 31 l 2
 609 14 609 0 608 0 c 0x6e
 569 0 451 -6 412 -6 c 0
 411 -6 411 -1 411 16 c 2
 411 38 l 1
 401 31 l 1
 361 8 324 -6 265 -6 c 0
 162 -6 95 41 61 113 c 0
 46 145 38 183 38 224 c 0
 38 246 41 261 45 281 c 0
 66 375 135 433 236 448 c 0
 245 449 258 449 272 449 c 0
 334 449 378 436 417 412 c 1
 417 507 l 2
 417 591 417 602 415 607 c 0
 410 624 387 624 361 624 c 2
 348 624 l 1
 348 686 l 1
 351 686 l 2xb6
411 350 m 1
 381 380 347 399 291 399 c 0
 285 399 284 399 277 397 c 0
 255 394 232 384 218 371 c 0
 184 342 182 294 182 221 c 0
 182 149 182 108 212 74 c 0
 232 55 251 46 288 46 c 0xa6
 341 46 376 67 404 100 c 2
 411 109 l 1
 411 350 l 1
EndSplineSet
EndChar

StartChar: e
Encoding: 101 101 70
Width: 527
GlyphClass: 2
Flags: MW
HStem: -6 55<320.5 333.5> 218 48<176 327 175 383> 402 50<261.5 281 241 315>
VStem: 32 144<266 268> 383 111<266 276 276 276> 431 63
LayerCount: 2
Fore
SplineSet
463 135 m 0xf4
 485 135 494 133 494 117 c 0
 494 106 481 84 473 73 c 0
 438 23 375 -6 292 -6 c 0
 146 -6 54 71 34 190 c 0
 33 198 32 211 32 225 c 0
 32 311 67 368 119 406 c 0
 159 435 210 452 272 452 c 0
 290 452 314 452 322 451 c 0
 370 444 408 427 436 401 c 0
 472 365 494 312 494 243 c 0
 494 228 491 224 484 220 c 0
 480 218 473 218 327 218 c 2
 175 218 l 1
 175 209 l 2
 175 105 215 58 306 50 c 0
 312 49 318 49 323 49 c 0
 359 49 387 61 410 85 c 0
 419 96 426 106 431 119 c 0
 438 134 440 135 463 135 c 0xf4
383 276 m 1xf8
 377 344 350 402 280 402 c 0
 243 402 209 383 195 357 c 0
 184 339 178 312 176 279 c 2
 176 266 l 1
 383 266 l 1
 383 276 l 1xf8
EndSplineSet
EndChar

StartChar: f
Encoding: 102 102 71
Width: 351
GlyphClass: 2
Flags: MW
HStem: 0 62<40 49 40 109 308 318 308 308> 382 62<42 109 42 109 232 232 232 340> 537 163<342.5 402> 649 50<316 319 316 325 316 328>
VStem: 109 123<62 382 62 382 62 503 62 503> 314 138<585 613.5>
LayerCount: 2
Fore
SplineSet
308 0 m 2xdc
 295 3 198 3 172 3 c 0
 146 3 63 3 49 0 c 2
 40 0 l 1
 40 62 l 1
 109 62 l 1
 109 382 l 1
 42 382 l 1
 42 444 l 1
 109 444 l 1
 109 503 l 1
 110 562 l 1
 112 572 l 1
 134 652 217 692 316 699 c 0xdc
 322 699 337 700 348 700 c 0
 388 698 412 689 430 665 c 0
 445 648 452 627 452 606 c 0
 452 564 421 537 383 537 c 0xec
 345 537 314 563 314 605 c 0
 314 622 319 638 328 649 c 1
 325 649 l 2
 269 649 233 610 227 560 c 0
 226 555 226 529 226 498 c 2
 226 444 l 1
 340 444 l 1
 340 382 l 1
 232 382 l 1
 232 62 l 1
 318 62 l 1
 318 0 l 1
 308 0 l 2xdc
EndSplineSet
EndChar

StartChar: g
Encoding: 103 103 72
Width: 575
GlyphClass: 2
Flags: MW
HStem: -201 51<262 315.5 262 337.5> -20 111<194 263 228.5 253> 149 51<242 277.5 242 286> 399 51<233 277.5>
VStem: 30 100<-81 -66.5> 50 126<277 289 289 300 271.5 323.5> 66 63<84.5 153> 336 125<290.5 309.5> 443 101<-79 -62> 459 99
LayerCount: 2
Fore
SplineSet
101 15 m 1xf880
 82 39 66 63 66 106 c 0xf2
 66 142 74 164 90 187 c 2
 97 197 l 1
 89 204 l 2
 66 227 50 254 50 300 c 0
 50 347 66 373 92 397 c 0
 128 432 185 450 255 450 c 0
 303 450 344 442 376 426 c 2
 388 420 l 1
 413 439 448 455 489 455 c 0
 502 455 513 453 522 449 c 0
 545 437 558 412 558 389 c 0
 558 361 537 339 508 339 c 0
 483 339 464 354 459 376 c 0xf440
 456 388 457 396 462 400 c 0
 464 401 463 401 454 399 c 0
 447 397 428 391 427 390 c 0
 445 364 461 344 461 300 c 0
 461 252 446 226 419 202 c 0
 381 166 324 149 248 149 c 0
 203 149 164 158 136 172 c 1
 132 165 129 158 129 148 c 0xf3
 129 121 145 100 170 93 c 0
 173 92 194 91 263 91 c 0
 334 90 355 90 368 89 c 0
 409 84 438 77 466 64 c 0
 512 38 544 2 544 -69 c 0
 544 -106 530 -125 506 -145 c 0
 460 -183 388 -201 287 -201 c 0
 186 -201 114 -183 68 -145 c 0
 45 -126 30 -105 30 -70 c 0
 30 -63 30 -56 31 -51 c 0
 40 -23 66 4 97 13 c 1
 101 15 l 1xf880
485 403 m 1
 492 403 l 1
 492 403 491 404 488 404 c 0
 484 404 485 403 485 403 c 1
334 345 m 0
 327 384 300 399 255 399 c 0
 211 399 183 383 177 345 c 0
 176 338 176 319 176 300 c 2
 176 289 l 2
 176 254 177 234 194 219 c 0
 207 207 229 200 255 200 c 0
 300 200 327 215 334 254 c 0
 335 261 336 281 336 300 c 0xf5
 336 319 335 338 334 345 c 0
339 -21 m 0
 331 -21 291 -20 253 -20 c 2
 206 -20 l 2
 182 -20 171 -21 156 -26 c 0
 139 -34 130 -51 130 -69 c 0
 130 -93 147 -112 163 -123 c 0
 196 -141 237 -150 287 -150 c 0
 344 -150 393 -140 424 -112 c 0
 437 -98 443 -87 443 -71 c 0xf880
 443 -53 432 -43 420 -37 c 0
 403 -28 377 -23 339 -21 c 0
EndSplineSet
EndChar

StartChar: h
Encoding: 104 104 73
Width: 639
GlyphClass: 2
Flags: MW
HStem: 0 62<37 46 37 106 295 304 295 295 356 365 614 623 614 614> 399 51<335.5 444> 624 62<37 40 40 40.5 37 50 37 40> 674 20G<223 229 229 229>
VStem: 106 123<332 694> 425 129<62 194 194 198 62 236>
LayerCount: 2
Fore
SplineSet
40 686 m 2xec
 41 686 222 694 223 694 c 2
 229 694 l 1xdc
 229 533 l 1
 230 372 l 1
 238 381 l 2
 266 416 308 437 362 448 c 0
 368 449 383 450 398 450 c 0
 490 450 536 421 551 346 c 0
 553 335 553 332 554 198 c 2
 554 62 l 1
 623 62 l 1
 623 0 l 1
 614 0 l 2
 601 3 514 3 489 3 c 0
 463 3 379 3 365 0 c 2
 356 0 l 1
 356 62 l 1
 425 62 l 1
 425 194 l 2
 425 278 425 330 424 337 c 0
 420 378 408 399 371 399 c 0
 300 399 251 350 238 290 c 0
 236 281 236 280 235 171 c 2
 235 62 l 1
 304 62 l 1
 304 0 l 1
 295 0 l 2
 281 3 196 3 171 3 c 0
 145 3 60 3 46 0 c 2
 37 0 l 1
 37 62 l 1
 106 62 l 1
 106 332 l 2
 106 576 106 602 104 607 c 0
 99 624 76 624 50 624 c 2
 37 624 l 1
 37 686 l 1
 40 686 l 2xec
EndSplineSet
EndChar

StartChar: i
Encoding: 105 105 74
Width: 319
GlyphClass: 2
Flags: MW
HStem: 0 62<40 49 40 109 286 294 286 286> 380 62<43 46 46 46.5 43 55 43 46> 430 20G<226 232 232 232> 525 170<133.5 159 133.5 181.5>
VStem: 72 169<585.5 634.5 585.5 635> 109 123<62 209 209 261.5>
LayerCount: 2
Fore
SplineSet
72 610 m 0x98
 72 660 108 695 159 695 c 0
 205 692 241 659 241 610 c 0
 241 561 206 525 157 525 c 0
 107 525 72 560 72 610 c 0x98
46 442 m 2xd4
 47 442 225 450 226 450 c 2
 232 450 l 1xb4
 232 62 l 1
 294 62 l 1
 294 0 l 1
 286 0 l 2
 274 3 194 3 171 3 c 0
 147 3 62 3 49 0 c 2
 40 0 l 1
 40 62 l 1
 109 62 l 1
 109 209 l 2
 109 314 109 358 108 362 c 0
 103 380 81 380 55 380 c 2
 43 380 l 1
 43 442 l 1
 46 442 l 2xd4
EndSplineSet
EndChar

StartChar: j
Encoding: 106 106 75
Width: 351
GlyphClass: 2
Flags: MW
HStem: -200 51<73.5 97 73.5 110> 380 62<75 78 75 97 75 78> 430 20G<268 274 274 274> 525 170<165.5 191 165.5 213.5>
VStem: -71 140<-109.5 -82.5> 104 169<585.5 634.5 585.5 635> 151 123<149 196 196 362 362 362>
LayerCount: 2
Fore
SplineSet
104 610 m 0x9c
 104 660 140 695 191 695 c 0
 237 692 273 659 273 610 c 0
 273 561 238 525 189 525 c 0
 139 525 104 560 104 610 c 0x9c
78 442 m 1xda
 268 450 l 1
 274 450 l 1xba
 274 196 l 2
 274 -76 274 -64 269 -83 c 0
 266 -94 255 -115 248 -125 c 0
 213 -169 149 -200 71 -200 c 0
 0 -200 -71 -167 -71 -102 c 0
 -71 -63 -43 -31 -1 -31 c 0
 36 -31 69 -57 69 -100 c 0
 69 -119 61 -133 53 -147 c 1
 56 -147 l 2
 61 -148 70 -149 77 -149 c 0
 117 -149 140 -118 149 -73 c 0
 150 -64 151 -51 151 149 c 2
 151 362 l 1
 140 376 141 379 97 380 c 2
 75 380 l 1
 75 442 l 1
 78 442 l 1xda
EndSplineSet
EndChar

StartChar: k
Encoding: 107 107 76
Width: 607
GlyphClass: 2
Flags: MW
HStem: 0 62<29 37 29 98 277 285 277 277 343 352 579 587 579 579> 382 62<346 355 346 377 346 355 556 562> 624 62<29 32 32 32.5 29 42 29 32> 674 20G<215 221 221 221>
VStem: 98 123<255 332 332 454>
LayerCount: 2
Fore
SplineSet
32 686 m 2xe8
 33 686 214 694 215 694 c 2
 221 694 l 1xd8
 221 255 l 1
 377 382 l 1
 346 382 l 1
 346 444 l 1
 355 444 l 2
 365 442 454 441 476 441 c 0
 490 441 502 442 516 442 c 0
 535 443 553 443 556 444 c 2
 562 444 l 1
 562 382 l 1
 476 382 l 1
 347 277 l 1
 515 62 l 1
 587 62 l 1
 587 0 l 1
 579 0 l 2
 567 3 498 3 476 3 c 0
 452 3 364 2 352 0 c 2
 343 0 l 1
 343 62 l 1
 358 62 l 1
 373 63 l 1
 260 206 l 2
 259 206 249 198 237 189 c 2
 216 172 l 1
 216 62 l 1
 285 62 l 1
 285 0 l 1
 277 0 l 2
 264 3 181 3 157 3 c 0
 132 3 51 3 37 0 c 2
 29 0 l 1
 29 62 l 1
 98 62 l 1
 98 332 l 2
 98 576 98 602 96 607 c 0
 91 624 68 624 42 624 c 2
 29 624 l 1
 29 686 l 1
 32 686 l 2xe8
EndSplineSet
EndChar

StartChar: l
Encoding: 108 108 77
Width: 319
GlyphClass: 2
Flags: MW
HStem: 0 62<40 49 40 109 292 301 292 292> 624 62<40 43 43 43.5 40 53 40 43> 674 20G<226 232 232 232>
VStem: 109 123<62 332 332 454>
LayerCount: 2
Fore
SplineSet
43 686 m 2xd0
 44 686 225 694 226 694 c 2
 232 694 l 1xb0
 232 62 l 1
 301 62 l 1
 301 0 l 1
 292 0 l 2
 279 3 195 3 170 3 c 0
 145 3 62 3 49 0 c 2
 40 0 l 1
 40 62 l 1
 109 62 l 1
 109 332 l 2
 109 576 109 602 107 607 c 0
 102 624 79 624 53 624 c 2
 40 624 l 1
 40 686 l 1
 43 686 l 2xd0
EndSplineSet
EndChar

StartChar: m
Encoding: 109 109 78
Width: 958
GlyphClass: 2
Flags: MW
HStem: 0 62<37 46 37 106 295 304 295 295 356 365 614 623 614 614 675 684 933 942 933 933> 380 62<37 40 37 50 37 40> 399 51<357 389.5 678.5 708.5>
VStem: 106 129<62 171 62 210 62 276> 425 129<62 171 62 194 62 236> 744 129<62 194 194 198 62 236>
CounterMasks: 1 1c
LayerCount: 2
Fore
SplineSet
40 442 m 1xdc
 40 442 217 450 218 450 c 2
 224 450 l 1
 224 365 l 1
 226 367 l 1
 263 416 314 450 400 450 c 0
 466 450 511 435 534 393 c 0
 538 387 545 372 545 370 c 0
 545 368 546 369 555 379 c 0
 587 420 641 450 716 450 c 0
 807 450 856 422 870 346 c 0
 872 335 872 332 873 198 c 2
 873 62 l 1
 942 62 l 1
 942 0 l 1
 933 0 l 2
 919 3 834 3 809 3 c 0
 783 3 698 3 684 0 c 2
 675 0 l 1
 675 62 l 1
 744 62 l 1
 744 194 l 2
 744 278 744 330 743 337 c 0
 739 378 727 399 690 399 c 0
 619 399 570 350 557 290 c 0
 555 281 555 280 554 171 c 2
 554 62 l 1
 623 62 l 1
 623 0 l 1
 614 0 l 2
 601 3 514 3 489 3 c 0
 463 3 379 3 365 0 c 2
 356 0 l 1
 356 62 l 1
 425 62 l 1
 425 194 l 2
 425 278 425 330 424 337 c 0
 420 378 408 399 371 399 c 0xbc
 300 399 251 350 238 290 c 0
 236 281 236 280 235 171 c 2
 235 62 l 1
 304 62 l 1
 304 0 l 1
 295 0 l 2
 281 3 196 3 171 3 c 0
 145 3 60 3 46 0 c 2
 37 0 l 1
 37 62 l 1
 106 62 l 1
 106 210 l 2
 106 342 106 358 104 363 c 0
 99 380 76 380 50 380 c 2
 37 380 l 1
 37 442 l 1
 40 442 l 1xdc
EndSplineSet
EndChar

StartChar: n
Encoding: 110 110 79
Width: 639
GlyphClass: 2
Flags: MW
HStem: 0 62<37 46 37 106 295 304 295 295 356 365 614 623 614 614> 380 62<37 40 37 50 37 40> 399 51
VStem: 106 129<62 171 62 210 62 276> 425 129<62 194 194 198 62 236>
LayerCount: 2
Fore
SplineSet
40 442 m 1xd8
 40 442 217 450 218 450 c 2
 224 450 l 1
 224 407 l 1
 225 365 l 1
 251 408 302 436 362 448 c 0
 368 449 383 450 398 450 c 0
 490 450 536 421 551 346 c 0
 553 335 553 332 554 198 c 2
 554 62 l 1
 623 62 l 1
 623 0 l 1
 614 0 l 2
 601 3 514 3 489 3 c 0
 463 3 379 3 365 0 c 2
 356 0 l 1
 356 62 l 1
 425 62 l 1
 425 194 l 2
 425 278 425 330 424 337 c 0
 420 378 408 399 371 399 c 0xb8
 300 399 251 350 238 290 c 0
 236 281 236 280 235 171 c 2
 235 62 l 1
 304 62 l 1
 304 0 l 1
 295 0 l 2
 281 3 196 3 171 3 c 0
 145 3 60 3 46 0 c 2
 37 0 l 1
 37 62 l 1
 106 62 l 1
 106 210 l 2
 106 342 106 358 104 363 c 0
 99 380 76 380 50 380 c 2
 37 380 l 1
 37 442 l 1
 40 442 l 1xd8
EndSplineSet
EndChar

StartChar: o
Encoding: 111 111 80
Width: 575
GlyphClass: 2
Flags: MW
HStem: -5 55<266.5 307.5 266.5 319.5> 401 51<266.5 279 279 287 265 304.5>
VStem: 32 143<185 247> 399 143<185 236.5 179 272.5>
LayerCount: 2
Fore
SplineSet
265 452 m 2
 279 452 l 2
 295 452 319 452 326 451 c 0
 429 439 500 386 529 300 c 0
 537 274 542 252 542 221 c 0
 542 137 501 68 442 33 c 0
 403 7 352 -5 287 -5 c 0
 222 -5 171 7 132 33 c 0
 73 68 32 130 32 219 c 0
 32 275 51 331 84 371 c 0
 121 415 181 444 250 451 c 0
 256 452 262 452 265 452 c 2
375 367 m 0
 356 391 327 401 282 401 c 0
 251 401 227 391 212 380 c 0
 182 357 175 328 175 230 c 0
 175 140 181 106 200 84 c 0
 218 62 246 50 287 50 c 0
 328 50 356 62 374 84 c 0
 393 106 399 140 399 230 c 0
 399 315 394 346 375 367 c 0
EndSplineSet
EndChar

StartChar: p
Encoding: 112 112 81
Width: 639
GlyphClass: 2
Flags: MW
HStem: -194 62<29 38 29 98 287 296 287 287> -6 51<333.5 354 318.5 400.5> 380 62<29 32 32 32.5 29 42 29 32> 395 55<351 364>
VStem: 98 129<-132 34 -132 104 104 113 113 223.5> 457 143<190.5 256>
LayerCount: 2
Fore
SplineSet
32 442 m 2xec
 33 442 214 450 215 450 c 2
 221 450 l 1
 221 409 l 2
 222 409 226 411 231 414 c 0
 272 436 320 450 382 450 c 0xdc
 517 450 600 355 600 223 c 0
 600 152 573 95 536 58 c 0
 494 18 440 -6 361 -6 c 0
 306 -6 271 7 236 28 c 2
 227 34 l 1
 227 -132 l 1
 296 -132 l 1
 296 -194 l 1
 287 -194 l 2
 273 -191 188 -191 163 -191 c 0
 137 -191 52 -191 38 -194 c 2
 29 -194 l 1
 29 -132 l 1
 98 -132 l 1
 98 113 l 2
 98 334 98 358 96 363 c 0
 91 380 68 380 42 380 c 2
 29 380 l 1
 29 442 l 1
 32 442 l 2xec
412 368 m 0
 396 384 378 395 350 395 c 0
 303 395 261 377 235 352 c 2
 227 345 l 1
 227 104 l 1
 233 97 l 2
 259 64 300 45 337 45 c 0
 371 45 392 59 411 76 c 0
 442 110 457 157 457 224 c 0
 457 288 441 339 412 368 c 0
EndSplineSet
EndChar

StartChar: q
Encoding: 113 113 82
Width: 607
GlyphClass: 2
Flags: MW
HStem: -194 62<342 351 342 411 600 609 600 600> -6 52<283 297.5> 395 54<257.5 264 264 272.5 249 329.5>
VStem: 38 144<183 267 175.5 290> 411 129<-132 42 42 42>
LayerCount: 2
Fore
SplineSet
411 42 m 1
 366 14 331 -6 264 -6 c 0
 190 -6 141 18 102 56 c 0
 63 92 38 146 38 220 c 0
 38 360 125 436 249 449 c 1
 264 449 l 2
 281 449 303 448 311 447 c 0
 357 439 397 419 429 386 c 2
 438 377 l 1
 484 450 l 1
 540 450 l 1
 540 -132 l 1
 609 -132 l 1
 609 -194 l 1
 600 -194 l 2
 587 -191 500 -191 475 -191 c 0
 449 -191 365 -191 351 -194 c 2
 342 -194 l 1
 342 -132 l 1
 411 -132 l 1
 411 42 l 1
287 46 m 0
 351 46 391 84 417 127 c 1
 417 301 l 1
 412 312 l 2
 394 353 357 395 302 395 c 0
 213 395 182 313 182 221 c 0
 182 130 212 63 268 47 c 0
 272 46 279 46 287 46 c 0
EndSplineSet
EndChar

StartChar: r
Encoding: 114 114 83
Width: 474
GlyphClass: 2
Flags: MW
HStem: 0 62<29 38 29 98 298 308 298 298> 380 62<29 32 29 42 29 32> 399 50<314.5 315>
VStem: 98 123<62 149 62 210 62 276>
LayerCount: 2
Fore
SplineSet
373 293 m 0xb0
 331 293 305 323 305 361 c 0
 305 371 309 387 312 394 c 0
 314 396 315 398 315 399 c 1xb0
 314 399 302 397 297 395 c 0
 247 380 227 314 222 249 c 0
 221 241 221 198 221 149 c 2
 221 62 l 1
 308 62 l 1
 308 0 l 1
 298 0 l 2
 285 3 187 3 161 3 c 0
 135 3 52 3 38 0 c 2
 29 0 l 1
 29 62 l 1
 98 62 l 1
 98 210 l 2
 98 342 98 358 96 363 c 0
 91 380 68 380 42 380 c 2
 29 380 l 1
 29 442 l 1
 32 442 l 1xd0
 205 450 l 1
 210 450 l 1
 210 414 l 1
 211 378 l 1
 231 417 262 449 321 449 c 0
 367 449 407 433 426 407 c 0
 437 393 442 380 442 360 c 0
 442 323 415 293 373 293 c 0xb0
EndSplineSet
EndChar

StartChar: s
Encoding: 115 115 84
Width: 454
GlyphClass: 2
Flags: MW
HStem: -6 52<207.5 258.5 194 285> 406 47<197 243.5 184.5 253.5>
VStem: 38 65 38 85<312 374> 324 62<335.5 417.5> 330 84<89 114.5>
LayerCount: 2
Fore
SplineSet
230 46 m 0xe4
 287 46 330 62 330 108 c 0xe4
 330 121 326 131 316 142 c 0
 307 150 298 157 284 162 c 0
 271 168 265 169 217 177 c 0
 159 187 145 191 122 202 c 0
 75 225 47 258 39 299 c 0
 38 304 38 309 38 315 c 0
 38 344 47 371 60 391 c 0
 87 433 146 453 223 453 c 0
 264 453 293 446 320 436 c 1
 338 445 l 1
 357 453 l 1
 366 453 l 2
 374 453 376 453 379 451 c 0
 386 447 386 448 386 387 c 0
 386 326 386 327 379 323 c 0
 376 321 374 321 355 321 c 0
 336 321 335 321 331 323 c 0
 326 326 324 330 324 341 c 0
 320 383 283 406 224 406 c 0
 170 406 123 395 123 353 c 0xd8
 123 329 151 316 174 307 c 0
 185 304 275 289 285 286 c 0
 348 271 395 231 412 172 c 0
 414 162 414 160 414 142 c 0
 414 36 340 -6 230 -6 c 0
 185 -6 141 4 117 22 c 1
 68 -6 l 1
 58 -6 l 2
 50 -6 48 -6 45 -4 c 0
 38 0 38 -3 38 73 c 0
 38 149 38 146 44 150 c 0
 47 152 49 153 68 153 c 0
 88 153 89 153 93 151 c 0
 97 148 97 148 103 132 c 0
 122 73 158 46 230 46 c 0xe4
EndSplineSet
EndChar

StartChar: t
Encoding: 116 116 85
Width: 447
GlyphClass: 2
Flags: MW
HStem: -5 54<208.5 275 262 272> 382 51<21 25 25 35 21 95 21 25> 382 62<224 363 224 363>
VStem: 95 129<245 382 239 382> 162 62<621 635> 320 62<145 177 129.5 177>
LayerCount: 2
Fore
SplineSet
162 621 m 1xcc
 162 635 l 1
 224 635 l 1
 224 444 l 1xac
 363 444 l 1
 363 382 l 1
 224 382 l 1xb4
 224 239 l 2
 225 83 224 91 230 76 c 0
 238 60 252 49 272 49 c 0
 278 49 283 50 288 53 c 0
 317 66 320 98 320 145 c 2
 320 177 l 1
 382 177 l 1
 382 143 l 2
 382 116 382 106 380 99 c 0
 372 50 336 12 285 -2 c 2
 272 -5 l 1
 247 -5 l 2
 170 -5 117 19 100 80 c 0
 95 98 95 98 95 245 c 2
 95 382 l 1xd4
 21 382 l 1
 21 433 l 1
 25 433 l 2
 45 433 72 443 90 456 c 0
 131 487 158 549 162 621 c 1xcc
EndSplineSet
EndChar

StartChar: u
Encoding: 117 117 86
Width: 639
GlyphClass: 2
Flags: MW
HStem: -6 52<232.5 319> 0 62<610 622.5> 380 62<37 40 40 40.5 37 50 37 40> 430 20G<229 235 235 235 554 554>
VStem: 106 129<230 273 273 292.5> 425 129<249 267 267 297.5>
LayerCount: 2
Fore
SplineSet
40 442 m 2xac
 41 442 228 450 229 450 c 2
 235 450 l 1x1c
 235 273 l 2
 235 160 235 92 236 85 c 0
 238 62 241 57 254 52 c 0
 266 47 276 46 304 46 c 2
 319 46 l 2
 370 46 406 81 419 121 c 0
 425 138 424 131 425 249 c 0
 425 346 425 358 423 363 c 0
 418 380 395 380 369 380 c 2
 356 380 l 1
 356 442 l 1xac
 554 450 l 1
 554 267 l 2
 554 103 554 84 556 79 c 0
 561 62 584 62 610 62 c 2
 623 62 l 1
 623 31 l 2
 623 7 623 0 622 0 c 0x5c
 584 0 470 -6 432 -6 c 0
 431 -6 431 1 431 25 c 2
 431 56 l 1
 420 45 l 2
 396 24 368 5 332 -1 c 0
 317 -5 305 -6 281 -6 c 0
 184 -6 127 15 109 87 c 1
 107 98 l 1
 106 230 l 2
 106 355 105 362 104 366 c 0
 98 378 73 380 50 380 c 2
 37 380 l 1
 37 442 l 1
 40 442 l 2xac
EndSplineSet
EndChar

StartChar: v
Encoding: 118 118 87
Width: 607
GlyphClass: 2
Flags: MW
HStem: 382 62<26 34 26 96 26 34 270 279 394 401 574 580>
LayerCount: 2
Fore
SplineSet
401 444 m 2
 410 442 477 441 495 441 c 0
 512 441 566 441 574 444 c 2
 580 444 l 1
 580 382 l 1
 510 382 l 1
 409 156 l 2
 338 -3 341 5 331 -1 c 0
 326 -3 325 -3 303 -3 c 0
 281 -3 280 -3 276 -1 c 0
 265 5 268 -3 197 156 c 2
 96 382 l 1
 26 382 l 1
 26 444 l 1
 34 444 l 2
 46 441 122 441 145 441 c 0
 170 441 257 441 270 444 c 2
 279 444 l 1
 279 382 l 1
 231 382 l 1
 284 264 l 2
 331 158 337 147 338 149 c 0
 339 151 440 377 442 381 c 0
 442 382 437 382 418 382 c 2
 394 382 l 1
 394 444 l 1
 401 444 l 2
EndSplineSet
EndChar

StartChar: w
Encoding: 119 119 88
Width: 831
GlyphClass: 2
Flags: MW
HStem: 382 62<25 32 25 90 25 32 261 270 303 310 523 531 617 624 800 805>
LayerCount: 2
Fore
SplineSet
624 444 m 2
 633 442 703 441 722 441 c 0
 734 441 746 442 760 442 c 0
 779 443 798 443 800 444 c 2
 805 444 l 1
 805 382 l 1
 741 382 l 1
 593 11 l 1
 581 -1 581 -4 553 -4 c 0
 528 -4 522 -3 514 12 c 0
 512 14 490 71 463 137 c 2
 415 257 l 1
 367 137 l 2
 340 71 318 14 316 12 c 0
 308 -3 302 -4 277 -4 c 0
 249 -4 248 -1 238 11 c 1
 90 382 l 1
 25 382 l 1
 25 444 l 1
 32 444 l 2
 44 441 117 441 140 441 c 0
 164 441 248 441 261 444 c 2
 270 444 l 1
 270 382 l 1
 222 382 l 1
 310 164 l 1
 382 342 l 1
 366 382 l 1
 303 382 l 1
 303 444 l 1
 310 444 l 2
 319 441 387 441 407 441 c 0
 430 441 511 442 523 444 c 2
 531 444 l 1
 531 382 l 1
 506 382 l 2
 482 382 481 382 481 380 c 0
 482 377 576 142 577 142 c 2
 674 382 l 1
 617 382 l 1
 617 444 l 1
 624 444 l 2
EndSplineSet
EndChar

StartChar: x
Encoding: 120 120 89
Width: 607
GlyphClass: 2
Flags: MW
HStem: 0 62<21 28 21 117 227 235 227 227 338 347 578 578 578 586> 382 62<26 34 26 109 26 34 265 274 352 360 559 566>
LayerCount: 2
Fore
SplineSet
227 0 m 2
 218 2 141 3 121 3 c 0
 102 3 37 3 28 0 c 2
 21 0 l 1
 21 62 l 1
 117 62 l 1
 245 213 l 1
 109 382 l 1
 26 382 l 1
 26 444 l 1
 34 444 l 2
 46 441 120 441 143 441 c 0
 167 441 253 442 265 444 c 2
 274 444 l 1
 274 382 l 1
 246 382 l 1
 281 339 l 2
 309 304 314 297 316 297 c 0
 318 297 335 318 354 341 c 2
 389 382 l 1
 352 382 l 1
 352 444 l 1
 360 444 l 2
 369 442 446 441 466 441 c 0
 485 441 550 441 559 444 c 2
 566 444 l 1
 566 382 l 1
 471 382 l 1
 355 246 l 1
 504 63 l 1
 545 62 l 1
 586 62 l 1
 586 0 l 1
 578 0 l 2
 566 3 492 3 469 3 c 0
 445 3 359 2 347 0 c 2
 338 0 l 1
 338 62 l 1
 366 62 l 2
 366 63 286 162 285 163 c 2
 198 63 l 1
 217 62 l 1
 235 62 l 1
 235 0 l 1
 227 0 l 2
EndSplineSet
EndChar

StartChar: y
Encoding: 121 121 90
Width: 607
GlyphClass: 2
Flags: MW
HStem: -200 51<118.5 133 118.5 142.5> -100 65<84 103.5 68 152 84 84> 382 62<26 34 26 96 26 34 270 279 394 401 574 580>
VStem: 23 61<-108 -102 -102 -100 -116 -80>
LayerCount: 2
Fore
SplineSet
84 -102 m 2
 84 -130 104 -149 133 -149 c 0
 168 -147 202 -126 224 -94 c 0
 232 -82 232 -82 252 -37 c 2
 269 0 l 1
 96 382 l 1
 26 382 l 1
 26 444 l 1
 34 444 l 2
 46 441 123 441 146 441 c 0
 170 441 257 441 270 444 c 2
 279 444 l 1
 279 382 l 1
 255 382 l 2
 233 382 232 382 232 380 c 0
 235 373 337 151 337 151 c 1
 442 382 l 1
 394 382 l 1
 394 444 l 1
 401 444 l 2
 410 442 477 441 495 441 c 0
 512 441 566 441 574 444 c 2
 580 444 l 1
 580 382 l 1
 510 382 l 1
 406 152 l 2
 348 25 299 -82 297 -87 c 0
 275 -128 240 -164 201 -183 c 0
 179 -194 154 -200 131 -200 c 0
 80 -200 44 -173 29 -135 c 0
 24 -123 23 -116 23 -100 c 0
 23 -60 49 -35 87 -35 c 0
 120 -35 148 -58 152 -92 c 1
 152 -100 l 1
 84 -100 l 1
 84 -102 l 2
EndSplineSet
EndChar

StartChar: z
Encoding: 122 122 91
Width: 511
GlyphClass: 2
Flags: MW
HStem: 0 55<194 237 194 245 194 444> 393 51<256 298 256 256>
VStem: 48 62<255 259 255 262 255 262> 400 62<214 216.5>
LayerCount: 2
Fore
SplineSet
48 262 m 2
 49 267 59 431 60 436 c 2
 60 444 l 1
 252 444 l 2
 423 444 444 444 448 442 c 0
 457 439 459 434 459 418 c 0
 459 411 459 406 458 404 c 0
 455 398 195 57 194 55 c 2
 237 55 l 2
 284 56 296 57 315 62 c 0
 364 77 386 106 395 170 c 0
 397 181 400 212 400 216 c 0
 400 217 414 217 431 217 c 2
 462 217 l 1
 462 211 l 2
 461 209 444 7 444 6 c 2
 444 0 l 1
 245 0 l 2
 55 0 46 0 43 2 c 0
 34 6 32 11 32 28 c 0
 32 38 32 41 34 44 c 0
 35 46 94 124 164 217 c 0
 238 313 294 387 298 393 c 1
 256 393 l 2
 212 392 204 392 187 387 c 0
 146 377 123 351 115 303 c 0
 113 294 110 262 110 256 c 0
 110 254 108 254 79 254 c 2
 48 254 l 1
 48 262 l 2
EndSplineSet
EndChar

StartChar: braceleft
Encoding: 123 123 92
Width: 575
GlyphClass: 2
Flags: MW
HStem: -250 51 224 52<93 93> 699 50
VStem: 225 125<-135 45>
LayerCount: 2
Fore
SplineSet
426 749 m 0
 433 749 451 750 466 750 c 0
 492 750 493 750 497 748 c 0
 503 745 504 741 504 725 c 0
 504 701 502 700 480 699 c 0
 426 696 375 681 357 645 c 0
 350 631 350 637 350 497 c 0
 350 413 350 369 349 363 c 0
 340 315 315 290 273 268 c 0
 259 261 232 251 227 251 c 2
 227 251 226 251 226 250 c 0
 226 249 227 249 227 249 c 2
 232 249 259 239 273 232 c 0
 316 209 340 185 349 137 c 0
 350 131 350 87 350 3 c 0
 350 -104 350 -125 352 -130 c 0
 360 -170 408 -196 480 -199 c 0
 502 -200 504 -201 504 -225 c 0
 504 -241 503 -245 497 -248 c 0
 493 -250 492 -250 469 -250 c 0
 383 -250 317 -236 277 -210 c 0
 250 -193 235 -173 227 -145 c 2
 225 -135 l 1
 224 0 l 2
 224 74 223 136 223 137 c 0
 222 138 221 142 220 146 c 0
 215 160 208 172 195 185 c 0
 180 198 164 208 141 215 c 0
 125 221 112 223 93 224 c 0
 70 226 70 228 70 250 c 0
 70 272 70 274 93 276 c 0
 112 277 125 279 141 285 c 0
 164 292 180 302 195 315 c 0
 208 328 215 340 220 354 c 0
 221 358 222 362 223 363 c 0
 223 364 224 426 224 501 c 2
 225 636 l 1
 243 716 324 743 426 749 c 0
EndSplineSet
EndChar

StartChar: bar
Encoding: 124 124 93
Width: 319
GlyphClass: 2
Flags: MW
VStem: 129 61<-225 250 250 462.5>
LayerCount: 2
Fore
SplineSet
160 -249 m 0
 142 -249 134 -238 129 -225 c 1
 129 250 l 2
 129 675 129 725 131 729 c 0
 135 740 144 750 159 750 c 0
 177 750 185 738 190 725 c 1
 190 -225 l 1
 185 -238 178 -249 160 -249 c 0
EndSplineSet
EndChar

StartChar: braceright
Encoding: 125 125 94
Width: 575
GlyphClass: 2
Flags: MW
HStem: -250 51 224 52<481 481> 699 49
VStem: 224 125<-135 45>
LayerCount: 2
Fore
SplineSet
78 748 m 0
 81 750 85 750 106 750 c 0
 191 750 257 736 298 710 c 0
 327 691 342 670 349 636 c 1
 350 501 l 2
 350 426 351 364 351 363 c 0
 352 362 353 358 354 354 c 0
 359 340 366 328 379 315 c 0
 394 302 410 292 433 285 c 0
 449 279 462 277 481 276 c 0
 504 274 504 272 504 250 c 0
 504 228 504 226 481 224 c 0
 462 223 449 221 433 215 c 0
 410 208 394 198 379 185 c 0
 366 172 359 160 354 146 c 0
 353 142 352 138 351 137 c 0
 351 136 350 74 350 0 c 2
 349 -135 l 1
 347 -145 l 2
 339 -173 324 -193 298 -210 c 0
 257 -236 191 -250 106 -250 c 0
 79 -250 77 -250 73 -244 c 0
 71 -241 70 -239 70 -226 c 0
 70 -202 71 -200 95 -199 c 0
 148 -196 199 -181 217 -145 c 0
 224 -131 224 -137 224 3 c 0
 224 87 224 131 225 137 c 0
 234 185 258 209 301 232 c 0
 315 239 342 249 347 249 c 2
 347 249 348 249 348 250 c 0
 348 251 347 251 347 251 c 2
 342 251 315 261 301 268 c 0
 259 290 234 315 225 363 c 0
 224 369 224 413 224 497 c 0
 224 604 224 625 222 631 c 0
 214 670 166 696 95 699 c 0
 71 700 70 702 70 726 c 0
 71 743 71 745 78 748 c 0
EndSplineSet
EndChar

StartChar: asciitilde
Encoding: 126 126 95
Width: 575
GlyphClass: 2
Flags: MW
HStem: 202 95<350.5 353.5>
LayerCount: 2
Fore
SplineSet
218 343 m 0
 225 344 236 344 244 343 c 0
 258 340 272 334 295 321 c 0
 324 304 342 297 359 297 c 0
 387 297 405 309 428 332 c 2
 440 344 l 1
 459 327 l 2
 469 318 478 311 478 310 c 2
 478 310 416 240 409 233 c 0
 386 212 364 202 343 202 c 0
 319 202 307 208 279 225 c 0
 250 242 232 249 215 249 c 0
 187 249 169 237 146 214 c 2
 134 202 l 1
 115 219 l 2
 105 228 96 235 96 236 c 2
 96 236 158 306 165 313 c 0
 183 329 201 340 218 343 c 0
EndSplineSet
EndChar

StartChar: dieresis
Encoding: 168 168 97
Width: 575
GlyphClass: 2
Flags: MW
HStem: 535 160<172.5 178 172.5 197 395 418.5>
VStem: 96 159<592 637> 319 159<592 638>
LayerCount: 2
Fore
SplineSet
255 615 m 0
 255 569 218 535 176 535 c 0
 131 535 96 568 96 615 c 0
 96 659 123 682 156 693 c 0
 164 695 167 695 178 695 c 0
 219 693 255 662 255 615 c 0
319 615 m 0
 319 661 355 695 399 695 c 0
 442 695 478 661 478 615 c 0
 478 566 442 535 395 535 c 0
 355 538 319 569 319 615 c 0
EndSplineSet
EndChar

StartChar: logicalnot
Encoding: 172 172 98
Width: 767
GlyphClass: 2
Flags: MW
HStem: 310 61<385 641 364 680>
VStem: 641 61<198 280.5 152 310 152 310>
LayerCount: 2
Fore
SplineSet
84 369 m 0
 89 371 107 371 385 371 c 2
 680 371 l 1
 688 365 696 361 700 351 c 0
 702 346 702 345 702 216 c 0
 702 88 702 86 700 81 c 0
 696 69 686 61 671 61 c 0
 659 61 647 69 643 81 c 0
 641 86 641 88 641 198 c 2
 641 310 l 1
 364 310 l 1
 87 311 l 1
 75 316 64 325 64 341 c 0
 64 354 72 365 84 369 c 0
EndSplineSet
EndChar

StartChar: macron
Encoding: 175 175 99
Width: 575
GlyphClass: 2
Flags: MW
HStem: 540 67<80 494 80 494>
LayerCount: 2
Fore
SplineSet
80 540 m 1
 80 607 l 1
 494 607 l 1
 494 540 l 1
 80 540 l 1
EndSplineSet
EndChar

StartChar: degree
Encoding: 176 176 100
Width: 575
GlyphClass: 2
Flags: MW
HStem: 536 42<270 298.5> 660 42<252.5 270.5>
VStem: 160 62<609.5 623> 352 62<609 623 596 638>
LayerCount: 2
Fore
SplineSet
167 647 m 0
 182 680 223 702 279 702 c 0
 343 702 388 686 407 647 c 0
 412 638 414 628 414 618 c 0
 414 574 372 546 326 538 c 0
 315 536 310 536 287 536 c 0
 243 536 220 542 196 557 c 0
 173 572 160 595 160 618 c 0
 160 628 162 638 167 647 c 0
352 618 m 0
 352 658 335 659 292 659 c 0
 281 659 273 660 268 660 c 0
 237 660 222 650 222 619 c 0
 222 600 226 590 235 584 c 0
 244 579 253 578 287 578 c 0
 321 578 330 579 339 584 c 0
 348 590 352 600 352 618 c 0
EndSplineSet
EndChar

StartChar: plusminus
Encoding: 177 177 101
Width: 894
GlyphClass: 2
Flags: MW
HStem: -35 60<87 416 87 416 477 807> 316 61<251 416 251 251 477 642>
VStem: 416 61<25 316 25 316 377 540>
LayerCount: 2
Fore
SplineSet
87 -35 m 1
 74 -30 64 -21 64 -6 c 0
 64 6 71 18 82 22 c 2
 87 25 l 1
 416 25 l 1
 416 316 l 1
 251 316 l 1
 87 317 l 1
 74 322 64 331 64 346 c 0
 64 358 71 370 82 374 c 2
 87 377 l 1
 416 377 l 1
 416 542 l 1
 417 707 l 1
 422 717 429 728 443 728 c 0
 460 728 470 721 475 709 c 0
 477 704 477 703 477 540 c 2
 477 377 l 1
 807 377 l 1
 811 374 l 2
 822 370 829 358 829 347 c 0
 829 331 819 323 807 317 c 1
 642 316 l 1
 477 316 l 1
 477 25 l 1
 807 25 l 1
 811 22 l 2
 822 18 829 6 829 -5 c 0
 829 -21 819 -29 807 -35 c 1
 87 -35 l 1
EndSplineSet
EndChar

StartChar: acute
Encoding: 180 180 102
Width: 575
GlyphClass: 2
Flags: MW
HStem: 503 203<275 410.5>
VStem: 237 223
LayerCount: 2
Fore
SplineSet
391 706 m 0
 430 706 460 666 460 634 c 0
 460 616 451 599 434 587 c 0
 430 584 393 564 351 543 c 2
 275 503 l 1
 256 527 l 2
 239 548 236 552 237 553 c 0
 238 554 263 584 292 620 c 0
 354 696 356 698 374 704 c 0
 379 705 385 706 391 706 c 0
EndSplineSet
EndChar

StartChar: multiply
Encoding: 215 215 103
Width: 894
GlyphClass: 2
Flags: W
LayerCount: 2
Fore
SplineSet
168 500 m 0
 168 516 180 530 195 530 c 0
 200 530 207 528 211 527 c 0
 215 525 234 506 331 409 c 2
 447 294 l 1
 563 409 l 2
 644 490 680 526 683 527 c 0
 686 529 690 529 695 529 c 0
 714 529 726 515 726 499 c 0
 726 495 725 492 724 488 c 0
 722 483 717 478 606 367 c 2
 490 251 l 1
 606 135 l 2
 717 23 722 18 724 13 c 0
 725 9 726 6 726 2 c 0
 726 -14 714 -28 695 -28 c 0
 690 -28 686 -28 683 -26 c 0
 680 -25 644 11 563 92 c 2
 447 207 l 1
 331 91 l 2
 221 -18 212 -28 203 -28 c 2
 197 -28 l 2
 179 -28 168 -17 168 2 c 0
 168 8 168 10 170 15 c 0
 172 18 202 49 288 135 c 2
 404 250 l 1
 288 366 l 2
 207 448 171 484 170 487 c 0
 168 490 168 495 168 500 c 0
EndSplineSet
EndChar

StartChar: divide
Encoding: 247 247 104
Width: 894
GlyphClass: 2
Flags: MW
HStem: -96 204<421.5 472 415 475.5> 221 60<448 806 448 806> 393 204<418 470.5>
VStem: 344 204<-19.5 31.5 469.5 519.5>
LayerCount: 2
Fore
SplineSet
344 495 m 0
 344 551 389 597 447 597 c 0
 508 597 548 544 548 495 c 0
 548 433 495 393 446 393 c 0
 386 393 344 444 344 495 c 0
87 221 m 1
 75 226 64 235 64 251 c 0
 64 264 72 275 84 279 c 0
 89 281 110 281 448 281 c 2
 806 281 l 1
 810 278 l 2
 821 274 828 262 828 251 c 0
 828 235 818 227 806 221 c 1
 87 221 l 1
344 6 m 0
 344 57 384 108 446 108 c 0
 498 108 548 68 548 6 c 0
 548 -45 505 -96 446 -96 c 0
 397 -96 344 -56 344 6 c 0
EndSplineSet
EndChar

StartChar: dotlessi
Encoding: 305 305 105
Width: 394
GlyphClass: 2
Flags: MW
HStem: -8 50<210.5 221 210.5 238> 402 50<170 180.5>
VStem: 24 65 83 119<53.5 61 51.5 87> 189 119<384 390.5 357 393> 302 65
LayerCount: 2
Fore
SplineSet
201 -8 m 0xd4
 139 -8 83 23 83 84 c 0xd4
 83 90 84 97 85 102 c 0
 86 105 183 356 184 358 c 0
 187 369 189 380 189 388 c 0
 189 398 184 402 177 402 c 0
 163 402 139 385 134 380 c 0
 114 362 98 335 89 304 c 0
 83 283 83 282 61 282 c 2
 55 282 l 2
 36 282 34 282 31 284 c 0
 27 286 24 291 24 296 c 0
 24 300 30 318 35 330 c 0
 59 390 111 452 187 452 c 0
 250 452 308 421 308 360 c 0xe8
 308 354 307 347 306 342 c 0
 305 340 207 88 207 87 c 0
 204 75 202 65 202 57 c 0
 202 46 207 42 214 42 c 0
 228 42 252 59 257 64 c 0
 277 82 293 109 302 140 c 0
 308 161 308 162 330 162 c 2
 336 162 l 2
 355 162 357 162 360 160 c 0
 364 158 367 153 367 148 c 0
 367 144 361 126 356 114 c 0
 331 53 275 -8 201 -8 c 0xd4
EndSplineSet
EndChar

StartChar: uni0237
Encoding: 567 567 106
Width: 439
GlyphClass: 2
Flags: MW
HStem: -201 50<100 104 104 107 100 112> 401 50<276 279 279 285>
VStem: -12 135<-107.5 -105> 297 123<339 383>
LayerCount: 2
Fore
SplineSet
297 373 m 0
 297 393 294 401 276 401 c 0
 249 399 224 386 200 363 c 0
 181 343 171 328 158 302 c 0
 149 283 149 282 129 282 c 2
 123 282 l 2
 104 282 103 282 99 284 c 0
 94 287 92 292 92 298 c 0
 94 309 115 347 132 369 c 0
 166 411 209 440 267 451 c 1
 279 451 l 2
 353 451 404 425 418 376 c 0
 420 370 420 366 420 354 c 2
 420 339 l 1
 370 138 l 2
 343 28 319 -65 317 -69 c 0
 302 -112 265 -150 214 -175 c 0
 195 -184 183 -188 163 -194 c 0
 137 -200 125 -201 99 -201 c 0
 45 -201 11 -185 -5 -155 c 0
 -10 -146 -12 -136 -12 -125 c 0
 -12 -85 21 -43 68 -43 c 0
 100 -43 123 -64 123 -95 c 0
 123 -120 112 -136 100 -151 c 1
 104 -151 l 2
 110 -151 121 -149 127 -146 c 0
 154 -134 179 -101 193 -60 c 0
 195 -54 292 332 294 345 c 0
 296 355 297 365 297 373 c 0
EndSplineSet
EndChar

StartChar: circumflex
Encoding: 710 710 107
Width: 575
GlyphClass: 2
Flags: MW
HStem: 520 174<160.5 287 287 413.5>
VStem: 126 322<569.5 570.5>
LayerCount: 2
Fore
SplineSet
207 632 m 2
 287 694 l 2
 289 693 448 571 448 570 c 0
 448 569 414 520 413 520 c 0
 412 520 384 537 350 559 c 2
 287 597 l 1
 224 559 l 2
 190 537 162 520 161 520 c 0
 160 520 126 569 126 570 c 0
 126 571 163 599 207 632 c 2
EndSplineSet
EndChar

StartChar: caron
Encoding: 711 711 108
Width: 575
GlyphClass: 2
Flags: MW
HStem: 515 144<158 288>
VStem: 131 312<603 603>
LayerCount: 2
Fore
SplineSet
131 603 m 0
 129 606 156 661 158 659 c 0
 159 659 188 648 223 635 c 2
 287 611 l 1
 351 635 l 2
 386 648 415 659 416 659 c 0
 418 661 445 607 443 603 c 0
 440 601 289 515 287 515 c 0
 285 515 134 601 131 603 c 0
EndSplineSet
EndChar

StartChar: uni02C9
Encoding: 713 713 109
Width: 575
GlyphClass: 2
Flags: MW
HStem: 540 67<80 494 80 494>
LayerCount: 2
Fore
SplineSet
80 540 m 1
 80 607 l 1
 494 607 l 1
 494 540 l 1
 80 540 l 1
EndSplineSet
EndChar

StartChar: uni02CA
Encoding: 714 714 110
Width: 575
GlyphClass: 2
Flags: MW
HStem: 503 203<275 410.5>
VStem: 237 223
LayerCount: 2
Fore
SplineSet
391 706 m 0
 430 706 460 666 460 634 c 0
 460 616 451 599 434 587 c 0
 430 584 393 564 351 543 c 2
 275 503 l 1
 256 527 l 2
 239 548 236 552 237 553 c 0
 238 554 263 584 292 620 c 0
 354 696 356 698 374 704 c 0
 379 705 385 706 391 706 c 0
EndSplineSet
EndChar

StartChar: uni02CB
Encoding: 715 715 111
Width: 575
GlyphClass: 2
Flags: MW
HStem: 503 203<165 299>
VStem: 114 223
LayerCount: 2
Fore
SplineSet
114 634 m 0
 114 672 147 706 183 706 c 0
 198 706 210 701 223 690 c 0
 224 689 336 554 337 553 c 0
 338 552 335 548 318 527 c 2
 299 503 l 1
 223 543 l 2
 181 564 144 584 140 587 c 0
 125 597 114 613 114 634 c 0
EndSplineSet
EndChar

StartChar: breve
Encoding: 728 728 112
Width: 575
GlyphClass: 2
Flags: MW
HStem: 500 78<280.5 325 252.5 326> 674 20G<102 153 153 153 421 472 472 472>
VStem: 102 51<689 694 685 694> 421 51<685 689 689 694 681 694>
LayerCount: 2
Fore
SplineSet
287 578 m 0
 363 578 415 626 421 685 c 1
 421 694 l 1
 472 694 l 1
 472 689 l 2
 472 673 468 649 461 630 c 0
 435 551 365 500 287 500 c 0
 274 500 262 501 249 504 c 0
 174 521 102 592 102 689 c 2
 102 694 l 1
 153 694 l 1
 153 685 l 2
 154 681 155 673 156 667 c 0
 170 618 218 578 287 578 c 0
EndSplineSet
EndChar

StartChar: dotaccent
Encoding: 729 729 113
Width: 575
GlyphClass: 2
Flags: MW
HStem: 525 170<280.5 299 280.5 311.5>
VStem: 202 170<585.5 621 585 633>
LayerCount: 2
Fore
SplineSet
287 525 m 0
 238 525 202 561 202 610 c 0
 202 656 233 685 271 694 c 0
 274 695 278 695 283 695 c 0
 315 695 339 683 353 663 c 0
 365 651 372 632 372 610 c 0
 372 560 336 525 287 525 c 0
EndSplineSet
EndChar

StartChar: ring
Encoding: 730 730 114
Width: 575
GlyphClass: 2
Flags: MW
HStem: 536 42<270 298.5> 660 42<252.5 270.5>
VStem: 160 62<609.5 623> 352 62<609 623 596 638>
LayerCount: 2
Fore
SplineSet
167 647 m 0
 182 680 223 702 279 702 c 0
 343 702 388 686 407 647 c 0
 412 638 414 628 414 618 c 0
 414 574 372 546 326 538 c 0
 315 536 310 536 287 536 c 0
 243 536 220 542 196 557 c 0
 173 572 160 595 160 618 c 0
 160 628 162 638 167 647 c 0
352 618 m 0
 352 658 335 659 292 659 c 0
 281 659 273 660 268 660 c 0
 237 660 222 650 222 619 c 0
 222 600 226 590 235 584 c 0
 244 579 253 578 287 578 c 0
 321 578 330 579 339 584 c 0
 348 590 352 600 352 618 c 0
EndSplineSet
EndChar

StartChar: tilde
Encoding: 732 732 115
Width: 575
GlyphClass: 2
Flags: MW
HStem: 552 95<350.5 353.5> 674 20G<440 440>
LayerCount: 2
Fore
SplineSet
218 693 m 0
 225 694 236 694 244 693 c 0
 258 690 272 684 295 671 c 0
 324 654 342 647 359 647 c 0
 387 647 405 659 428 682 c 2
 440 694 l 1
 459 677 l 2
 469 668 478 661 478 660 c 2
 478 660 416 590 409 583 c 0
 386 562 364 552 343 552 c 0
 319 552 307 558 279 575 c 0
 250 592 232 599 215 599 c 0
 187 599 169 587 146 564 c 2
 134 552 l 1
 115 569 l 2
 105 578 96 585 96 586 c 2
 96 586 158 656 165 663 c 0
 183 679 201 690 218 693 c 0
EndSplineSet
EndChar

StartChar: gravecomb
Encoding: 768 768 116
Width: 0
GlyphClass: 2
Flags: MW
HStem: 503 203<-410 -276>
VStem: -461 223
LayerCount: 2
Fore
SplineSet
-461 634 m 0
 -461 672 -428 706 -392 706 c 0
 -377 706 -365 701 -352 690 c 0
 -351 689 -239 554 -238 553 c 0
 -237 552 -240 548 -257 527 c 2
 -276 503 l 1
 -352 543 l 2
 -394 564 -431 584 -435 587 c 0
 -450 597 -461 613 -461 634 c 0
EndSplineSet
EndChar

StartChar: acutecomb
Encoding: 769 769 117
Width: 0
GlyphClass: 2
Flags: MW
HStem: 503 203<-300 -164.5>
VStem: -338 223
LayerCount: 2
Fore
SplineSet
-184 706 m 0
 -145 706 -115 666 -115 634 c 0
 -115 616 -124 599 -141 587 c 0
 -145 584 -182 564 -224 543 c 2
 -300 503 l 1
 -319 527 l 2
 -336 548 -339 552 -338 553 c 0
 -337 554 -312 584 -283 620 c 0
 -221 696 -219 698 -201 704 c 0
 -196 705 -190 706 -184 706 c 0
EndSplineSet
EndChar

StartChar: uni0302
Encoding: 770 770 118
Width: 0
GlyphClass: 2
Flags: MW
HStem: 520 174<-414.5 -288 -288 -161.5>
VStem: -449 322<569.5 570.5>
LayerCount: 2
Fore
SplineSet
-368 632 m 2
 -288 694 l 2
 -286 693 -127 571 -127 570 c 0
 -127 569 -161 520 -162 520 c 0
 -163 520 -191 537 -225 559 c 2
 -288 597 l 1
 -351 559 l 2
 -385 537 -413 520 -414 520 c 0
 -415 520 -449 569 -449 570 c 0
 -449 571 -412 599 -368 632 c 2
EndSplineSet
EndChar

StartChar: tildecomb
Encoding: 771 771 119
Width: 0
GlyphClass: 2
Flags: MW
HStem: 552 95<-224.5 -221.5> 674 20G<-135 -135>
LayerCount: 2
Fore
SplineSet
-357 693 m 0
 -350 694 -339 694 -331 693 c 0
 -317 690 -303 684 -280 671 c 0
 -251 654 -233 647 -216 647 c 0
 -188 647 -170 659 -147 682 c 2
 -135 694 l 1
 -116 677 l 2
 -106 668 -97 661 -97 660 c 2
 -97 660 -159 590 -166 583 c 0
 -189 562 -211 552 -232 552 c 0
 -256 552 -268 558 -296 575 c 0
 -325 592 -343 599 -360 599 c 0
 -388 599 -406 587 -429 564 c 2
 -441 552 l 1
 -460 569 l 2
 -470 578 -479 585 -479 586 c 2
 -479 586 -417 656 -410 663 c 0
 -392 679 -374 690 -357 693 c 0
EndSplineSet
EndChar

StartChar: uni0304
Encoding: 772 772 120
Width: 0
GlyphClass: 2
Flags: MW
HStem: 540 67<-495 -81 -495 -81>
LayerCount: 2
Fore
SplineSet
-495 540 m 1
 -495 607 l 1
 -81 607 l 1
 -81 540 l 1
 -495 540 l 1
EndSplineSet
EndChar

StartChar: uni0306
Encoding: 774 774 121
Width: 0
GlyphClass: 2
Flags: MW
HStem: 500 78<-294.5 -250 -322.5 -249> 674 20G<-473 -422 -422 -422 -154 -103 -103 -103>
VStem: -473 51<689 694 685 694> -154 51<685 689 689 694 681 694>
LayerCount: 2
Fore
SplineSet
-288 578 m 0
 -212 578 -160 626 -154 685 c 1
 -154 694 l 1
 -103 694 l 1
 -103 689 l 2
 -103 673 -107 649 -114 630 c 0
 -140 551 -210 500 -288 500 c 0
 -301 500 -313 501 -326 504 c 0
 -401 521 -473 592 -473 689 c 2
 -473 694 l 1
 -422 694 l 1
 -422 685 l 2
 -421 681 -420 673 -419 667 c 0
 -405 618 -357 578 -288 578 c 0
EndSplineSet
EndChar

StartChar: uni0307
Encoding: 775 775 122
Width: 0
GlyphClass: 2
Flags: MW
HStem: 525 170<-294.5 -276 -294.5 -263.5>
VStem: -373 170<585.5 621 585 633>
LayerCount: 2
Fore
SplineSet
-288 525 m 0
 -337 525 -373 561 -373 610 c 0
 -373 656 -342 685 -304 694 c 0
 -301 695 -297 695 -292 695 c 0
 -260 695 -236 683 -222 663 c 0
 -210 651 -203 632 -203 610 c 0
 -203 560 -239 525 -288 525 c 0
EndSplineSet
EndChar

StartChar: uni0308
Encoding: 776 776 123
Width: 0
GlyphClass: 2
Flags: MW
HStem: 535 160<-402.5 -397 -402.5 -378 -180 -156.5>
VStem: -479 159<592 637> -256 159<592 638>
LayerCount: 2
Fore
SplineSet
-320 615 m 0
 -320 569 -357 535 -399 535 c 0
 -444 535 -479 568 -479 615 c 0
 -479 659 -452 682 -419 693 c 0
 -411 695 -408 695 -397 695 c 0
 -356 693 -320 662 -320 615 c 0
-256 615 m 0
 -256 661 -220 695 -176 695 c 0
 -133 695 -97 661 -97 615 c 0
 -97 566 -133 535 -180 535 c 0
 -220 538 -256 569 -256 615 c 0
EndSplineSet
EndChar

StartChar: uni030A
Encoding: 778 778 124
Width: 0
GlyphClass: 2
Flags: MW
HStem: 536 42<-305 -276.5> 660 42<-322.5 -304.5>
VStem: -415 62<609.5 623> -223 62<609 623 596 638>
LayerCount: 2
Fore
SplineSet
-408 647 m 0
 -393 680 -352 702 -296 702 c 0
 -232 702 -187 686 -168 647 c 0
 -163 638 -161 628 -161 618 c 0
 -161 574 -203 546 -249 538 c 0
 -260 536 -265 536 -288 536 c 0
 -332 536 -355 542 -379 557 c 0
 -402 572 -415 595 -415 618 c 0
 -415 628 -413 638 -408 647 c 0
-223 618 m 0
 -223 658 -240 659 -283 659 c 0
 -294 659 -302 660 -307 660 c 0
 -338 660 -353 650 -353 619 c 0
 -353 600 -349 590 -340 584 c 0
 -331 579 -322 578 -288 578 c 0
 -254 578 -245 579 -236 584 c 0
 -227 590 -223 600 -223 618 c 0
EndSplineSet
EndChar

StartChar: uni030B
Encoding: 779 779 125
Width: 0
GlyphClass: 2
Flags: MW
HStem: 511 202<-389 -359.5 -361 -198>
LayerCount: 2
Fore
SplineSet
-389 511 m 1
 -442 543 l 2
 -442 544 -406 668 -404 674 c 0
 -395 694 -380 708 -361 713 c 0
 -358 713 -354 714 -349 714 c 0
 -343 714 -335 713 -330 712 c 0
 -305 702 -280 683 -274 657 c 0
 -274 653 -273 650 -273 647 c 0
 -273 629 -280 614 -290 604 c 0
 -293 600 -317 578 -342 554 c 2
 -389 511 l 1
-198 511 m 1
 -251 543 l 2
 -251 544 -215 668 -213 674 c 0
 -204 694 -189 708 -170 713 c 0
 -167 713 -163 714 -158 714 c 0
 -119 714 -82 684 -82 647 c 0
 -82 629 -89 614 -99 604 c 0
 -102 600 -126 578 -151 554 c 2
 -198 511 l 1
EndSplineSet
EndChar

StartChar: uni030C
Encoding: 780 780 126
Width: 0
GlyphClass: 2
Flags: MW
HStem: 515 144<-417 -287>
VStem: -444 312<603 603>
LayerCount: 2
Fore
SplineSet
-444 603 m 0
 -446 606 -419 661 -417 659 c 0
 -416 659 -387 648 -352 635 c 2
 -288 611 l 1
 -224 635 l 2
 -189 648 -160 659 -159 659 c 0
 -157 661 -130 607 -132 603 c 0
 -135 601 -286 515 -288 515 c 0
 -290 515 -441 601 -444 603 c 0
EndSplineSet
EndChar

StartChar: uni0338
Encoding: 824 824 127
Width: 0
GlyphClass: 2
Flags: W
LayerCount: 2
Fore
SplineSet
-705 -210 m 0
 -722 -210 -734 -195 -734 -179 c 0
 -734 -173 -734 -171 -732 -166 c 0
 -728 -160 -219 692 -215 698 c 0
 -211 705 -201 711 -190 711 c 0
 -174 711 -161 699 -161 681 c 0
 -161 673 -161 672 -164 667 c 0
 -173 649 -679 -197 -683 -201 c 0
 -689 -207 -697 -210 -705 -210 c 0
EndSplineSet
EndChar

StartChar: Gamma
Encoding: 915 915 128
Width: 692
GlyphClass: 2
Flags: MW
HStem: 0 62<39 51 39 147 425 439 425 425> 618 62<39 147 39 612 304 304 304 357>
VStem: 147 157<62 618 62 618> 581 62<424 428 424 428>
LayerCount: 2
Fore
SplineSet
425 0 m 2
 405 3 266 3 228 3 c 0
 190 3 72 3 51 0 c 2
 39 0 l 1
 39 62 l 1
 147 62 l 1
 147 618 l 1
 39 618 l 1
 39 680 l 1
 612 680 l 1
 612 676 l 1
 617 665 638 439 643 428 c 1
 643 424 l 1
 581 424 l 1
 581 428 l 2
 580 431 579 441 577 452 c 0
 569 515 555 552 532 576 c 0
 512 596 484 609 448 614 c 0
 429 617 411 618 357 618 c 2
 304 618 l 1
 304 62 l 1
 439 62 l 1
 439 0 l 1
 425 0 l 2
EndSplineSet
EndChar

StartChar: Delta
Encoding: 916 916 129
Width: 958
GlyphClass: 2
Flags: MW
HStem: 0 136<315 479 479 540 315 892> 678 20G<480 506 506 506>
LayerCount: 2
Fore
SplineSet
901 12 m 0
 901 6 896 3 892 0 c 2
 479 0 l 2
 66 0 65 0 62 2 c 0
 59 4 56 8 56 11 c 0
 56 16 428 679 433 685 c 0
 436 690 444 695 450 696 c 0
 454 698 460 698 480 698 c 2
 506 698 l 1
 523 687 l 2
 526 683 895 27 899 17 c 0
 900 15 901 13 901 12 c 0
653 137 m 1
 427 538 l 1
 202 137 l 1
 315 136 l 1
 540 136 l 1
 653 137 l 1
EndSplineSet
EndChar

StartChar: Theta
Encoding: 920 920 130
Width: 894
GlyphClass: 2
Flags: MW
HStem: -10 53<433.5 460 433.5 502.5> 242 204<286 348 286 348 286 545 545 607> 645 51<431 448.5 360.5 490>
VStem: 64 157<318 373.5> 286 62<242 276 412 446> 545 62<242 276 276 276 412 446 242 446> 672 157<318 353 295.5 383>
LayerCount: 2
Fore
SplineSet
112 529 m 0
 170 629 283 696 438 696 c 0
 459 696 488 696 499 695 c 0
 670 677 785 581 819 427 c 0
 826 398 829 368 829 338 c 0
 829 253 799 171 755 117 c 0
 746 105 719 79 707 69 c 0
 639 17 559 -10 446 -10 c 0
 333 -10 254 17 186 69 c 0
 148 101 118 138 96 184 c 0
 74 232 64 286 64 340 c 0
 64 407 80 473 112 529 c 0
638 530 m 0
 604 601 541 645 439 645 c 0
 423 645 406 643 398 641 c 0
 267 610 221 505 221 341 c 0
 221 295 224 258 230 228 c 0
 249 132 302 71 386 50 c 0
 408 44 420 43 447 43 c 0
 473 43 485 44 507 50 c 0
 591 71 644 132 663 228 c 0
 669 258 672 295 672 341 c 0
 672 425 663 477 638 530 c 0
286 242 m 1
 286 446 l 1
 348 446 l 1
 348 412 l 1
 545 412 l 1
 545 446 l 1
 607 446 l 1
 607 242 l 1
 545 242 l 1
 545 276 l 1
 348 276 l 1
 348 242 l 1
 286 242 l 1
EndSplineSet
EndChar

StartChar: Lambda
Encoding: 923 923 131
Width: 806
GlyphClass: 2
Flags: MW
HStem: 0 62<40 47 40 131 285 294 285 285 416 429 754 754 754 765> 678 20G<397.5 415>
LayerCount: 2
Fore
SplineSet
285 0 m 2
 273 2 179 3 154 3 c 0
 130 3 59 3 47 0 c 2
 40 0 l 1
 40 62 l 1
 131 62 l 1
 132 66 355 669 359 678 c 0
 362 687 370 694 378 697 c 0
 379 698 391 698 404 698 c 0
 426 698 428 697 432 695 c 0
 437 692 443 685 446 678 c 0
 450 668 673 66 674 62 c 1
 765 62 l 1
 765 0 l 1
 754 0 l 2
 736 3 636 3 604 3 c 0
 570 3 447 3 429 0 c 2
 416 0 l 1
 416 62 l 1
 461 62 l 1
 507 63 l 1
 355 470 l 2
 354 469 320 377 279 265 c 2
 203 63 l 1
 249 62 l 1
 294 62 l 1
 294 0 l 1
 285 0 l 2
EndSplineSet
EndChar

StartChar: Xi
Encoding: 926 926 132
Width: 767
GlyphClass: 2
Flags: MW
HStem: 0 127 256 191<160 222 160 222 544 606> 550 125<295 471 295 485>
VStem: 48 62<218.5 222> 160 62<256 289 414 447> 544 62<256 289 289 289 414 447 256 447> 656 62<219 222 222 222>
LayerCount: 2
Fore
SplineSet
54 465 m 2
 63 674 l 2
 63 675 207 675 383 675 c 0
 559 675 703 675 703 674 c 2
 712 465 l 2
 712 464 698 464 681 464 c 2
 650 464 l 1
 650 467 l 2
 650 468 650 476 649 485 c 0
 646 523 641 543 632 545 c 0
 616 549 587 550 383 550 c 0
 179 550 150 549 134 545 c 0
 119 542 116 491 116 467 c 2
 116 464 l 1
 85 464 l 2
 68 464 54 464 54 465 c 2
160 256 m 1
 160 447 l 1
 222 447 l 1
 222 414 l 1
 544 414 l 1
 544 447 l 1
 606 447 l 1
 606 256 l 1
 544 256 l 1
 544 289 l 1
 222 289 l 1
 222 256 l 1
 160 256 l 1
57 0 m 1
 48 222 l 1
 110 222 l 1
 110 219 l 2
 110 218 110 209 111 200 c 0
 113 161 118 139 125 133 c 0
 127 130 138 128 156 127 c 0
 166 126 275 126 383 126 c 0
 491 126 600 126 611 127 c 0
 628 128 639 130 641 133 c 0
 648 139 653 161 655 200 c 0
 656 209 656 218 656 219 c 2
 656 222 l 1
 718 222 l 1
 709 0 l 1
 57 0 l 1
EndSplineSet
EndChar

StartChar: Pi
Encoding: 928 928 133
Width: 900
GlyphClass: 2
Flags: MW
HStem: 0 62<39 51 39 147 400 412 400 400 487 499 848 848 848 860> 618 62<39 147 39 860 304 304 304 595 752 752 752 860>
VStem: 147 157<62 618 62 618> 595 157<62 618 62 618>
LayerCount: 2
Fore
SplineSet
400 0 m 2
 380 3 261 3 226 3 c 0
 190 3 70 3 51 0 c 2
 39 0 l 1
 39 62 l 1
 147 62 l 1
 147 618 l 1
 39 618 l 1
 39 680 l 1
 860 680 l 1
 860 618 l 1
 752 618 l 1
 752 62 l 1
 860 62 l 1
 860 0 l 1
 848 0 l 2
 828 3 709 3 674 3 c 0
 638 3 518 3 499 0 c 2
 487 0 l 1
 487 62 l 1
 595 62 l 1
 595 618 l 1
 304 618 l 1
 304 62 l 1
 412 62 l 1
 412 0 l 1
 400 0 l 2
EndSplineSet
EndChar

StartChar: Sigma
Encoding: 931 931 134
Width: 831
GlyphClass: 2
Flags: MW
HStem: 0 81<297 364 297 407 297 735> 624 62<281 735>
VStem: 704 62<274 274.5 430.5 431>
LayerCount: 2
Fore
SplineSet
766 271 m 2
 763 261 737 11 735 4 c 2
 735 0 l 1
 407 0 l 2
 53 0 75 0 70 5 c 0
 67 7 64 14 64 18 c 0
 64 26 58 21 213 158 c 2
 359 288 l 2
 360 288 294 366 214 460 c 0
 134 554 67 632 66 635 c 0
 64 638 64 641 64 655 c 0
 64 676 66 680 75 684 c 0
 78 686 90 686 407 686 c 2
 735 686 l 1
 735 682 l 1
 740 671 761 445 766 434 c 1
 766 430 l 1
 735 430 l 2
 718 430 704 430 704 431 c 2
 704 431 703 437 702 444 c 0
 685 555 640 611 525 620 c 0
 497 623 462 624 371 624 c 2
 281 624 l 1
 396 489 l 2
 459 414 512 352 513 351 c 0
 515 346 515 339 512 334 c 0
 510 332 459 286 371 208 c 0
 295 140 232 84 231 83 c 0
 229 81 230 81 364 81 c 0
 451 82 503 82 511 83 c 0
 581 89 617 102 645 129 c 0
 675 159 693 200 702 260 c 2
 704 274 l 2
 704 275 718 275 735 275 c 2
 766 275 l 1
 766 271 l 2
EndSplineSet
EndChar

StartChar: Upsilon
Encoding: 933 933 135
Width: 894
GlyphClass: 2
Flags: MW
HStem: 0 62<233 247 233 368 646 660 646 646> 571 126<195.5 217.5 675.5 697.5>
VStem: 64 68<549 556> 368 157<62 210 62 254.5> 761 68<549 556 549 559.5>
CounterMasks: 1 38
LayerCount: 2
Fore
SplineSet
64 556 m 0
 71 640 137 697 224 697 c 0
 282 697 327 671 359 640 c 0
 397 603 427 548 444 484 c 0
 447 475 447 475 447 479 c 0
 449 487 458 516 465 532 c 0
 497 613 547 667 610 687 c 0
 629 694 650 697 670 697 c 0
 762 697 824 630 829 556 c 0
 829 542 826 538 818 532 c 1
 772 532 l 1
 766 536 761 542 761 548 c 0
 761 571 714 571 681 571 c 0
 670 571 661 571 656 570 c 0
 613 565 579 537 555 490 c 0
 539 455 529 418 526 371 c 0
 525 363 525 299 525 210 c 2
 525 62 l 1
 660 62 l 1
 660 0 l 1
 646 0 l 2
 624 3 487 3 447 3 c 0
 406 3 270 3 247 0 c 2
 233 0 l 1
 233 62 l 1
 368 62 l 1
 368 210 l 2
 368 299 368 363 367 371 c 0
 364 418 354 455 338 490 c 0
 314 537 280 565 237 570 c 0
 232 571 223 571 212 571 c 0
 179 571 132 571 132 548 c 0
 132 542 127 536 121 532 c 1
 75 532 l 1
 67 538 64 542 64 556 c 0
EndSplineSet
EndChar

StartChar: Phi
Encoding: 934 934 136
Width: 831
GlyphClass: 2
Flags: MW
HStem: 0 62<207 221 207 342 609 623 609 609> 168 51<339 342> 467 51<337.5 342> 624 62<207 221 207 342 207 221 609 623>
VStem: 64 162<324.5 361.5> 342 146<62 168 62 168 305 381 518 624> 604 162<324.5 361.5 324.5 382.5>
CounterMasks: 1 0e
LayerCount: 2
Fore
SplineSet
609 0 m 2
 589 3 454 3 415 3 c 0
 376 3 242 3 221 0 c 2
 207 0 l 1
 207 62 l 1
 342 62 l 1
 342 168 l 1
 328 169 l 2
 242 176 163 204 117 241 c 0
 83 270 64 306 64 343 c 0
 64 380 83 416 117 445 c 0
 163 482 242 510 328 517 c 2
 342 518 l 1
 342 624 l 1
 207 624 l 1
 207 686 l 1
 221 686 l 2
 241 683 376 683 415 683 c 0
 454 683 588 683 609 686 c 2
 623 686 l 1
 623 624 l 1
 488 624 l 1
 488 518 l 1
 502 517 l 2
 588 510 667 482 713 445 c 0
 747 416 766 380 766 343 c 0
 766 306 747 270 713 241 c 0
 667 204 588 176 502 169 c 2
 488 168 l 1
 488 62 l 1
 623 62 l 1
 623 0 l 1
 609 0 l 2
342 343 m 0
 342 460 342 467 340 467 c 0
 335 467 313 462 304 459 c 0
 246 441 226 412 226 343 c 0
 226 275 245 246 301 228 c 0
 311 225 337 219 341 219 c 0
 342 219 342 267 342 343 c 0
604 343 m 0
 604 422 572 453 503 464 c 0
 496 466 489 467 489 467 c 2
 488 467 488 419 488 343 c 0
 488 267 488 219 489 219 c 0
 493 219 519 225 529 228 c 0
 585 246 604 275 604 343 c 0
EndSplineSet
EndChar

StartChar: Psi
Encoding: 936 936 137
Width: 894
GlyphClass: 2
Flags: MW
HStem: 0 62<239 253 239 374 641 655 641 641> 168 58<372.5 374> 489 49 624 62<239 253 239 374 239 253 641 655>
VStem: 118 146 374 146<62 115 62 168 62 168 425 624> 629 146
LayerCount: 2
Fore
SplineSet
641 0 m 2
 621 3 486 3 447 3 c 0
 408 3 274 3 253 0 c 2
 239 0 l 1
 239 62 l 1
 374 62 l 1
 374 168 l 1
 364 169 l 2
 316 175 277 185 243 203 c 0
 166 241 123 302 118 409 c 0
 117 449 111 469 100 481 c 0
 95 486 91 488 83 489 c 0
 68 491 64 496 64 515 c 0
 64 529 66 534 75 538 c 0
 78 540 82 540 139 540 c 0
 196 540 200 540 207 538 c 0
 237 530 255 503 261 456 c 0
 262 449 263 431 264 414 c 0
 264 345 279 295 312 262 c 0
 322 252 335 242 347 237 c 0
 353 234 372 226 373 226 c 0
 374 226 374 316 374 425 c 2
 374 624 l 1
 239 624 l 1
 239 686 l 1
 253 686 l 2
 273 683 408 683 447 683 c 0
 486 683 620 683 641 686 c 2
 655 686 l 1
 655 624 l 1
 520 624 l 1
 520 226 l 1
 522 227 l 2
 523 227 529 229 535 232 c 0
 602 258 626 319 629 413 c 0
 630 431 631 449 632 456 c 0
 638 503 656 530 686 538 c 0
 693 540 697 540 754 540 c 0
 811 540 815 540 819 538 c 0
 827 534 829 529 829 515 c 0
 829 496 825 491 810 489 c 0
 802 488 798 486 793 481 c 0
 782 469 776 449 775 408 c 0
 771 300 725 240 650 202 c 0
 624 190 600 181 568 175 c 0
 556 173 525 168 521 168 c 0
 520 168 520 148 520 115 c 2
 520 62 l 1
 655 62 l 1
 655 0 l 1
 641 0 l 2
EndSplineSet
EndChar

StartChar: Omega
Encoding: 937 937 138
Width: 831
GlyphClass: 2
Flags: MW
HStem: 0 118<88 213.5 88 213.5 616.5 628> 645 51<371.5 461.5 371.5 476.5>
VStem: 51 62<212 215 212 215> 64 168<445 500> 598 168<451.5 461.5 451.5 519.5> 717 62<212 215 212 215>
LayerCount: 2
Fore
SplineSet
253 675 m 0xd0
 294 688 340 696 403 696 c 0
 520 696 589 679 661 638 c 0
 720 600 758 543 765 477 c 0
 766 472 766 465 766 458 c 0xd8
 766 445 765 431 763 421 c 0
 755 375 735 331 698 277 c 0
 682 257 620 170 614 161 c 0
 604 147 589 120 589 119 c 0
 589 118 605 118 628 118 c 0
 671 119 679 120 690 125 c 0
 695 128 696 129 698 133 c 0
 703 142 708 164 714 195 c 0
 715 203 716 211 717 212 c 2
 717 215 l 1
 779 215 l 1
 779 212 l 2xc4
 778 211 770 164 760 108 c 0
 751 51 743 4 742 3 c 2
 742 0 l 1
 634 0 l 2
 540 0 526 0 523 2 c 0
 515 5 512 10 512 26 c 0
 512 32 512 40 513 49 c 0
 517 100 527 145 555 242 c 0
 576 312 584 341 590 375 c 0
 595 404 598 432 598 458 c 0
 598 581 538 645 415 645 c 0
 292 645 232 581 232 458 c 0xd8
 232 432 235 404 240 375 c 0
 246 341 254 312 275 242 c 0
 303 145 313 100 317 49 c 0
 318 40 318 32 318 26 c 0
 318 10 315 5 307 2 c 0
 304 0 290 0 196 0 c 2
 88 0 l 1
 88 3 l 2
 87 4 79 51 70 108 c 0
 60 164 52 211 51 212 c 2
 51 215 l 1
 113 215 l 1
 113 212 l 2xe0
 114 211 115 203 116 195 c 0
 122 164 127 142 132 133 c 0
 134 129 135 128 140 125 c 0
 151 120 159 119 202 118 c 0
 225 118 241 118 241 119 c 0
 241 120 226 147 216 161 c 0
 210 171 149 257 132 277 c 0
 86 345 64 396 64 457 c 0
 64 543 113 601 169 638 c 0
 191 652 226 668 253 675 c 0xd0
EndSplineSet
EndChar

StartChar: endash
Encoding: 8211 8211 146
Width: 575
GlyphClass: 2
Flags: MW
HStem: 249 51<0 574 0 574>
LayerCount: 2
Fore
SplineSet
0 249 m 1
 0 300 l 1
 574 300 l 1
 574 249 l 1
 0 249 l 1
EndSplineSet
EndChar

StartChar: emdash
Encoding: 8212 8212 147
Width: 1150
GlyphClass: 2
Flags: MW
HStem: 249 51<0 1149 0 1149>
LayerCount: 2
Fore
SplineSet
0 249 m 1
 0 300 l 1
 1149 300 l 1
 1149 249 l 1
 0 249 l 1
EndSplineSet
EndChar

StartChar: quoteleft
Encoding: 8216 8216 148
Width: 319
GlyphClass: 2
Flags: MW
HStem: 674 20G<183 186>
LayerCount: 2
Fore
SplineSet
245 414 m 0
 245 367 209 329 161 329 c 0
 144 329 134 332 121 338 c 0
 83 357 58 405 58 461 c 0
 58 548 94 615 141 662 c 0
 153 674 171 689 177 692 c 0
 179 693 182 694 184 694 c 0
 188 694 192 691 199 684 c 0
 210 674 213 670 213 664 c 0
 213 658 211 655 203 649 c 0
 163 620 130 571 116 518 c 0
 113 506 110 488 111 488 c 1
 111 487 135 500 161 500 c 0
 209 500 245 461 245 414 c 0
EndSplineSet
EndChar

StartChar: quoteright
Encoding: 8217 8217 149
Width: 319
GlyphClass: 2
Flags: W
LayerCount: 2
Fore
SplineSet
74 608 m 0
 74 654 107 694 157 694 c 0
 228 694 261 628 261 559 c 0
 261 538 258 516 252 492 c 0
 237 432 203 379 156 341 c 0
 146 333 140 329 135 329 c 0
 130 329 127 332 120 338 c 0
 109 349 106 353 106 359 c 0
 106 365 108 368 116 374 c 0
 156 403 189 452 203 505 c 0
 206 517 209 535 208 535 c 1
 208 536 184 523 158 523 c 0
 110 523 74 561 74 608 c 0
EndSplineSet
EndChar

StartChar: quotedblleft
Encoding: 8220 8220 150
Width: 603
GlyphClass: 2
Flags: MW
HStem: 329 158<163 235> 674 20G<234 238.5 501 505.5>
VStem: 110 187<433 436 389 503> 377 187<433 436 389 503>
LayerCount: 2
Fore
SplineSet
297 414 m 0
 297 364 258 329 212 329 c 0
 195 329 185 332 173 338 c 0
 135 357 110 405 110 461 c 0
 110 545 149 618 194 663 c 0
 205 674 225 690 230 693 c 0
 232 694 233 694 235 694 c 0
 242 694 266 673 266 664 c 0
 266 658 260 653 249 644 c 0
 210 616 179 564 167 511 c 0
 164 498 162 487 164 487 c 0
 178 494 193 500 212 500 c 0
 265 500 297 458 297 414 c 0
564 414 m 0
 564 364 525 329 479 329 c 0
 462 329 452 332 440 338 c 0
 402 357 377 405 377 461 c 0
 377 545 416 618 461 663 c 0
 472 674 492 690 497 693 c 0
 499 694 500 694 502 694 c 0
 509 694 533 673 533 664 c 0
 533 658 527 653 516 644 c 0
 477 616 446 564 434 511 c 0
 431 498 429 487 431 487 c 0
 445 494 460 500 479 500 c 0
 532 500 564 458 564 414 c 0
EndSplineSet
EndChar

StartChar: quotedblright
Encoding: 8221 8221 151
Width: 603
GlyphClass: 2
Flags: W
LayerCount: 2
Fore
SplineSet
38 608 m 0
 38 654 71 694 121 694 c 0
 192 694 225 628 225 559 c 0
 225 538 222 516 216 492 c 0
 200 430 165 376 115 337 c 0
 108 332 103 329 99 329 c 0
 94 329 90 333 83 340 c 0
 72 351 70 354 70 360 c 0
 70 365 72 368 81 375 c 0
 91 382 112 403 122 414 c 0
 143 441 159 474 167 506 c 0
 170 518 173 535 172 535 c 1
 172 536 148 523 122 523 c 0
 74 523 38 561 38 608 c 0
305 608 m 0
 305 654 338 694 388 694 c 0
 459 694 492 628 492 559 c 0
 492 538 489 516 483 492 c 0
 467 430 432 376 382 337 c 0
 375 332 370 329 366 329 c 0
 361 329 357 333 350 340 c 0
 339 351 337 354 337 360 c 0
 337 365 339 368 348 375 c 0
 358 382 379 403 389 414 c 0
 410 441 426 474 434 506 c 0
 437 518 440 535 439 535 c 1
 439 536 415 523 389 523 c 0
 341 523 305 561 305 608 c 0
EndSplineSet
EndChar

StartChar: dagger
Encoding: 8224 8224 152
Width: 511
GlyphClass: 2
Flags: MW
HStem: 382 124<121.5 138.5 121.5 138.5 372 402.5> 418 52<230.5 231 279 279.5>
VStem: 192 126<206 246 206 265> 226 58<4.29497e+009 4.29497e+009>
LayerCount: 2
Fore
SplineSet
128 382 m 0xa0
 88 382 64 408 64 444 c 0
 64 472 82 496 106 504 c 0
 113 506 115 506 128 506 c 0xa0
 149 506 162 502 196 486 c 0
 215 476 230 470 231 470 c 0
 232 471 228 488 225 500 c 0
 223 506 218 523 213 539 c 0
 197 590 193 609 193 636 c 0
 193 678 216 702 255 702 c 0
 282 702 306 686 315 660 c 0
 317 653 317 651 317 636 c 0
 317 609 313 590 297 539 c 0
 292 523 287 506 285 500 c 0
 282 488 278 471 279 470 c 0x60
 280 470 295 476 314 486 c 0
 348 502 361 506 383 506 c 0
 422 506 446 480 446 444 c 0
 446 408 422 382 383 382 c 0xa0
 361 382 348 386 314 402 c 0
 296 412 280 418 279 418 c 0
 277 413 313 301 316 284 c 0
 317 276 318 258 318 234 c 0x60
 318 178 315 88 309 12 c 0
 303 -68 289 -193 284 -203 c 0
 280 -210 279 -211 270 -211 c 2
 255 -211 l 1
 240 -211 l 2
 231 -211 230 -210 226 -203 c 0x50
 221 -193 207 -68 201 12 c 0
 195 88 192 178 192 234 c 0
 192 296 195 297 212 349 c 0
 225 388 232 416 231 418 c 0x60
 230 418 214 412 196 402 c 0
 162 386 149 382 128 382 c 0xa0
EndSplineSet
EndChar

StartChar: daggerdbl
Encoding: 8225 8225 153
Width: 511
GlyphClass: 2
Flags: MW
HStem: -39 125<110 140 370.5 400> 414 125<109 127 127 133 372.5 377 377 383> 449 90
VStem: 193 124<-143.5 -124 171.5 191 308.5 328 624.5 644> 230 50<-6 -4.5 51.5 53 446.5 448 503 505.5>
LayerCount: 2
Fore
SplineSet
64 477 m 0xc8
 64 513 91 539 127 539 c 0
 156 539 169 530 196 518 c 0
 210 511 223 505 226 504 c 0
 230 502 230 502 230 504 c 0xc8
 230 507 223 528 213 554 c 0
 196 597 193 612 193 637 c 0
 193 678 216 702 255 702 c 0
 282 702 306 686 315 660 c 0
 317 653 317 651 317 637 c 0xd0
 317 612 314 597 297 554 c 0
 287 528 280 507 280 504 c 0
 280 502 280 502 284 504 c 0
 287 505 300 511 314 518 c 0
 348 534 363 539 382 539 c 0
 418 539 446 515 446 476 c 0
 446 440 422 414 383 414 c 2
 377 414 l 2xc8
 345 414 289 449 281 449 c 0
 280 449 280 448 280 448 c 2xa8
 280 445 287 424 297 398 c 0
 314 355 317 340 317 316 c 0
 317 274 294 250 255 250 c 0
 228 250 204 266 195 292 c 0
 193 299 193 301 193 316 c 0xb0
 193 340 196 355 213 398 c 0
 223 424 230 445 230 448 c 0
 230 450 230 450 226 448 c 0
 223 447 210 441 196 434 c 0
 162 419 151 414 133 414 c 2
 127 414 l 2
 88 414 64 441 64 477 c 0xc8
65 24 m 0
 65 64 93 86 127 86 c 0
 157 86 168 79 196 65 c 0
 213 57 223 52 228 51 c 0
 230 50 230 50 230 53 c 0x88
 229 59 223 77 215 96 c 0
 197 143 193 159 193 184 c 0
 193 225 216 249 255 249 c 0
 282 249 306 233 315 207 c 0
 317 200 317 198 317 184 c 0x90
 317 159 313 143 295 96 c 0
 287 77 281 59 280 53 c 0
 280 50 280 50 282 51 c 0
 287 52 297 57 314 65 c 0
 347 81 358 86 383 86 c 0
 418 86 445 64 445 24 c 0
 445 -16 418 -39 382 -39 c 0
 357 -39 346 -34 314 -18 c 0
 297 -10 287 -5 282 -4 c 0
 280 -3 280 -3 280 -6 c 0x88
 281 -12 287 -30 295 -49 c 0
 313 -96 317 -112 317 -136 c 0
 317 -178 294 -202 255 -202 c 0
 228 -202 204 -186 195 -160 c 0
 193 -153 193 -151 193 -136 c 0x90
 193 -112 197 -96 215 -49 c 0
 223 -30 229 -12 230 -6 c 0
 230 -3 230 -3 228 -4 c 0
 223 -5 213 -10 196 -18 c 0
 164 -34 152 -39 128 -39 c 0
 92 -39 65 -16 65 24 c 0
EndSplineSet
EndChar

StartChar: ellipsis
Encoding: 8230 8230 154
Width: 1295
GlyphClass: 2
Flags: MW
HStem: 1 170<153.5 166.5 641.5 654.5 1129.5 1142.5>
VStem: 74 171<71.5 92.5 67 106> 562 171<71.5 92.5 67 106> 1050 171<71.5 92.5 67 106>
CounterMasks: 1 70
LayerCount: 2
Fore
SplineSet
74 85 m 0
 74 127 104 160 143 170 c 0
 147 171 151 171 156 171 c 0
 193 171 218 155 232 130 c 0
 241 116 245 100 245 85 c 0
 245 49 222 15 184 3 c 0
 175 1 173 1 160 1 c 0
 132 1 121 7 105 20 c 0
 88 33 74 58 74 85 c 0
562 85 m 0
 562 127 592 160 631 170 c 0
 635 171 639 171 644 171 c 0
 681 171 706 155 720 130 c 0
 729 116 733 100 733 85 c 0
 733 49 710 15 672 3 c 0
 663 1 661 1 648 1 c 0
 620 1 609 7 593 20 c 0
 576 33 562 58 562 85 c 0
1050 85 m 0
 1050 127 1080 160 1119 170 c 0
 1123 171 1127 171 1132 171 c 0
 1169 171 1194 155 1208 130 c 0
 1217 116 1221 100 1221 85 c 0
 1221 49 1198 15 1160 3 c 0
 1151 1 1149 1 1136 1 c 0
 1108 1 1097 7 1081 20 c 0
 1064 33 1050 58 1050 85 c 0
EndSplineSet
EndChar

StartChar: minute
Encoding: 8242 8242 155
Width: 344
GlyphClass: 2
Flags: MW
VStem: 35 88
LayerCount: 2
Fore
SplineSet
240 563 m 0
 293 563 331 522 331 480 c 0
 331 473 330 466 328 458 c 0
 316 426 129 66 123 50 c 0
 115 36 112 33 105 33 c 0
 99 33 43 56 38 60 c 0
 36 62 35 61 35 65 c 0
 35 84 168 511 171 517 c 0
 182 542 201 555 228 562 c 0
 232 563 236 563 240 563 c 0
EndSplineSet
EndChar

StartChar: uni20D7
Encoding: 8407 8407 156
Width: 0
GlyphClass: 2
Flags: MW
HStem: 588 61<-347 -175 -347 -347>
LayerCount: 2
Fore
SplineSet
-169 694 m 0
 -169 706 -159 723 -142 723 c 0
 -122 723 -116 718 -108 701 c 0
 -97 676 -81 660 -53 648 c 0
 -39 640 -33 632 -33 619 c 0
 -33 599 -42 594 -61 586 c 0
 -93 574 -119 557 -144 532 c 0
 -161 516 -164 513 -176 513 c 0
 -193 513 -206 527 -206 543 c 0
 -206 559 -202 560 -188 574 c 2
 -175 588 l 1
 -347 588 l 1
 -519 589 l 1
 -532 594 -542 603 -542 618 c 0
 -542 636 -531 642 -519 649 c 1
 -149 649 l 1
 -157 660 -169 681 -169 694 c 0
EndSplineSet
EndChar

StartChar: uni210F
Encoding: 8463 8463 157
Width: 668
GlyphClass: 2
Flags: MW
HStem: -8 51<466.5 490> 400 51<370.5 405> 540 67<80 167 80 184 311 494> 674 20G<302 313.5>
VStem: 45 124<39 39> 358 119<50 91.5> 433 123<331 366.5> 577 65
LayerCount: 2
Fore
SplineSet
99 -8 m 0xfb
 71 -8 45 10 45 39 c 0
 45 53 56 95 116 336 c 2
 167 540 l 1
 80 540 l 1
 80 607 l 1
 184 607 l 1
 188 622 l 1
 184 622 l 2
 181 623 169 623 157 624 c 0
 145 624 133 625 131 625 c 0
 124 627 119 634 119 642 c 0
 119 649 127 676 129 679 c 0
 134 686 133 685 220 690 c 0
 275 693 297 694 307 694 c 0
 320 694 326 688 328 679 c 0
 328 677 325 661 311 607 c 1
 494 607 l 1
 494 540 l 1
 294 540 l 1
 276 465 260 404 260 403 c 0
 260 401 263 403 269 408 c 0
 307 437 340 451 401 451 c 0
 428 451 438 451 457 447 c 0
 519 434 556 400 556 337 c 0xfb
 556 325 555 311 554 303 c 0
 546 262 528 207 497 127 c 0
 482 88 480 80 478 66 c 0
 477 61 477 57 477 54 c 0
 477 46 480 43 490 43 c 0
 505 44 519 51 532 63 c 0
 552 83 567 109 577 140 c 0
 583 161 583 162 605 162 c 2
 611 162 l 2
 630 162 632 162 635 160 c 0
 639 158 642 153 642 148 c 0
 642 142 632 112 624 97 c 0
 599 47 550 2 499 -6 c 0
 493 -7 485 -8 478 -8 c 0
 455 -8 429 -2 411 7 c 0
 376 24 358 51 358 83 c 0xfd
 358 100 359 104 373 138 c 0
 414 245 433 311 433 350 c 0
 433 383 422 400 388 400 c 0
 345 400 318 386 291 363 c 0
 273 347 249 320 236 298 c 0
 230 289 175 57 169 40 c 0
 157 11 128 -8 99 -8 c 0xfb
EndSplineSet
EndChar

StartChar: Ifraktur
Encoding: 8465 8465 158
Width: 831
GlyphClass: 2
Flags: MW
HStem: -8 39<489 490 490 494 489 526.5> 137 49 296 51<312 312> 392 51<565 640> 486 51<621 631.5> 651 50<249.5 251.5 249.5 275>
VStem: 65 67<496 506 496 526> 406 155<306 330.5> 593 154<135 149.5> 730 68<338 338 560 560>
LayerCount: 2
Fore
SplineSet
250 701 m 0xff40
 253 701 261 702 269 702 c 0
 277 702 285 701 291 701 c 0
 339 696 388 679 442 647 c 0
 471 629 495 613 550 572 c 0
 574 554 585 546 592 542 c 2
 602 538 l 1
 621 537 l 2
 653 537 690 539 706 544 c 0
 719 547 727 550 730 560 c 0
 731 566 733 571 737 573 c 0
 741 575 742 575 764 575 c 0
 786 575 787 575 791 573 c 0
 796 570 798 566 798 559 c 0
 798 542 791 528 780 519 c 0
 761 499 729 490 673 487 c 0
 661 487 641 486 622 486 c 0
 540 486 483 497 436 528 c 0
 420 539 407 550 386 572 c 0
 352 606 338 620 327 628 c 0
 306 644 286 651 264 651 c 0
 193 651 146 589 134 528 c 0
 133 522 132 511 132 501 c 0
 132 491 133 482 134 476 c 0
 147 403 222 352 312 347 c 0
 332 346 333 344 333 322 c 0
 333 305 332 302 327 299 c 0
 325 297 321 296 312 296 c 0
 188 296 86 371 67 467 c 0
 65 475 65 489 65 502 c 0
 65 550 77 579 98 611 c 0
 129 659 174 689 239 700 c 0
 243 701 249 701 250 701 c 0xff40
438 389 m 0
 471 422 532 443 598 443 c 0
 618 443 645 443 655 442 c 0
 720 435 765 414 785 381 c 0
 793 368 798 350 798 338 c 0
 798 334 797 330 796 328 c 0
 793 321 790 321 764 321 c 0
 733 321 732 322 730 338 c 0xff40
 729 350 725 357 717 365 c 0
 700 382 662 392 618 392 c 0
 601 392 600 392 595 390 c 0
 573 379 561 348 561 315 c 0
 561 297 565 287 577 275 c 0
 590 264 602 257 645 240 c 0
 677 227 693 220 706 211 c 0
 733 194 747 176 747 140 c 0
 747 92 727 63 696 39 c 0
 674 21 649 10 617 1 c 0
 582 -7 573 -8 480 -8 c 0
 398 -8 393 -8 372 -3 c 0
 332 7 306 21 228 74 c 0
 190 100 168 113 146 122 c 0
 123 131 107 135 86 137 c 0
 66 138 64 140 64 164 c 0
 65 181 65 183 72 186 c 0
 75 188 80 188 151 188 c 2
 226 187 l 1
 238 185 l 2
 298 171 330 144 384 99 c 0
 415 74 427 65 443 54 c 0
 458 44 483 31 489 31 c 2
 490 31 l 2
 498 31 529 45 543 54 c 0
 572 73 590 95 593 135 c 0xff80
 593 164 583 174 564 188 c 0
 554 195 541 201 507 214 c 0
 464 231 447 240 432 255 c 0
 415 270 406 291 406 314 c 0
 406 347 418 369 438 389 c 0
EndSplineSet
EndChar

StartChar: afii61289
Encoding: 8467 8467 159
Width: 474
GlyphClass: 2
Flags: MW
HStem: -19 51<237.5 270> 651 51<364.5 374.5>
VStem: 387 59<607.5 617.5 592.5 626.5>
LayerCount: 2
Fore
SplineSet
353 701 m 0
 357 702 362 702 367 702 c 0
 411 702 434 680 444 641 c 0
 446 630 446 629 446 606 c 0
 446 579 446 574 439 549 c 0
 427 500 405 453 370 399 c 0
 337 349 300 306 241 246 c 2
 215 220 l 1
 212 203 l 2
 205 162 203 140 203 114 c 0
 204 102 204 90 205 85 c 0
 211 53 222 32 253 32 c 0
 291 32 337 54 393 101 c 0
 401 108 408 118 419 111 c 0
 420 110 426 103 432 95 c 0
 444 79 445 76 443 70 c 0
 439 62 403 35 373 17 c 0
 332 -6 295 -19 245 -19 c 0
 209 -19 185 -9 163 8 c 0
 134 29 114 63 104 106 c 0
 103 111 101 116 101 116 c 1
 69 89 l 2
 52 75 37 62 36 62 c 0
 33 61 28 61 24 62 c 0
 21 63 -1 89 -1 98 c 0
 -1 101 0 103 1 105 c 0
 1 107 12 117 27 130 c 0
 40 141 61 159 73 170 c 2
 95 189 l 1
 95 197 l 2
 95 223 101 269 110 309 c 0
 118 346 132 401 143 433 c 0
 177 536 230 624 284 667 c 0
 308 686 328 696 353 701 c 0
387 615 m 0
 387 638 383 651 366 651 c 0
 348 651 336 634 324 609 c 0
 306 573 297 546 276 470 c 2
 241 331 l 2
 242 331 246 336 252 342 c 0
 320 419 361 489 379 557 c 0
 385 580 387 600 387 615 c 0
EndSplineSet
EndChar

StartChar: weierstrass
Encoding: 8472 8472 160
Width: 740
GlyphClass: 2
Flags: MW
HStem: -210 50<166 181.5> -8 51<443 482 443 523> 365 52<517.5 561>
VStem: 73 59<-108 -105 -108 -45> 84 90<215.5 232.5> 232 92<-91.5 -10.5> 346 87<60.5 135> 610 116<246 324>
LayerCount: 2
Fore
SplineSet
396 159 m 0xef
 419 159 433 146 433 124 c 0
 433 107 421 94 410 85 c 0
 408 84 408 83 410 78 c 0
 415 57 431 43 455 43 c 0
 509 43 544 76 564 115 c 0
 576 140 583 160 596 214 c 0
 606 256 610 282 610 301 c 0
 610 347 584 365 538 365 c 0
 462 365 382 332 311 270 c 0
 286 249 258 218 237 190 c 0
 225 175 210 152 210 150 c 2
 255 99 l 2
 280 71 302 46 305 43 c 0
 317 24 324 2 324 -23 c 0
 324 -38 321 -55 317 -73 c 0
 299 -143 257 -193 202 -207 c 0
 191 -210 189 -210 174 -210 c 0xef
 158 -210 155 -210 147 -208 c 0
 106 -197 81 -162 73 -109 c 0
 73 -101 72 -90 72 -78 c 0
 72 -66 73 -53 73 -45 c 0xf7
 77 -12 88 28 102 65 c 2
 108 81 l 1
 94 104 84 129 84 167 c 0
 84 298 159 443 254 459 c 0
 260 460 265 461 269 461 c 0
 281 461 285 458 285 449 c 0
 285 444 284 438 282 431 c 0
 277 413 276 412 264 410 c 0
 212 401 174 276 174 219 c 0
 174 212 175 208 176 202 c 1
 184 214 l 1
 237 283 303 338 375 374 c 0
 432 403 486 417 549 417 c 0
 635 417 698 379 719 317 c 0
 725 296 726 288 726 260 c 0
 726 232 726 225 720 201 c 0
 690 86 595 -8 451 -8 c 0
 390 -8 346 29 346 92 c 0
 346 132 359 159 396 159 c 0xef
178 -160 m 0
 212 -160 232 -108 232 -75 c 0
 232 -68 231 -62 229 -57 c 0
 220 -43 158 23 156 27 c 0
 155 28 153 28 153 28 c 2
 150 28 141 -16 138 -31 c 0
 134 -53 132 -73 132 -89 c 0xf7
 132 -127 142 -160 178 -160 c 0
EndSplineSet
EndChar

StartChar: Rfraktur
Encoding: 8476 8476 161
Width: 831
GlyphClass: 2
Flags: MW
HStem: 243 95 330 62<397 494 397 501 397 494> 644 66 651 51<173 199.5>
VStem: 59 50<123.5 155> 64 62<319 324 317 324.5> 64 70<570.5 598.5 570.5 607> 150 73<366 412.5> 243 154<302 330 267.5 392 392 422 422 435> 501 153<326 345.5 330 345.5>
LayerCount: 2
Fore
SplineSet
59 124 m 0x69c0
 59 131 87 162 98 162 c 0
 102 162 105 160 109 155 c 0x69c0
 109 152 117 133 119 133 c 0
 120 133 123 133 124 132 c 0
 128 132 148 111 149 107 c 0
 154 97 142 90 133 87 c 1
 136 82 l 2
 148 57 174 40 206 35 c 0
 219 33 226 34 230 36 c 0
 241 43 248 90 248 127 c 0
 248 149 247 176 245 193 c 0
 243 218 243 257 243 302 c 2
 243 422 l 2
 243 510 242 592 234 612 c 0
 224 638 209 651 190 651 c 0
 156 651 134 617 134 580 c 0x53c0
 134 561 139 556 163 532 c 0
 185 509 196 494 206 474 c 0
 219 450 223 431 223 394 c 0
 220 297 190 243 131 243 c 0
 91 243 67 280 64 319 c 0
 64 330 65 334 70 338 c 0
 72 339 74 340 95 340 c 0
 116 340 118 339 120 338 c 0
 125 334 126 331 126 317 c 0x95c0
 127 304 129 296 131 295 c 0
 136 292 143 303 146 318 c 0
 149 334 150 350 150 382 c 2
 151 413 l 1
 142 435 138 443 110 476 c 0
 76 514 64 541 64 572 c 0
 64 642 118 702 197 702 c 0x93c0
 258 702 306 674 339 634 c 1
 355 650 379 664 402 673 c 0
 452 694 523 706 610 710 c 0
 620 710 639 711 651 711 c 0
 672 711 673 711 677 709 c 0
 683 705 824 452 824 444 c 0
 824 439 821 435 817 432 c 0
 808 426 698 366 686 360 c 0
 680 357 654 347 654 344 c 0
 654 343 667 126 670 115 c 0
 674 90 689 65 708 46 c 1
 735 69 l 2
 759 90 764 93 769 93 c 0
 775 93 812 77 812 62 c 0
 812 55 811 54 759 18 c 2
 710 -16 l 1
 680 -16 l 2
 653 -16 649 -16 640 -14 c 0
 574 1 528 49 515 114 c 0
 514 119 501 317 501 326 c 2
 501 330 l 1
 397 330 l 1
 397 281 l 2
 397 254 397 225 396 217 c 0
 391 133 367 69 327 28 c 0
 297 -1 271 -16 220 -16 c 0
 171 -16 132 -4 105 20 c 0
 93 31 81 49 78 68 c 1
 74 67 l 2
 67 67 65 68 56 76 c 0
 44 88 42 91 42 97 c 0
 42 104 46 109 55 111 c 0
 58 112 60 113 60 114 c 1
 61 114 60 117 60 119 c 0
 60 121 59 123 59 124 c 0x69c0
664 419 m 2
 540 644 l 1
 535 644 l 2
 528 644 504 641 487 637 c 0
 434 629 393 612 371 582 c 1
 376 571 l 1
 391 526 396 502 397 435 c 2
 397 392 l 1
 494 392 l 2
 600 393 596 392 615 398 c 0
 630 402 664 417 664 419 c 2
EndSplineSet
EndChar

StartChar: aleph
Encoding: 8501 8501 162
Width: 703
GlyphClass: 2
Flags: MW
HStem: 0 51<82.5 171.5> 674 20G<110 117 487 499.5>
VStem: 65 60 74 51 96 126<212.5 251> 154 162<72 76 70 84> 502 66<468 488.5> 577 51 577 60
LayerCount: 2
Fore
SplineSet
105 692 m 0xd2
 107 693 109 694 111 694 c 0
 123 694 124 687 125 669 c 0
 127 626 141 593 164 573 c 0
 170 567 470 335 471 335 c 1
 471 336 473 343 474 353 c 0
 482 388 502 484 502 488 c 0
 502 489 501 490 497 491 c 0
 474 501 455 519 448 546 c 1
 448 573 l 2
 448 608 450 626 457 648 c 0
 464 669 481 694 493 694 c 0
 506 694 506 680 513 673 c 0
 519 665 550 635 557 630 c 0
 560 628 572 623 584 618 c 0
 614 606 624 600 631 587 c 0
 638 577 638 572 638 543 c 0
 637 509 634 492 628 472 c 0xe3
 621 451 604 427 591 427 c 0
 574 427 578 457 570 467 c 2
 568 470 l 1
 568 468 l 2
 567 467 566 459 564 450 c 0
 554 412 538 311 532 288 c 1
 541 281 l 2
 597 238 624 205 634 165 c 2
 637 154 l 1
 637 124 l 2xc280
 637 86 635 68 628 46 c 0xc3
 621 25 604 0 592 0 c 0
 587 0 583 3 580 6 c 0
 578 9 578 10 577 25 c 0
 575 68 561 101 538 121 c 0
 531 127 237 355 236 355 c 0
 235 355 231 336 229 324 c 0
 225 301 222 265 222 237 c 0xca80
 222 224 224 205 225 201 c 0
 234 183 243 175 266 155 c 0
 297 128 308 113 314 92 c 0
 316 86 316 79 316 73 c 0
 316 67 316 60 314 56 c 0
 305 26 275 6 231 1 c 0
 226 0 194 0 149 0 c 0
 81 0 75 0 72 2 c 0
 65 5 65 7 64 24 c 0
 64 42 65 45 71 49 c 0
 74 51 76 51 89 51 c 0
 124 51 146 56 152 64 c 0
 154 67 154 68 154 76 c 0xc6
 154 92 147 108 128 137 c 0
 116 157 109 169 105 179 c 0
 99 192 96 205 96 220 c 0xca
 96 231 98 243 101 257 c 0
 109 294 128 335 162 388 c 0
 167 397 172 404 172 404 c 2
 172 405 165 410 157 417 c 0
 118 447 79 484 68 529 c 2
 65 541 l 1
 65 570 l 2xe2
 65 608 67 626 74 648 c 0
 80 666 95 687 105 692 c 0xd2
EndSplineSet
EndChar

StartChar: arrowleft
Encoding: 8592 8592 163
Width: 1150
GlyphClass: 2
Flags: MW
HStem: 220 61<235 1063>
LayerCount: 2
Fore
SplineSet
1063 281 m 1
 1075 274 1084 266 1084 251 c 0
 1084 236 1077 226 1063 221 c 1
 649 220 l 1
 235 220 l 1
 293 171 347 104 364 17 c 0
 369 0 369 -3 365 -9 c 0
 360 -16 359 -16 338 -17 c 0
 321 -17 320 -17 316 -15 c 0
 310 -12 309 -8 305 6 c 0
 279 118 196 202 78 233 c 0
 71 235 64 243 64 251 c 0
 64 258 71 266 78 268 c 0
 196 299 279 383 305 495 c 0
 309 509 310 512 316 516 c 0
 319 518 320 518 338 518 c 0
 359 517 360 517 365 510 c 0
 369 504 369 501 364 484 c 0
 351 428 325 377 287 331 c 0
 275 318 248 290 235 282 c 1
 649 281 l 1
 1063 281 l 1
EndSplineSet
EndChar

StartChar: arrowup
Encoding: 8593 8593 164
Width: 575
GlyphClass: 2
Flags: MW
HStem: -193 21G<280 296> 674 20G<287 288>
VStem: 257 61<-171 529>
LayerCount: 2
Fore
SplineSet
33 396 m 0
 18 396 14 403 14 423 c 0
 14 441 15 445 19 450 c 0
 23 455 24 455 41 459 c 0
 145 483 238 564 267 672 c 0
 271 683 271 690 281 692 c 0
 283 693 286 694 288 694 c 0
 301 691 302 690 307 672 c 0
 340 564 428 484 535 459 c 0
 551 455 552 455 556 450 c 0
 560 445 561 441 561 423 c 0
 561 403 557 396 542 396 c 0
 536 396 507 403 489 409 c 0
 428 431 370 469 329 517 c 2
 319 529 l 1
 318 179 l 1
 318 -171 l 1
 311 -184 304 -193 288 -193 c 0
 272 -193 263 -185 258 -171 c 1
 257 179 l 1
 257 529 l 1
 247 517 l 2
 205 469 147 431 86 409 c 0
 68 403 39 396 33 396 c 0
EndSplineSet
EndChar

StartChar: arrowright
Encoding: 8594 8594 165
Width: 1150
GlyphClass: 2
Flags: MW
HStem: 220 61<87 914 87 500>
VStem: 785 59
LayerCount: 2
Fore
SplineSet
65 251 m 0
 65 267 74 274 87 281 c 1
 500 281 l 1
 914 282 l 1
 901 291 874 318 862 331 c 0
 827 373 800 424 785 482 c 0
 783 491 781 499 781 501 c 0
 781 507 786 514 792 517 c 0
 794 518 800 518 812 518 c 0
 828 518 830 518 833 516 c 0
 839 513 840 509 844 495 c 0
 869 388 950 298 1065 270 c 0
 1076 266 1085 264 1085 251 c 0
 1085 237 1076 236 1065 231 c 0
 950 203 869 113 844 6 c 0
 837 -17 840 -17 811 -17 c 0
 790 -16 789 -16 784 -9 c 0
 780 -3 780 0 785 17 c 0
 798 73 824 124 862 170 c 0
 874 183 902 210 914 220 c 1
 500 220 l 1
 87 221 l 1
 73 226 65 235 65 251 c 0
EndSplineSet
EndChar

StartChar: arrowdown
Encoding: 8595 8595 166
Width: 575
GlyphClass: 2
Flags: MW
HStem: -194 21G<281 294.5> 674 20G<281.5 289>
VStem: 257 61<-29 672 321 485.5>
LayerCount: 2
Fore
SplineSet
14 77 m 0
 14 97 18 104 33 104 c 0
 39 104 68 97 86 91 c 0
 147 69 205 31 247 -17 c 2
 257 -29 l 1
 257 321 l 2
 257 650 258 672 259 675 c 0
 264 687 274 694 289 694 c 0
 301 693 310 687 315 676 c 2
 318 672 l 1
 318 321 l 1
 319 -29 l 1
 329 -17 l 2
 370 31 428 69 489 91 c 0
 507 97 536 104 542 104 c 0
 557 104 561 97 561 77 c 0
 561 59 560 55 556 50 c 0
 552 45 551 45 535 41 c 0
 428 16 340 -64 307 -172 c 0
 305 -185 301 -194 288 -194 c 0
 274 -194 271 -185 267 -172 c 0
 238 -64 145 17 41 41 c 0
 24 45 23 45 19 50 c 0
 15 55 14 59 14 77 c 0
EndSplineSet
EndChar

StartChar: arrowboth
Encoding: 8596 8596 167
Width: 1150
GlyphClass: 2
Flags: MW
HStem: 220 61<404 744 404 914>
LayerCount: 2
Fore
SplineSet
316 516 m 0
 319 518 320 518 338 518 c 0
 359 517 360 517 365 510 c 0
 369 504 369 501 364 484 c 0
 351 428 325 377 287 331 c 0
 275 318 248 290 235 282 c 1
 404 281 l 1
 744 281 l 1
 914 282 l 1
 901 291 874 318 862 331 c 0
 827 373 797 424 785 484 c 0
 780 501 780 504 784 510 c 0
 789 517 790 517 811 518 c 0
 828 518 829 518 833 516 c 0
 839 513 840 509 844 495 c 0
 869 388 950 298 1065 270 c 0
 1076 266 1085 264 1085 251 c 0
 1085 237 1076 236 1065 231 c 0
 950 203 869 113 844 6 c 0
 837 -17 840 -17 811 -17 c 0
 790 -16 789 -16 784 -9 c 0
 780 -3 780 0 785 17 c 0
 798 73 824 124 862 170 c 0
 874 183 902 210 914 220 c 1
 235 220 l 1
 293 171 347 104 364 17 c 0
 369 0 369 -3 365 -9 c 0
 360 -16 359 -16 338 -17 c 0
 321 -17 320 -17 316 -15 c 0
 310 -12 309 -8 305 6 c 0
 279 118 196 202 78 233 c 0
 71 235 64 243 64 251 c 0
 64 258 71 266 78 268 c 0
 196 299 279 383 305 495 c 0
 309 509 310 512 316 516 c 0
EndSplineSet
EndChar

StartChar: arrowupdn
Encoding: 8597 8597 168
Width: 575
GlyphClass: 2
Flags: MW
VStem: 257 61<74 426 74 602>
LayerCount: 2
Fore
SplineSet
33 469 m 0
 18 469 14 476 14 496 c 0
 14 514 15 518 19 523 c 0
 23 528 24 528 41 532 c 0
 146 557 235 637 268 745 c 0
 273 761 275 767 288 767 c 0
 301 767 302 761 307 745 c 0
 340 637 428 557 535 532 c 0
 551 528 552 528 556 523 c 0
 560 518 561 514 561 496 c 0
 561 476 557 469 542 469 c 0
 536 469 507 476 489 482 c 0
 428 504 370 542 329 590 c 2
 319 602 l 1
 318 426 l 1
 318 74 l 1
 319 -102 l 1
 329 -90 l 2
 370 -42 428 -4 489 18 c 0
 507 24 536 31 542 31 c 0
 557 31 561 24 561 4 c 0
 561 -14 560 -18 556 -23 c 0
 552 -28 551 -28 535 -32 c 0
 428 -57 340 -137 307 -245 c 0
 302 -261 301 -267 288 -267 c 0
 275 -267 273 -261 268 -245 c 0
 235 -138 146 -57 41 -32 c 0
 24 -28 23 -28 19 -23 c 0
 15 -18 14 -14 14 4 c 0
 14 24 18 31 33 31 c 0
 39 31 68 24 86 18 c 0
 147 -4 205 -42 247 -90 c 2
 257 -102 l 1
 257 602 l 1
 247 590 l 2
 205 542 147 504 86 482 c 0
 68 476 39 469 33 469 c 0
EndSplineSet
EndChar

StartChar: uni2196
Encoding: 8598 8598 169
Width: 1150
GlyphClass: 2
Flags: MW
HStem: -194 21G<1052 1062> 599 58<218 242 218 218> 673 20G<76 83>
VStem: 125 58<461 496 449.5 521>
LayerCount: 2
Fore
SplineSet
1084 -163 m 0
 1084 -183 1070 -194 1054 -194 c 0
 1050 -194 1046 -193 1042 -191 c 0
 1033 -188 181 549 178 549 c 1
 178 548 179 544 179 539 c 0
 183 520 183 509 183 483 c 0
 183 416 171 372 148 324 c 0
 138 304 135 299 130 296 c 0
 125 294 119 293 115 295 c 0
 110 297 89 315 87 319 c 0
 86 321 85 324 85 328 c 0
 85 332 86 335 92 347 c 0
 115 391 125 436 125 486 c 0
 125 556 104 612 74 655 c 0
 68 664 64 670 64 675 c 0
 64 686 71 693 81 693 c 0
 85 693 89 692 94 690 c 0
 139 669 177 657 232 657 c 0
 293 657 361 679 409 714 c 0
 417 721 420 724 429 724 c 0
 440 724 443 719 452 710 c 0
 463 701 466 696 466 690 c 0
 466 683 463 679 452 671 c 0
 399 631 328 601 242 599 c 2
 218 599 l 1
 756 135 l 2
 931 -17 1076 -142 1077 -143 c 0
 1083 -150 1084 -154 1084 -163 c 0
EndSplineSet
EndChar

StartChar: uni2197
Encoding: 8599 8599 170
Width: 1150
GlyphClass: 2
Flags: MW
HStem: -193 21G<85 96.5> 599 58<883 909 909 934> 673 20G<1066 1073>
VStem: 966 58<469 498.5> 1001 63
LayerCount: 2
Fore
SplineSet
94 -193 m 0xf0
 76 -193 64 -181 64 -164 c 0
 64 -157 67 -149 72 -143 c 0
 73 -142 213 -21 382 124 c 2
 934 599 l 1
 909 599 l 2
 856 599 817 609 777 626 c 0
 739 642 690 672 685 682 c 0
 684 685 683 687 683 690 c 0
 683 697 704 719 711 722 c 0
 713 723 718 724 722 724 c 0
 729 724 732 721 739 715 c 0
 789 679 846 657 920 657 c 0
 966 657 1011 668 1055 690 c 0
 1060 692 1064 693 1068 693 c 0
 1078 693 1085 686 1085 675 c 0
 1085 670 1081 664 1075 655 c 0
 1045 611 1024 557 1024 486 c 0xf0
 1024 436 1034 391 1057 347 c 0
 1063 335 1064 332 1064 328 c 0
 1064 324 1063 321 1062 319 c 0
 1060 315 1039 297 1034 295 c 0
 1030 293 1024 294 1019 296 c 0
 1014 299 1011 304 1001 324 c 0xe8
 986 355 977 384 971 419 c 0
 966 442 966 454 966 484 c 0
 966 513 966 530 972 553 c 1
 971 553 714 331 266 -56 c 0
 171 -138 110 -190 107 -191 c 0
 103 -193 99 -193 94 -193 c 0xf0
EndSplineSet
EndChar

StartChar: uni2198
Encoding: 8600 8600 171
Width: 1150
GlyphClass: 2
Flags: MW
HStem: -193 21G<1066 1073> -157 58<907 931 907 946> 674 20G<84.5 95.5>
VStem: 966 58<4.5 39 -21 51>
LayerCount: 2
Fore
SplineSet
65 663 m 0
 65 681 76 694 93 694 c 0
 98 694 103 693 107 691 c 0
 115 688 969 -49 971 -49 c 1
 971 -48 970 -44 970 -39 c 0
 966 -20 966 -9 966 18 c 0
 966 84 978 129 1001 176 c 0
 1011 196 1014 201 1019 204 c 0
 1024 206 1030 207 1034 205 c 0
 1039 203 1060 185 1062 181 c 0
 1063 179 1064 176 1064 172 c 0
 1064 168 1063 165 1057 153 c 0
 1034 109 1024 64 1024 14 c 0
 1024 -56 1045 -112 1075 -155 c 0
 1081 -164 1085 -170 1085 -175 c 0
 1085 -186 1078 -193 1068 -193 c 0
 1064 -193 1060 -192 1055 -190 c 0
 1010 -169 973 -157 919 -157 c 0
 849 -157 783 -183 739 -215 c 0
 727 -224 726 -224 720 -224 c 0
 713 -224 711 -223 697 -210 c 0
 686 -201 683 -196 683 -190 c 0
 683 -183 686 -179 697 -171 c 0
 750 -131 821 -101 907 -99 c 2
 931 -99 l 1
 393 365 l 2
 218 517 73 642 72 643 c 0
 66 650 65 654 65 663 c 0
EndSplineSet
EndChar

StartChar: uni2199
Encoding: 8601 8601 172
Width: 1150
GlyphClass: 2
Flags: MW
HStem: -193 21G<76 83> -157 59<215 215 215 266> 674 20G<1052 1063>
VStem: 85 63 125 58<-10 31.5 -10 39>
LayerCount: 2
Fore
SplineSet
183 17 m 0xe8
 183 -37 177 -53 177 -53 c 2
 180 -53 1018 675 1043 692 c 0
 1046 693 1050 694 1054 694 c 0
 1072 694 1085 682 1085 664 c 0
 1085 657 1082 649 1077 643 c 0
 1076 642 936 521 767 376 c 2
 215 -98 l 1
 240 -99 l 2
 293 -99 332 -109 372 -126 c 0
 410 -142 459 -172 464 -182 c 0
 465 -185 466 -187 466 -190 c 0
 466 -196 462 -202 452 -210 c 0
 438 -223 436 -224 429 -224 c 0
 423 -224 422 -224 411 -215 c 0
 359 -178 303 -157 229 -157 c 0
 183 -157 138 -168 94 -190 c 0
 89 -192 85 -193 81 -193 c 0
 71 -193 64 -186 64 -175 c 0
 64 -170 68 -164 74 -155 c 0
 104 -111 125 -57 125 14 c 0xe8
 125 64 115 109 92 153 c 0
 86 165 85 168 85 172 c 0
 85 176 86 179 87 181 c 0
 89 185 110 203 115 205 c 0
 119 207 125 206 130 204 c 0
 135 201 138 196 148 176 c 0xf0
 163 145 172 116 178 81 c 0
 183 58 183 46 183 17 c 0xe8
EndSplineSet
EndChar

StartChar: uni21A6
Encoding: 8614 8614 173
Width: 1150
GlyphClass: 2
Flags: MW
HStem: 220 61<125 130 125 500 125 914 125 500> 428 20G<87.5 102.5>
VStem: 65 60<76 220 281 426> 785 59
LayerCount: 2
Fore
SplineSet
65 426 m 1
 70 438 80 448 95 448 c 0
 110 448 118 437 125 426 c 1
 125 281 l 1
 500 281 l 1
 914 282 l 1
 901 291 874 318 862 331 c 0
 827 373 800 424 785 482 c 0
 783 491 781 499 781 501 c 0
 781 507 786 514 792 517 c 0
 794 518 800 518 812 518 c 0
 828 518 830 518 833 516 c 0
 839 513 840 509 844 495 c 0
 869 388 950 298 1065 270 c 0
 1076 266 1085 264 1085 251 c 0
 1085 237 1076 236 1065 231 c 0
 950 203 869 113 844 6 c 0
 837 -17 840 -17 811 -17 c 0
 790 -16 789 -16 784 -9 c 0
 780 -3 780 0 785 17 c 0
 798 73 824 124 862 170 c 0
 874 183 902 210 914 220 c 1
 500 220 l 1
 135 221 l 2
 133 221 132 220 130 220 c 2
 125 220 l 1
 125 76 l 1
 119 64 109 54 95 54 c 0
 80 54 70 62 65 76 c 1
 65 426 l 1
EndSplineSet
EndChar

StartChar: uni21A9
Encoding: 8617 8617 174
Width: 1282
GlyphClass: 2
Flags: MW
HStem: 220 61<235 1063> 444 61
VStem: 1158 60<353.5 369.5>
LayerCount: 2
Fore
SplineSet
1068 505 m 0
 1148 500 1218 449 1218 363 c 0
 1218 344 1217 336 1212 321 c 0
 1196 269 1140 221 1066 221 c 2
 1063 221 l 1
 649 220 l 1
 235 220 l 1
 293 171 347 104 364 17 c 0
 369 0 369 -3 365 -9 c 0
 360 -16 359 -16 338 -17 c 0
 321 -17 320 -17 316 -15 c 0
 310 -12 309 -8 305 6 c 0
 279 118 196 202 78 233 c 0
 71 235 64 243 64 251 c 0
 64 258 71 266 78 268 c 0
 196 299 279 383 305 495 c 0
 309 509 310 512 316 516 c 0
 319 518 320 518 338 518 c 0
 359 517 360 517 365 510 c 0
 369 504 369 501 364 484 c 0
 351 428 325 377 287 331 c 0
 275 318 248 290 235 282 c 1
 649 281 l 1
 1063 281 l 1
 1112 285 1158 309 1158 361 c 0
 1158 378 1154 391 1146 401 c 0
 1132 426 1101 441 1063 444 c 0
 1042 446 1029 456 1029 475 c 0
 1029 495 1043 505 1068 505 c 0
EndSplineSet
EndChar

StartChar: uni21AA
Encoding: 8618 8618 175
Width: 1282
GlyphClass: 2
Flags: MW
HStem: 220 61<632 632> 444 61<220 220>
VStem: 65 60<352.5 370 352.5 372> 917 59
LayerCount: 2
Fore
SplineSet
225 221 m 1
 218 221 l 2
 156 221 98 259 77 306 c 0
 68 325 65 340 65 363 c 0
 65 381 66 389 71 404 c 0
 88 458 145 505 221 505 c 0
 241 503 254 493 254 474 c 0
 254 455 241 446 220 444 c 0
 182 441 152 426 137 401 c 0
 129 391 125 378 125 362 c 0
 125 343 133 325 147 310 c 0
 163 296 187 281 217 281 c 2
 220 281 l 1
 632 281 l 1
 1046 282 l 1
 1033 291 1006 318 994 331 c 0
 959 373 932 424 917 482 c 0
 915 491 913 499 913 501 c 0
 913 507 918 514 924 517 c 0
 926 518 932 518 944 518 c 0
 960 518 962 518 965 516 c 0
 971 513 972 509 976 495 c 0
 1001 388 1082 298 1197 270 c 0
 1208 266 1217 264 1217 251 c 0
 1217 237 1208 236 1197 231 c 0
 1082 203 1001 113 976 6 c 0
 969 -17 972 -17 943 -17 c 0
 922 -16 921 -16 916 -9 c 0
 912 -3 912 0 917 17 c 0
 930 73 956 124 994 170 c 0
 1006 183 1034 210 1046 220 c 1
 632 220 l 1
 225 221 l 1
EndSplineSet
EndChar

StartChar: uni21BC
Encoding: 8636 8636 176
Width: 1150
GlyphClass: 2
Flags: MW
HStem: 221 60<636 1063>
LayerCount: 2
Fore
SplineSet
1063 281 m 1
 1075 274 1084 266 1084 251 c 0
 1084 236 1077 226 1063 221 c 1
 572 220 l 2
 233 220 79 220 77 221 c 0
 68 224 64 230 64 244 c 0
 64 265 70 263 85 272 c 0
 178 320 254 398 302 494 c 0
 310 511 312 513 315 516 c 0
 319 518 320 518 337 518 c 0
 356 518 359 517 363 512 c 0
 367 507 369 502 367 496 c 0
 364 484 343 442 326 415 c 0
 299 370 258 322 219 290 c 2
 209 282 l 1
 636 281 l 1
 1063 281 l 1
EndSplineSet
EndChar

StartChar: uni21BD
Encoding: 8637 8637 177
Width: 1150
GlyphClass: 2
Flags: MW
HStem: 220 61<571 636>
LayerCount: 2
Fore
SplineSet
1063 281 m 1
 1075 274 1084 266 1084 251 c 0
 1084 236 1077 226 1063 221 c 1
 636 220 l 1
 209 220 l 1
 219 212 l 2
 258 179 299 131 326 86 c 0
 343 59 364 17 367 5 c 0
 369 -1 367 -6 363 -11 c 0
 359 -16 356 -17 337 -17 c 2
 332 -17 l 2
 313 -17 313 -16 302 7 c 0
 254 103 178 181 85 229 c 0
 70 238 64 236 64 257 c 0
 64 270 67 275 75 279 c 0
 78 281 95 281 571 281 c 2
 1063 281 l 1
EndSplineSet
EndChar

StartChar: uni21C0
Encoding: 8640 8640 178
Width: 1150
GlyphClass: 2
Flags: MW
HStem: 221 60<87 513>
LayerCount: 2
Fore
SplineSet
65 251 m 0
 65 267 74 274 87 281 c 1
 513 281 l 1
 940 282 l 1
 930 290 l 2
 891 322 850 370 823 415 c 0
 806 442 785 484 782 496 c 0
 780 504 784 513 791 517 c 0
 794 518 800 518 812 518 c 2
 817 518 l 2
 836 518 836 517 847 494 c 0
 895 397 969 322 1066 271 c 0
 1084 261 1085 264 1085 245 c 0
 1085 230 1082 224 1072 221 c 0
 1070 220 916 220 578 220 c 2
 87 221 l 1
 73 226 65 235 65 251 c 0
EndSplineSet
EndChar

StartChar: uni21C1
Encoding: 8641 8641 179
Width: 1150
GlyphClass: 2
Flags: MW
HStem: 220 61<513 799.5 346 940 513 513>
LayerCount: 2
Fore
SplineSet
84 279 m 0
 89 281 112 281 580 281 c 0
 1019 281 1070 281 1074 279 c 0
 1082 276 1085 271 1085 256 c 0
 1085 237 1084 240 1066 230 c 0
 969 179 895 104 847 7 c 0
 836 -16 836 -17 817 -17 c 2
 812 -17 l 2
 793 -17 790 -16 786 -11 c 0
 782 -6 780 -1 782 5 c 0
 785 17 806 59 823 86 c 0
 850 131 891 179 930 212 c 2
 940 220 l 1
 513 220 l 1
 87 221 l 1
 73 226 64 235 64 250 c 0
 64 264 72 275 84 279 c 0
EndSplineSet
EndChar

StartChar: uni21CC
Encoding: 8652 8652 180
Width: 1150
GlyphClass: 2
Flags: MW
HStem: 220 61<571 636> 421 60<87 513>
LayerCount: 2
Fore
SplineSet
65 451 m 0
 65 467 74 474 87 481 c 1
 513 481 l 1
 940 482 l 1
 930 490 l 2
 891 522 850 570 823 615 c 0
 806 642 785 684 782 696 c 0
 780 704 784 713 791 717 c 0
 794 718 800 718 812 718 c 2
 817 718 l 2
 836 718 836 717 847 694 c 0
 895 597 969 522 1066 471 c 0
 1084 461 1085 464 1085 445 c 0
 1085 430 1082 424 1072 421 c 0
 1070 420 916 420 578 420 c 2
 87 421 l 1
 73 426 65 435 65 451 c 0
1063 281 m 1
 1075 274 1084 266 1084 251 c 0
 1084 236 1077 226 1063 221 c 1
 636 220 l 1
 209 220 l 1
 219 212 l 2
 258 179 299 131 326 86 c 0
 343 59 364 17 367 5 c 0
 369 -1 367 -6 363 -11 c 0
 359 -16 356 -17 337 -17 c 2
 332 -17 l 2
 313 -17 313 -16 302 7 c 0
 254 103 178 181 85 229 c 0
 70 238 64 236 64 257 c 0
 64 270 67 275 75 279 c 0
 78 281 95 281 571 281 c 2
 1063 281 l 1
EndSplineSet
EndChar

StartChar: arrowdblleft
Encoding: 8656 8656 181
Width: 1150
GlyphClass: 2
Flags: MW
HStem: 108 61<700 733> 332 61<338 1063>
LayerCount: 2
Fore
SplineSet
444 545 m 0
 448 547 450 547 465 547 c 0
 484 547 488 546 492 539 c 0
 494 535 496 533 496 530 c 0
 496 525 493 519 486 507 c 0
 465 470 440 435 414 405 c 2
 404 394 l 1
 733 393 l 1
 1063 393 l 1
 1067 390 l 2
 1078 386 1085 374 1085 362 c 0
 1085 348 1075 339 1063 333 c 1
 700 332 l 1
 338 332 l 1
 324 321 l 2
 293 298 268 283 230 264 c 0
 206 252 205 250 205 250 c 2
 206 249 214 246 222 242 c 0
 257 225 291 205 323 180 c 2
 338 170 l 1
 700 169 l 1
 1063 169 l 1
 1067 166 l 2
 1078 161 1085 150 1085 139 c 0
 1085 123 1075 115 1063 109 c 1
 733 108 l 1
 404 108 l 1
 412 99 l 2
 440 67 467 28 488 -10 c 0
 497 -26 497 -29 493 -37 c 0
 488 -45 485 -46 465 -46 c 2
 460 -46 l 2
 442 -46 442 -45 430 -24 c 0
 380 65 304 138 215 185 c 0
 182 202 135 220 99 229 c 0
 71 235 69 236 66 243 c 0
 65 245 64 248 64 250 c 0
 64 265 69 267 90 271 c 0
 235 303 361 403 430 525 c 0
 439 541 440 543 444 545 c 0
EndSplineSet
EndChar

StartChar: arrowdblup
Encoding: 8657 8657 182
Width: 703
GlyphClass: 2
Flags: MW
HStem: -193 21G<231 242.5 453.5 471> 674 20G<346.5 355.5>
VStem: 210 59 433 59
LayerCount: 2
Fore
SplineSet
463 -193 m 0
 444 -193 439 -182 433 -170 c 1
 433 465 l 1
 423 477 l 2
 398 505 374 540 357 570 c 0
 354 575 351 579 351 579 c 1
 351 579 348 575 345 570 c 0
 328 540 304 505 279 477 c 2
 269 465 l 1
 269 -22 l 2
 269 -196 268 -177 262 -183 c 0
 260 -186 255 -189 253 -191 c 0
 248 -193 246 -193 239 -193 c 0
 223 -193 215 -186 210 -174 c 0
 209 -170 208 -158 208 118 c 0
 208 277 208 406 207 406 c 2
 207 406 204 403 200 400 c 0
 172 377 135 354 100 335 c 0
 82 326 55 314 50 313 c 0
 43 311 34 316 31 323 c 0
 30 325 30 331 30 343 c 0
 30 359 30 361 32 365 c 0
 38 373 69 383 100 401 c 0
 209 465 290 562 333 680 c 0
 337 689 342 694 351 694 c 0
 360 694 366 688 369 680 c 0
 419 544 513 443 636 384 c 0
 669 368 667 369 670 365 c 0
 672 361 672 359 672 343 c 0
 672 331 672 325 671 323 c 0
 668 316 659 311 652 313 c 0
 647 314 620 326 602 335 c 0
 567 354 530 377 502 400 c 0
 498 403 495 406 495 406 c 2
 494 406 494 277 494 118 c 0
 494 -158 493 -170 492 -174 c 0
 487 -186 479 -193 463 -193 c 0
EndSplineSet
EndChar

StartChar: arrowdblright
Encoding: 8658 8658 183
Width: 1150
GlyphClass: 2
Flags: MW
HStem: 108 61<416 449 87 745 416 416> 229 42 332 61<87 811 87 449>
LayerCount: 2
Fore
SplineSet
64 362 m 0
 64 379 76 386 87 393 c 1
 416 393 l 1
 745 394 l 1
 735 405 l 2
 709 435 684 470 663 507 c 0
 654 522 653 527 654 532 c 0
 655 537 659 543 663 545 c 0
 667 547 669 547 684 547 c 2
 689 547 l 2
 707 547 707 546 719 525 c 0
 788 403 914 303 1059 271 c 0
 1080 267 1084 265 1084 250 c 0
 1084 248 1084 245 1083 243 c 0
 1080 236 1078 235 1050 229 c 0
 949 204 870 154 805 89 c 0
 770 54 744 20 719 -24 c 0
 707 -45 707 -46 689 -46 c 2
 684 -46 l 2
 664 -46 661 -45 656 -37 c 0
 652 -29 652 -26 661 -10 c 0
 682 28 709 67 737 99 c 2
 745 108 l 1
 416 108 l 1
 87 109 l 1
 75 114 64 122 64 139 c 0
 64 154 75 162 87 169 c 1
 449 169 l 1
 812 170 l 1
 826 180 l 2
 858 205 892 225 928 242 c 0
 935 246 943 249 944 250 c 0
 946 250 943 252 919 264 c 0
 881 283 856 298 825 321 c 2
 811 332 l 1
 449 332 l 1
 87 333 l 1
 74 339 64 347 64 362 c 0
EndSplineSet
EndChar

StartChar: arrowdbldown
Encoding: 8659 8659 184
Width: 703
GlyphClass: 2
Flags: MW
HStem: -194 21G<343 359> 673 21G
VStem: 208 61<302.5 520> 433 61<302.5 520 302.5 671>
LayerCount: 2
Fore
SplineSet
433 671 m 1
 440 682 444 693 463 693 c 0
 479 693 487 686 492 674 c 0
 493 670 494 658 494 382 c 0
 494 223 494 94 495 94 c 2
 504 101 l 2
 533 124 563 144 598 163 c 0
 617 173 646 186 652 187 c 0
 659 189 668 184 671 177 c 0
 672 175 672 169 672 157 c 0
 672 141 672 139 670 136 c 0
 667 131 669 132 636 116 c 0
 540 70 461 -3 407 -97 c 0
 397 -115 383 -143 376 -162 c 0
 369 -179 367 -194 351 -194 c 0
 335 -194 333 -179 326 -162 c 0
 319 -143 305 -115 295 -97 c 0
 241 -3 162 70 66 116 c 0
 33 132 35 131 32 136 c 0
 30 139 30 141 30 157 c 0
 30 169 30 175 31 177 c 0
 34 184 43 189 50 187 c 0
 56 186 85 173 104 163 c 0
 139 144 169 124 198 101 c 2
 207 94 l 2
 208 94 208 223 208 382 c 0
 208 658 209 670 210 674 c 0
 215 686 225 694 241 694 c 0
 249 693 256 690 262 683 c 0
 268 677 269 696 269 522 c 2
 269 35 l 1
 279 23 l 2
 304 -5 328 -40 345 -70 c 0
 348 -75 351 -79 351 -79 c 1
 351 -79 354 -75 357 -70 c 0
 374 -40 398 -5 423 23 c 2
 433 35 l 1
 433 671 l 1
EndSplineSet
EndChar

StartChar: arrowdblboth
Encoding: 8660 8660 185
Width: 1150
GlyphClass: 2
Flags: MW
HStem: 108 61<335 814 335 335> 332 61<335 814 335 871 278 814>
LayerCount: 2
Fore
SplineSet
364 545 m 0
 367 547 370 547 384 547 c 0
 399 547 401 547 405 545 c 0
 412 541 416 532 414 525 c 0
 403 491 370 439 346 408 c 2
 335 393 l 1
 814 393 l 1
 803 408 l 2
 789 426 774 449 764 467 c 0
 754 483 737 519 735 525 c 0
 733 532 737 541 744 545 c 0
 748 547 750 547 765 547 c 0
 788 547 789 546 799 525 c 0
 802 518 809 505 813 497 c 0
 872 391 964 313 1078 272 c 0
 1093 267 1102 266 1102 251 c 0
 1102 239 1094 237 1085 232 c 0
 1014 207 955 171 902 121 c 0
 860 80 822 27 798 -25 c 0
 789 -45 788 -46 765 -46 c 0
 750 -46 748 -46 744 -44 c 0
 737 -40 733 -31 735 -24 c 0
 737 -17 757 23 766 39 c 0
 776 56 795 84 806 98 c 2
 814 108 l 1
 335 108 l 1
 343 98 l 2
 354 84 373 56 383 39 c 0
 392 23 412 -17 414 -24 c 0
 416 -31 412 -40 405 -44 c 0
 401 -46 399 -46 384 -46 c 0
 361 -46 360 -45 351 -25 c 0
 327 27 289 80 247 121 c 0
 194 171 135 207 64 232 c 0
 55 237 47 239 47 251 c 0
 47 266 57 267 71 272 c 0
 185 313 277 391 336 497 c 0
 343 511 355 540 364 545 c 0
985 251 m 1
 944 275 915 295 882 323 c 2
 871 332 l 1
 278 332 l 1
 273 328 l 2
 243 301 205 275 164 251 c 1
 176 244 l 2
 211 224 249 193 278 169 c 1
 871 169 l 1
 900 194 938 224 973 244 c 2
 985 251 l 1
EndSplineSet
EndChar

StartChar: uni21D5
Encoding: 8661 8661 186
Width: 703
GlyphClass: 2
Flags: MW
HStem: -2 61 441 61
VStem: 208 61<-22 522 522 522> 433 61<114 386 114 573>
LayerCount: 2
Fore
SplineSet
344 765 m 0
 346 766 349 767 351 767 c 0
 363 767 365 759 371 750 c 0
 432 636 533 548 658 502 c 0
 661 501 664 499 666 497 c 0
 672 493 672 491 672 471 c 0
 672 454 672 454 670 449 c 0
 666 444 660 441 653 441 c 0
 623 444 537 492 508 513 c 2
 495 522 l 1
 494 386 l 1
 494 114 l 1
 495 -22 l 1
 508 -13 l 2
 528 1 550 14 574 26 c 0
 607 43 644 58 653 59 c 0
 660 59 666 56 670 51 c 0
 672 46 672 46 672 29 c 0
 672 9 672 7 666 3 c 0
 664 1 661 -1 658 -2 c 0
 528 -50 430 -138 367 -257 c 0
 363 -263 357 -267 351 -267 c 0
 345 -267 339 -263 335 -257 c 0
 272 -138 174 -50 44 -2 c 0
 41 -1 38 1 36 3 c 0
 30 7 30 9 30 29 c 0
 30 46 30 46 32 51 c 0
 36 56 42 59 49 59 c 0
 79 56 165 8 194 -13 c 2
 208 -22 l 1
 208 522 l 1
 194 513 l 2
 174 499 152 486 128 474 c 0
 95 457 58 442 49 441 c 0
 42 441 36 444 32 449 c 0
 30 454 30 454 30 471 c 0
 30 491 30 493 36 497 c 0
 38 499 41 501 44 502 c 0
 170 548 270 636 331 750 c 0
 337 762 338 763 344 765 c 0
422 584 m 2
 397 607 373 640 351 667 c 1
 351 667 347 663 343 657 c 0
 326 633 301 604 280 584 c 2
 269 573 l 1
 269 -73 l 1
 280 -84 l 2
 304 -107 330 -139 351 -166 c 1
 351 -166 357 -160 363 -151 c 0
 382 -127 401 -104 422 -84 c 2
 433 -73 l 1
 433 573 l 1
 422 584 l 2
EndSplineSet
EndChar

StartChar: universal
Encoding: 8704 8704 187
Width: 639
GlyphClass: 2
Flags: MW
HStem: 414 61<278 319 319 464> 673 20G<19.5 29.5>
LayerCount: 2
Fore
SplineSet
1 664 m 2
 1 680 12 693 27 693 c 0
 32 693 39 692 43 691 c 0
 54 686 52 690 102 578 c 2
 148 475 l 1
 492 475 l 1
 533 570 l 2
 557 622 577 668 579 673 c 0
 586 685 592 694 609 694 c 0
 627 694 640 677 639 662 c 0
 637 650 348 -1 341 -8 c 0
 335 -14 329 -16 320 -16 c 0
 310 -16 304 -14 298 -8 c 0
 294 -4 280 27 147 326 c 2
 1 656 l 1
 1 664 l 2
464 414 m 1
 319 414 l 2
 237 414 175 414 175 413 c 2
 319 88 l 1
 464 414 l 1
EndSplineSet
EndChar

StartChar: partialdiff
Encoding: 8706 8706 188
Width: 628
GlyphClass: 2
Flags: MW
HStem: -17 58<259.5 287> 411 51<357 383> 657 53<374 389 389 397.5 374 430>
VStem: 60 136<83.5 169.5> 175 136<511 562.5> 525 132<516.5 531>
LayerCount: 2
Fore
SplineSet
366 462 m 0xf4
 442 462 474 430 502 380 c 1
 503 381 514 428 516 443 c 0
 523 479 525 502 525 531 c 0
 521 613 473 657 387 657 c 0
 347 657 309 642 283 616 c 0
 273 606 272 604 276 604 c 0
 279 604 290 598 296 592 c 0
 306 583 311 570 311 555 c 0
 311 510 270 475 230 475 c 0
 199 475 175 496 175 526 c 0xec
 175 532 176 538 179 547 c 0
 202 637 269 701 374 710 c 1
 389 710 l 2
 406 710 430 710 438 709 c 0
 571 690 657 609 657 459 c 0
 657 423 651 385 640 341 c 0
 612 227 575 150 519 87 c 0
 465 27 390 -9 308 -16 c 0
 302 -17 292 -17 282 -17 c 0
 204 -17 155 -2 113 37 c 0
 78 71 60 106 60 159 c 0
 60 180 63 203 71 231 c 0
 89 306 123 356 184 402 c 0
 241 445 292 462 366 462 c 0xf4
196 110 m 0xf4
 196 57 232 41 287 41 c 0
 332 41 372 62 398 88 c 0
 417 106 425 119 437 151 c 0
 448 179 464 228 468 249 c 0
 472 265 473 282 473 298 c 0
 473 356 451 394 409 409 c 0
 404 410 397 410 383 411 c 0
 331 411 304 399 278 373 c 0
 266 361 260 354 253 340 c 0
 241 316 232 287 217 226 c 0
 200 159 196 134 196 110 c 0xf4
EndSplineSet
EndChar

StartChar: existential
Encoding: 8707 8707 189
Width: 639
GlyphClass: 2
Flags: MW
HStem: 1 60<87 513 87 552 87 513> 317 61<208 308 308 513> 633 61<321 513 300 552>
VStem: 513 61<61 317 317 317 378 633 633 633>
LayerCount: 2
Fore
SplineSet
81 347 m 0
 81 367 91 370 104 378 c 1
 513 378 l 1
 513 633 l 1
 300 633 l 1
 87 634 l 1
 75 639 64 648 64 664 c 0
 64 677 72 688 84 692 c 0
 89 694 103 694 321 694 c 2
 552 694 l 1
 562 687 569 682 574 669 c 1
 574 25 l 1
 569 13 563 7 552 1 c 1
 87 1 l 1
 74 6 64 15 64 30 c 0
 64 42 71 54 82 58 c 2
 87 61 l 1
 513 61 l 1
 513 317 l 1
 308 317 l 2
 108 317 103 317 99 319 c 0
 88 324 81 331 81 347 c 0
EndSplineSet
EndChar

StartChar: emptyset
Encoding: 8709 8709 190
Width: 575
GlyphClass: 2
Flags: MW
HStem: -17 51<275 306> 660 51<255.5 288>
VStem: 46 125<341.5 405> 389 57 402 126<327 385>
LayerCount: 2
Fore
SplineSet
159 -73 m 0xe8
 146 -73 128 -61 128 -44 c 0
 128 -38 131 -29 138 -7 c 2
 148 24 l 1
 146 26 l 2
 139 30 126 43 120 49 c 0
 60 116 46 207 46 344 c 0
 46 466 54 540 98 613 c 0
 132 671 197 711 285 711 c 0
 309 711 334 708 357 701 c 0
 364 699 370 698 370 698 c 2
 371 698 388 749 389 750 c 0
 393 760 403 767 415 767 c 0
 431 767 446 754 446 738 c 0xf0
 446 732 443 723 436 701 c 0
 431 685 426 671 426 670 c 0
 426 669 429 666 433 664 c 0
 457 643 474 621 489 588 c 0
 520 525 528 450 528 344 c 0
 528 177 500 56 394 6 c 0
 362 -9 325 -17 287 -17 c 0
 263 -17 238 -14 216 -7 c 0
 209 -6 204 -4 203 -4 c 2
 203 -4 200 -15 196 -28 c 0
 186 -53 184 -73 159 -73 c 0xe8
313 657 m 0
 305 658 293 660 283 660 c 0
 228 660 188 617 181 567 c 0
 174 529 171 477 171 375 c 0
 171 308 174 208 175 184 c 0
 177 161 182 130 182 129 c 2
 351 639 l 1
 349 640 l 2
 342 646 326 653 313 657 c 0
223 57 m 1
 239 44 259 34 288 34 c 0
 338 34 374 69 387 109 c 0
 394 129 398 164 401 222 c 0
 402 240 402 298 402 356 c 0xe8
 402 414 402 472 401 488 c 0
 400 515 398 539 395 555 c 0
 395 561 393 567 393 568 c 2
 223 57 l 1
EndSplineSet
EndChar

StartChar: gradient
Encoding: 8711 8711 191
Width: 958
GlyphClass: 2
Flags: MW
HStem: 553 133<297 758 297 297>
LayerCount: 2
Fore
SplineSet
56 673 m 0
 56 679 61 683 65 686 c 2
 892 686 l 2
 896 683 901 679 901 673 c 0
 901 665 526 -8 521 -15 c 0
 518 -18 511 -22 506 -24 c 2
 452 -24 l 2
 446 -22 440 -19 436 -15 c 0
 425 0 58 668 57 669 c 0
 57 671 56 672 56 673 c 0
528 136 m 2
 529 136 754 544 758 553 c 1
 297 553 l 1
 301 547 350 458 414 341 c 2
 528 136 l 2
EndSplineSet
EndChar

StartChar: element
Encoding: 8712 8712 192
Width: 767
GlyphClass: 2
Flags: MW
HStem: -86 61<534 541> 220 61<283 648> 524 63
VStem: 97 62<282 285>
LayerCount: 2
Fore
SplineSet
97 251 m 0
 97 437 245 572 417 586 c 0
 423 586 477 587 538 587 c 2
 648 587 l 1
 652 584 l 2
 663 580 670 568 670 557 c 0
 670 541 660 533 648 527 c 1
 534 526 l 2
 436 525 418 525 409 524 c 0
 392 521 386 520 374 517 c 0
 273 492 194 418 167 324 c 0
 164 313 159 287 159 283 c 0
 159 281 163 281 403 281 c 2
 648 281 l 1
 652 278 l 2
 663 274 670 262 670 251 c 0
 670 235 660 227 648 221 c 1
 403 220 l 2
 163 220 159 220 159 218 c 0
 159 214 164 188 167 177 c 0
 191 94 256 26 341 -6 c 0
 355 -11 379 -18 392 -20 c 0
 417 -24 414 -24 534 -25 c 2
 648 -25 l 1
 652 -28 l 2
 663 -32 670 -44 670 -56 c 0
 670 -71 660 -79 648 -85 c 1
 541 -86 l 2
 433 -86 419 -86 396 -82 c 0
 258 -62 145 33 108 162 c 0
 100 192 97 216 97 251 c 0
EndSplineSet
EndChar

StartChar: notelement
Encoding: 8713 8713 193
Width: 767
GlyphClass: 2
Flags: MW
HStem: -86 61<534 541> 220 61<330 330 264 403 264 401> 524 63
VStem: 97 62<282 285>
LayerCount: 2
Fore
SplineSet
126 -210 m 0
 109 -210 97 -195 97 -179 c 0
 97 -173 97 -171 99 -166 c 0
 100 -164 143 -93 204 8 c 1
 159 49 125 102 108 162 c 0
 100 192 97 216 97 251 c 0
 97 437 245 572 417 586 c 0
 423 586 477 587 538 587 c 2
 549 587 l 1
 589 653 615 697 616 698 c 0
 620 705 630 711 641 711 c 0
 657 711 670 699 670 681 c 0
 670 673 670 672 667 667 c 0
 665 664 648 634 620 587 c 1
 648 587 l 1
 652 584 l 2
 663 580 670 568 670 557 c 0
 670 541 660 533 648 527 c 1
 584 526 l 1
 437 281 l 1
 648 281 l 1
 652 278 l 2
 663 274 670 262 670 251 c 0
 670 235 660 227 648 221 c 1
 403 220 l 1
 401 220 l 1
 283 23 l 1
 312 4 352 -14 392 -20 c 0
 417 -24 414 -24 534 -25 c 2
 648 -25 l 1
 652 -28 l 2
 663 -32 670 -44 670 -56 c 0
 670 -71 660 -79 648 -85 c 1
 541 -86 l 2
 433 -86 419 -86 396 -82 c 0
 343 -74 294 -56 252 -29 c 1
 192 -129 149 -200 148 -201 c 0
 142 -207 134 -210 126 -210 c 0
235 62 m 1
 330 220 l 1
 162 219 159 220 159 218 c 0
 159 214 164 188 167 177 c 0
 180 134 203 94 235 62 c 1
366 281 m 1
 513 526 l 1
 433 525 417 525 409 524 c 0
 392 521 386 520 374 517 c 0
 273 492 194 418 167 324 c 0
 164 313 159 287 159 283 c 0
 159 281 162 281 366 281 c 1
EndSplineSet
EndChar

StartChar: suchthat
Encoding: 8715 8715 194
Width: 767
GlyphClass: 2
Flags: MW
HStem: -85 60<119 233> 221 60<119 363> 527 58
VStem: 607 63<216 258 244 285>
LayerCount: 2
Fore
SplineSet
116 585 m 0
 121 587 130 587 229 587 c 0
 335 587 347 587 370 583 c 0
 445 573 514 539 568 488 c 0
 624 433 659 364 668 287 c 0
 669 279 670 265 670 251 c 0
 670 237 669 222 668 215 c 0
 659 137 625 69 569 14 c 0
 509 -44 430 -79 345 -85 c 0
 336 -86 293 -86 225 -86 c 2
 119 -85 l 1
 106 -80 96 -71 96 -55 c 0
 96 -44 103 -32 114 -28 c 2
 119 -25 l 1
 233 -25 l 2
 330 -24 348 -24 357 -23 c 0
 374 -20 380 -19 393 -16 c 0
 493 9 572 83 599 177 c 0
 602 188 607 214 607 218 c 0
 607 220 603 220 363 220 c 2
 119 221 l 1
 106 226 96 235 96 251 c 0
 96 262 103 274 114 278 c 2
 119 281 l 1
 363 281 l 2
 603 281 607 281 607 283 c 0
 607 287 602 313 599 324 c 0
 575 407 510 475 425 507 c 0
 411 512 387 519 374 521 c 0
 349 525 352 525 233 526 c 2
 119 527 l 1
 107 532 96 541 96 557 c 0
 96 570 104 581 116 585 c 0
EndSplineSet
EndChar

StartChar: minus
Encoding: 8722 8722 195
Width: 894
GlyphClass: 2
Flags: MW
HStem: 221 60<448 775 448 775>
LayerCount: 2
Fore
SplineSet
119 221 m 1
 107 226 96 235 96 251 c 0
 96 264 104 275 116 279 c 0
 121 281 140 281 448 281 c 2
 775 281 l 1
 779 278 l 2
 790 274 797 262 797 251 c 0
 797 235 787 227 775 221 c 1
 119 221 l 1
EndSplineSet
EndChar

StartChar: uni2213
Encoding: 8723 8723 196
Width: 894
GlyphClass: 2
Flags: MW
HStem: 124 61<251 416 251 251 477 642> 476 61<251 807 477 642 477 477>
VStem: 416 61<-41 -39 -39 124 185 476>
LayerCount: 2
Fore
SplineSet
84 535 m 0
 89 537 110 537 448 537 c 2
 807 537 l 1
 811 534 l 2
 822 530 829 518 829 507 c 0
 829 491 819 483 807 477 c 1
 642 476 l 1
 477 476 l 1
 477 185 l 1
 807 185 l 1
 811 182 l 2
 822 178 829 166 829 155 c 0
 829 139 819 131 807 125 c 1
 642 124 l 1
 477 124 l 1
 477 -39 l 2
 477 -202 477 -203 475 -208 c 0
 470 -219 461 -227 446 -227 c 0
 429 -227 422 -217 417 -205 c 1
 416 -41 l 1
 416 124 l 1
 251 124 l 1
 87 125 l 1
 74 130 64 139 64 155 c 0
 64 166 71 178 82 182 c 2
 87 185 l 1
 416 185 l 1
 416 476 l 1
 251 476 l 1
 87 477 l 1
 75 482 64 491 64 507 c 0
 64 520 72 531 84 535 c 0
EndSplineSet
EndChar

StartChar: uni2215
Encoding: 8725 8725 197
Width: 575
GlyphClass: 2
Flags: W
LayerCount: 2
Fore
SplineSet
451 730 m 0
 456 742 465 750 479 750 c 0
 498 750 511 734 510 718 c 0
 509 712 492 668 318 244 c 2
 122 -232 l 2
 117 -242 108 -250 95 -250 c 0
 79 -250 63 -237 64 -218 c 0
 68 -196 449 721 451 730 c 0
EndSplineSet
EndChar

StartChar: uni2216
Encoding: 8726 8726 198
Width: 575
GlyphClass: 2
Flags: W
LayerCount: 2
Fore
SplineSet
64 718 m 0
 63 734 75 750 94 750 c 0
 101 750 108 748 113 743 c 0
 117 741 119 738 122 732 c 2
 318 256 l 2
 492 -168 509 -212 510 -218 c 0
 511 -236 497 -250 480 -250 c 0
 466 -250 456 -241 451 -230 c 0
 447 -217 67 697 64 718 c 0
EndSplineSet
EndChar

StartChar: asteriskmath
Encoding: 8727 8727 199
Width: 575
GlyphClass: 2
Flags: MW
HStem: 111 117 200 100<256.5 257 256.5 257 317 317.5> 272 117<122 160>
VStem: 236 102<69 71.5 428.5 431>
LayerCount: 2
Fore
SplineSet
236 431 m 0x50
 237 452 259 472 287 472 c 0
 310 472 338 456 338 431 c 0
 338 422 335 405 328 363 c 2
 317 300 l 2x50
 320 300 404 366 435 387 c 0
 441 389 446 390 451 390 c 0
 480 390 501 360 501 335 c 0
 501 317 491 301 479 295 c 0
 477 294 448 284 414 272 c 2
 353 250 l 1
 414 228 l 2
 448 216 477 206 479 205 c 0
 491 199 501 184 501 166 c 0
 501 142 481 111 452 111 c 2
 446 111 l 2xb0
 434 112 432 114 374 158 c 0
 343 181 318 200 317 200 c 2
 328 137 l 2
 336 89 338 74 338 69 c 0
 336 47 313 28 287 28 c 0
 261 28 238 47 236 69 c 0
 236 74 238 89 246 137 c 2
 257 200 l 2x50
 254 200 170 134 139 113 c 0
 133 111 128 110 123 110 c 0
 94 110 73 140 73 165 c 0
 73 183 83 199 95 205 c 0
 97 206 126 216 160 228 c 2
 221 250 l 1
 160 272 l 2
 126 284 97 294 95 295 c 0
 83 301 73 316 73 334 c 0
 73 358 93 389 122 389 c 2
 128 389 l 2xb0
 140 388 142 386 200 342 c 0
 231 319 256 300 257 300 c 2
 246 363 l 2
 238 411 236 426 236 431 c 0x50
EndSplineSet
EndChar

StartChar: uni2218
Encoding: 8728 8728 200
Width: 575
GlyphClass: 2
Flags: MW
HStem: 28 61<251 294> 413 61<255.5 277.5 255.5 336.5>
VStem: 64 62<214.5 300.5> 448 62<200.5 287.5 186.5 302>
LayerCount: 2
Fore
SplineSet
179 450 m 0
 206 463 236 474 275 474 c 0
 280 474 286 473 292 473 c 0
 355 473 412 449 446 415 c 0
 487 377 510 324 510 251 c 0
 510 122 436 49 324 30 c 0
 316 29 301 28 287 28 c 0
 215 28 165 51 128 87 c 0
 87 125 64 178 64 251 c 0
 64 350 109 417 179 450 c 0
448 251 m 0
 448 353 387 413 286 413 c 0
 185 413 126 352 126 251 c 0
 126 150 186 89 287 89 c 0
 388 89 448 150 448 251 c 0
EndSplineSet
EndChar

StartChar: uni2219
Encoding: 8729 8729 201
Width: 575
GlyphClass: 2
Flags: MW
VStem: 64 446<214.5 287.5 186.5 300.5>
LayerCount: 2
Fore
SplineSet
179 450 m 0
 206 463 236 474 275 474 c 0
 280 474 286 473 292 473 c 0
 355 473 412 449 446 415 c 0
 487 377 510 324 510 251 c 0
 510 122 436 49 324 30 c 0
 316 29 301 28 287 28 c 0
 215 28 165 51 128 87 c 0
 87 125 64 178 64 251 c 0
 64 350 109 417 179 450 c 0
EndSplineSet
EndChar

StartChar: radical
Encoding: 8730 8730 202
Width: 958
GlyphClass: 2
Flags: W
LayerCount: 2
Fore
SplineSet
107 178 m 0
 98 178 78 197 78 207 c 0
 78 211 81 218 84 220 c 0
 86 222 223 315 244 329 c 0
 252 334 258 339 265 339 c 0
 268 339 271 338 275 335 c 0
 277 333 306 277 370 156 c 2
 463 -20 l 1
 698 393 l 2
 847 657 933 808 935 811 c 0
 939 815 945 820 954 820 c 0
 975 820 988 807 988 789 c 0
 988 786 988 784 987 781 c 0
 987 780 451 -167 447 -171 c 0
 441 -177 436 -179 422 -180 c 0
 410 -180 404 -179 400 -175 c 0
 397 -172 189 229 187 229 c 2
 151 205 l 2
 117 182 111 178 107 178 c 0
EndSplineSet
EndChar

StartChar: proportional
Encoding: 8733 8733 203
Width: 894
GlyphClass: 2
Flags: MW
HStem: -8 61<246 264.5 246 293.5> -7 81<726.5 811 771 811> 369 82<233 273 233 273> 391 60
VStem: 65 51<209 235.5>
LayerCount: 2
Fore
SplineSet
830 388 m 1x18
 822 391 814 391 799 391 c 0
 786 391 773 391 764 389 c 0
 701 378 646 340 601 279 c 0
 590 264 584 253 584 251 c 0
 584 248 631 185 638 176 c 0
 670 132 716 88 773 77 c 0
 782 75 795 74 806 74 c 0
 816 74 825 75 829 77 c 0
 830 77 830 72 830 38 c 2
 830 -1 l 1
 820 -3 l 2
 806 -6 800 -7 786 -7 c 2
 771 -7 l 2x58
 682 -7 618 24 566 69 c 0
 553 81 539 96 527 114 c 2
 516 128 l 1
 510 120 l 2
 474 71 422 30 370 10 c 0
 339 -2 311 -8 276 -8 c 0
 171 -8 94 70 71 163 c 0
 66 185 65 196 65 222 c 0
 65 249 66 259 72 284 c 0
 94 370 158 435 250 450 c 0
 254 451 260 451 261 451 c 2
 273 451 l 2xa8
 392 451 475 403 526 330 c 1
 537 316 l 1
 581 374 641 423 705 441 c 0
 731 449 750 451 778 451 c 0
 801 451 813 451 830 445 c 1
 830 388 l 1x18
356 330 m 0
 322 357 295 369 243 369 c 2
 233 369 l 1
 168 359 116 302 116 221 c 0
 116 136 159 75 225 55 c 0
 234 53 236 53 256 53 c 0xa8
 273 53 279 53 289 55 c 0
 352 66 407 104 452 165 c 0
 463 180 469 191 469 193 c 0
 469 196 422 259 415 268 c 0
 399 290 374 316 356 330 c 0
EndSplineSet
EndChar

StartChar: infinity
Encoding: 8734 8734 204
Width: 1150
GlyphClass: 2
Flags: MW
HStem: -8 64<264 281 260 302.5> -8 89<875 910> 362 90<228.5 365.5> 389 63<862 879.5>
VStem: 65 51<213 226.5 188 250.5> 1033 51<217.5 231 217.5 267>
LayerCount: 2
Fore
SplineSet
221 439 m 0x8c
 248 448 269 452 302 452 c 0xac
 429 452 511 403 573 331 c 2
 589 312 l 1
 596 320 l 2
 653 386 720 429 792 445 c 0
 812 449 836 452 857 452 c 0
 912 452 954 434 993 406 c 0
 1042 369 1072 318 1083 256 c 0
 1084 248 1084 237 1084 225 c 0
 1084 210 1084 195 1082 186 c 0
 1062 76 972 -8 848 -8 c 0x5c
 784 -8 714 10 664 38 c 0
 629 58 606 78 576 113 c 2
 560 132 l 1
 553 124 l 2
 496 58 429 15 357 -1 c 0
 337 -5 313 -8 292 -8 c 0
 236 -8 194 10 156 38 c 0
 107 75 77 126 66 189 c 0
 65 196 65 207 65 219 c 0
 65 282 81 320 111 360 c 0
 138 396 179 425 221 439 c 0x8c
1033 224 m 0
 1033 310 970 375 901 387 c 0
 893 388 884 389 875 389 c 0
 849 389 820 384 794 374 c 0
 740 354 692 317 648 261 c 0
 642 254 641 253 642 251 c 0
 648 244 697 187 708 175 c 0
 755 124 803 93 849 84 c 0
 859 82 870 81 880 81 c 0x5c
 950 81 1004 123 1024 174 c 0
 1031 191 1033 202 1033 224 c 0
295 360 m 0
 286 362 276 362 267 362 c 0
 190 362 131 309 118 249 c 0
 116 242 116 232 116 221 c 0
 116 155 148 105 194 78 c 0
 218 63 245 56 275 56 c 0xac
 287 56 299 57 312 59 c 0
 381 70 445 112 501 183 c 0
 506 188 507 191 507 192 c 0
 507 198 450 260 441 269 c 0
 392 322 342 353 295 360 c 0
EndSplineSet
EndChar

StartChar: angle
Encoding: 8736 8736 205
Width: 722
GlyphClass: 2
Flags: MW
HStem: 0 60<386 653 386 661>
LayerCount: 2
Fore
SplineSet
71 0 m 1
 64 4 55 9 55 20 c 0
 55 22 56 24 56 25 c 0
 55 27 55 28 55 30 c 0
 55 32 56 34 56 35 c 0
 55 37 55 38 55 40 c 0
 55 43 56 45 57 48 c 0
 61 55 629 708 638 712 c 0
 641 713 644 714 647 714 c 0
 657 714 666 706 666 694 c 2
 666 692 l 1
 672 689 676 682 676 674 c 0
 676 670 675 666 673 663 c 0
 671 661 549 520 400 350 c 2
 147 61 l 1
 386 60 l 1
 653 60 l 1
 660 55 666 49 666 40 c 2
 666 38 l 1
 672 33 676 28 676 20 c 0
 676 10 670 4 661 0 c 1
 71 0 l 1
EndSplineSet
EndChar

StartChar: uni2223
Encoding: 8739 8739 206
Width: 319
GlyphClass: 2
Flags: MW
VStem: 129 61<-225 250 250 462.5>
LayerCount: 2
Fore
SplineSet
160 -249 m 0
 142 -249 134 -238 129 -225 c 1
 129 250 l 2
 129 675 129 725 131 729 c 0
 135 740 144 750 159 750 c 0
 177 750 185 738 190 725 c 1
 190 -225 l 1
 185 -238 178 -249 160 -249 c 0
EndSplineSet
EndChar

StartChar: uni2225
Encoding: 8741 8741 207
Width: 575
GlyphClass: 2
Flags: MW
VStem: 146 59 369 59
LayerCount: 2
Fore
SplineSet
205 -225 m 1
 199 -239 192 -248 175 -248 c 0
 168 -248 166 -248 161 -246 c 0
 155 -242 149 -235 146 -229 c 0
 145 -224 145 -204 145 251 c 0
 145 705 145 725 146 730 c 0
 150 740 160 750 176 750 c 0
 192 749 199 739 205 727 c 1
 205 -225 l 1
369 727 m 1
 376 739 380 750 398 750 c 0
 403 750 408 749 413 747 c 0
 419 743 425 736 428 730 c 0
 429 725 430 705 430 251 c 0
 430 -204 429 -224 428 -229 c 0
 425 -235 419 -242 413 -246 c 0
 408 -248 406 -248 400 -248 c 0
 381 -248 375 -239 369 -225 c 1
 369 727 l 1
EndSplineSet
EndChar

StartChar: logicaland
Encoding: 8743 8743 208
Width: 767
GlyphClass: 2
Flags: W
LayerCount: 2
Fore
SplineSet
95 -16 m 0
 76 -16 64 -3 64 14 c 0
 64 17 64 20 65 22 c 2
 212 308 l 2
 308 494 359 593 361 595 c 0
 366 600 373 604 385 604 c 0
 393 603 400 600 405 595 c 0
 407 593 458 494 554 308 c 2
 701 22 l 2
 702 20 702 18 702 15 c 0
 702 -5 687 -17 671 -17 c 0
 664 -17 657 -14 651 -9 c 0
 646 -4 640 9 515 251 c 2
 383 506 l 1
 251 251 l 2
 148 51 119 -5 116 -8 c 0
 110 -14 104 -16 95 -16 c 0
EndSplineSet
EndChar

StartChar: logicalor
Encoding: 8744 8744 209
Width: 767
GlyphClass: 2
Flags: W
LayerCount: 2
Fore
SplineSet
64 572 m 0
 64 590 76 604 94 604 c 0
 102 604 110 601 116 595 c 0
 119 592 148 536 251 336 c 2
 383 81 l 1
 515 336 l 2
 640 578 646 591 651 596 c 0
 657 601 664 604 671 604 c 0
 687 604 702 592 702 572 c 0
 702 569 702 567 701 565 c 2
 554 279 l 2
 458 93 407 -6 405 -8 c 0
 403 -10 399 -12 397 -14 c 0
 392 -16 390 -16 383 -16 c 0
 372 -16 366 -13 361 -8 c 0
 359 -6 308 93 212 279 c 2
 65 565 l 2
 65 567 64 569 64 572 c 0
EndSplineSet
EndChar

StartChar: intersection
Encoding: 8745 8745 210
Width: 767
GlyphClass: 2
Flags: MW
HStem: 542 61<354 372 372 444>
VStem: 64 59 643 59
LayerCount: 2
Fore
SplineSet
94 -16 m 0
 76 -16 69 -5 64 8 c 1
 64 209 l 2
 65 428 64 413 70 435 c 0
 87 497 138 546 215 575 c 0
 254 591 305 603 354 603 c 2
 372 603 l 2
 529 603 663 551 696 435 c 0
 702 413 701 428 702 209 c 2
 702 8 l 1
 697 -5 690 -16 672 -16 c 0
 657 -16 648 -8 643 3 c 0
 641 8 641 9 641 201 c 0
 641 333 641 397 640 403 c 0
 627 502 505 542 383 542 c 0
 301 542 235 525 189 495 c 0
 151 470 131 440 126 403 c 0
 125 397 125 333 125 201 c 0
 125 9 125 8 123 3 c 0
 118 -8 109 -16 94 -16 c 0
EndSplineSet
EndChar

StartChar: union
Encoding: 8746 8746 211
Width: 767
GlyphClass: 2
Flags: MW
HStem: -16 60<322 423.5 322 459.5>
VStem: 64 62 640 62
LayerCount: 2
Fore
SplineSet
672 603 m 0
 690 603 697 592 702 579 c 1
 702 378 l 2
 701 159 702 174 696 152 c 0
 666 44 536 -16 383 -16 c 0
 231 -16 101 42 70 152 c 0
 64 174 65 159 64 378 c 0
 64 556 64 579 65 583 c 0
 70 594 79 604 94 604 c 0
 109 604 118 595 123 584 c 0
 125 579 125 578 125 386 c 0
 125 254 125 190 126 184 c 0
 139 86 261 44 383 44 c 0
 464 44 531 62 577 92 c 0
 615 117 635 147 640 184 c 0
 641 190 641 254 641 386 c 0
 641 578 641 579 643 584 c 0
 648 595 657 603 672 603 c 0
EndSplineSet
EndChar

StartChar: integral
Encoding: 8747 8747 212
Width: 569
GlyphClass: 2
Flags: MW
HStem: -211 51<148.5 162> -141 140<135.5 154.5 113 156.5> 501 140<541.5 560.5 539.5 583> 660 51<531.5 547.5>
LayerCount: 2
Fore
SplineSet
204 -71 m 0
 204 -109 176 -141 137 -141 c 0
 134 -141 132 -141 132 -142 c 0
 138 -154 142 -160 155 -160 c 0
 174 -160 193 -150 204 -139 c 0
 219 -126 228 -110 237 -88 c 0
 248 -62 250 -45 262 74 c 0
 278 226 290 299 334 489 c 0
 340 517 346 544 348 549 c 0
 366 620 417 678 481 700 c 0
 499 706 518 711 539 711 c 0
 600 711 620 664 629 609 c 0
 631 599 632 584 632 573 c 0
 632 531 604 501 562 501 c 0
 521 501 492 533 492 571 c 0
 492 609 520 641 559 641 c 0
 562 641 564 641 564 642 c 0
 558 654 554 660 541 660 c 0
 522 660 503 650 492 639 c 0
 477 626 468 610 459 588 c 0
 448 562 446 545 434 426 c 0
 418 274 406 201 362 11 c 0
 346 -65 337 -106 291 -152 c 0
 255 -188 209 -209 162 -211 c 0
 97 -211 76 -167 67 -108 c 0
 65 -99 64 -84 64 -73 c 0
 64 -31 92 -1 134 -1 c 0
 175 -1 204 -33 204 -71 c 0
EndSplineSet
EndChar

StartChar: similar
Encoding: 8764 8764 213
Width: 894
GlyphClass: 2
Flags: MW
HStem: 109 85<622 681.5 622 697.5> 306 85<253 271>
VStem: 64 41<143 180 132 217.5> 788 40<319 342 342 353 284 367>
LayerCount: 2
Fore
SplineSet
86 109 m 0
 73 109 64 131 64 155 c 0
 64 280 140 377 232 389 c 0
 240 390 249 391 257 391 c 0
 290 391 323 381 357 363 c 0
 384 347 404 332 454 290 c 0
 503 249 520 236 545 221 c 0
 576 203 607 194 637 194 c 0
 726 194 788 271 788 367 c 1
 793 383 800 391 808 391 c 0
 821 391 828 368 828 353 c 2
 828 342 l 2
 828 226 758 109 637 109 c 0
 604 109 570 118 536 137 c 0
 509 153 489 168 439 210 c 0
 390 251 373 264 348 279 c 0
 317 297 286 306 256 306 c 0
 166 306 105 228 105 132 c 1
 101 119 93 109 86 109 c 0
EndSplineSet
EndChar

StartChar: uni2240
Encoding: 8768 8768 214
Width: 319
GlyphClass: 2
Flags: MW
HStem: -82 43<213.5 217 213.5 219.5> 540 43<97 111>
VStem: 64 85<77 102 65 116.5> 169 85<405 423.5>
LayerCount: 2
Fore
SplineSet
64 561 m 0
 64 573 86 583 108 583 c 0
 205 583 254 506 254 407 c 0
 254 399 254 391 253 386 c 0
 249 347 237 315 200 245 c 0
 175 197 166 176 159 153 c 0
 152 132 149 112 149 92 c 0
 149 38 173 -20 203 -36 c 0
 207 -38 210 -39 217 -39 c 0
 232 -40 243 -45 250 -52 c 0
 253 -55 254 -56 254 -60 c 0
 254 -76 229 -82 210 -82 c 0
 139 -82 101 -42 78 10 c 0
 69 35 64 61 64 93 c 0
 64 140 75 175 118 256 c 0
 153 324 164 352 168 391 c 0
 169 396 169 402 169 408 c 0
 169 439 161 476 148 500 c 0
 136 522 117 540 105 540 c 0
 89 540 64 546 64 561 c 0
EndSplineSet
EndChar

StartChar: uni2243
Encoding: 8771 8771 215
Width: 894
GlyphClass: 2
Flags: MW
HStem: -3 60<448 807 448 807> 250 85<615.5 673.5 601 677> 417 85<229 261 229 273.5>
VStem: 64 46 788 40<435 478>
LayerCount: 2
Fore
SplineSet
86 250 m 0
 73 250 64 272 64 295 c 0
 64 310 67 332 71 349 c 0
 80 389 98 422 128 450 c 0
 161 483 201 502 257 502 c 0
 265 502 273 501 277 501 c 0
 317 497 356 481 406 449 c 0
 413 445 434 430 454 416 c 0
 514 375 565 335 637 335 c 0
 710 335 767 382 783 436 c 0
 784 444 788 468 788 478 c 0
 793 494 800 502 808 502 c 0
 820 502 828 480 828 465 c 2
 828 455 l 2
 828 415 817 374 798 342 c 0
 767 293 714 250 640 250 c 0
 591 250 547 265 488 303 c 0
 480 307 459 322 439 336 c 2
 370 382 l 2
 329 405 291 417 256 417 c 0
 183 417 126 370 110 317 c 0
 107 295 107 250 86 250 c 0
64 27 m 0
 64 42 75 52 87 56 c 0
 88 56 251 57 448 57 c 2
 807 57 l 1
 818 49 829 42 829 27 c 0
 829 11 818 3 807 -3 c 1
 87 -3 l 1
 74 2 64 12 64 27 c 0
EndSplineSet
EndChar

StartChar: congruent
Encoding: 8773 8773 216
Width: 1000
GlyphClass: 2
Flags: MW
HStem: -27 60<448 807 448 807> 197 60<448 807 448 807> 356 85<622 681.5 622 697.5> 553 85<253 271>
VStem: 64 41<390 427 379 464.5> 788 40<566 589 589 600 531 614>
LayerCount: 2
Fore
SplineSet
86 356 m 0
 73 356 64 378 64 402 c 0
 64 527 140 624 232 636 c 0
 240 637 249 638 257 638 c 0
 290 638 323 628 357 610 c 0
 384 594 404 579 454 537 c 0
 503 496 520 483 545 468 c 0
 576 450 607 441 637 441 c 0
 726 441 788 518 788 614 c 1
 793 630 800 638 808 638 c 0
 821 638 828 615 828 600 c 2
 828 589 l 2
 828 473 758 356 637 356 c 0
 604 356 570 365 536 384 c 0
 509 400 489 415 439 457 c 0
 390 498 373 511 348 526 c 0
 317 544 286 553 256 553 c 0
 166 553 105 475 105 379 c 1
 101 366 93 356 86 356 c 0
87 197 m 1
 75 202 64 210 64 226 c 0
 64 238 72 250 84 255 c 0
 89 257 110 257 448 257 c 2
 807 257 l 1
 811 254 l 2
 822 250 829 238 829 227 c 0
 829 212 819 203 807 197 c 1
 87 197 l 1
87 -27 m 1
 74 -22 64 -12 64 3 c 0
 64 18 74 27 86 32 c 0
 89 33 155 33 448 33 c 2
 807 33 l 1
 811 30 l 2
 822 25 829 14 829 3 c 0
 829 -13 819 -21 807 -27 c 1
 87 -27 l 1
EndSplineSet
EndChar

StartChar: approxequal
Encoding: 8776 8776 217
Width: 894
GlyphClass: 2
Flags: MW
HStem: 32 85<632.5 666 632.5 686.5> 171 85<221 259 198 267.5> 300 85<632.5 657.5 632.5 693.5> 439 85<221 259 198 267.5>
VStem: 64 41 786 43<209.5 219 199.5 225 472.5 489.5>
LayerCount: 2
Fore
SplineSet
807 524 m 0
 823 524 829 500 829 479 c 0
 829 373 749 300 638 300 c 0
 621 300 604 302 587 306 c 0
 547 315 512 330 441 371 c 0
 384 403 356 417 327 427 c 0
 302 435 279 439 256 439 c 0
 186 439 128 404 110 359 c 0
 107 352 108 332 105 324 c 0
 102 314 96 300 85 300 c 0
 82 300 80 301 77 304 c 0
 69 311 64 326 64 345 c 0
 64 452 146 524 250 524 c 0
 268 524 289 522 306 518 c 0
 346 509 381 494 453 453 c 0
 535 406 570 392 616 386 c 0
 623 385 629 385 636 385 c 0
 679 385 723 399 753 424 c 0
 772 441 786 464 786 481 c 0
 786 498 792 524 807 524 c 0
808 256 m 0
 824 256 829 230 829 208 c 0
 829 191 826 171 819 152 c 0
 797 84 733 32 640 32 c 0
 622 32 604 34 587 38 c 0
 548 46 512 62 443 102 c 0
 386 134 357 148 328 158 c 0
 302 167 279 171 256 171 c 0
 186 171 128 136 110 91 c 0
 107 84 108 64 105 56 c 0
 102 46 96 32 85 32 c 0
 82 32 80 33 77 36 c 0
 69 43 64 58 64 77 c 0
 64 184 146 256 250 256 c 0
 268 256 289 254 306 250 c 0
 346 242 381 226 453 185 c 0
 535 138 570 124 616 118 c 0
 623 117 629 117 636 117 c 0
 696 117 755 145 778 186 c 0
 782 194 786 206 786 213 c 0
 786 237 796 256 808 256 c 0
EndSplineSet
EndChar

StartChar: uni224D
Encoding: 8781 8781 218
Width: 894
GlyphClass: 2
Flags: MW
HStem: 118 61<448 456> 322 60<436 456 436 464.5>
LayerCount: 2
Fore
SplineSet
798 533 m 0
 817 533 829 517 829 502 c 0
 829 495 826 487 820 481 c 0
 814 475 789 455 769 440 c 0
 694 384 613 346 537 330 c 0
 503 324 482 322 447 322 c 0
 411 322 390 324 356 330 c 0
 280 346 199 384 124 440 c 0
 104 455 79 475 73 481 c 0
 67 487 64 495 64 503 c 0
 64 518 76 533 94 533 c 0
 108 533 110 529 128 515 c 0
 213 444 302 400 388 387 c 0
 406 384 426 382 446 382 c 0
 466 382 487 384 505 387 c 0
 591 400 680 444 765 515 c 0
 783 529 789 533 798 533 c 0
95 -32 m 0
 76 -32 64 -16 64 -1 c 0
 64 6 67 14 73 20 c 0
 79 26 104 46 124 61 c 0
 216 129 312 169 405 178 c 0
 411 179 418 179 421 179 c 0
 422 179 426 180 432 180 c 0
 438 180 444 179 452 179 c 0
 485 179 505 177 537 170 c 0
 613 155 694 117 769 61 c 0
 789 46 814 26 820 20 c 0
 826 14 829 6 829 -1 c 0
 829 -16 817 -32 798 -32 c 0
 789 -32 783 -28 765 -14 c 0
 680 57 591 101 505 114 c 0
 487 117 466 118 446 118 c 0
 426 118 406 117 388 114 c 0
 302 101 213 57 128 -14 c 0
 110 -28 104 -32 95 -32 c 0
EndSplineSet
EndChar

StartChar: uni2250
Encoding: 8784 8784 219
Width: 894
GlyphClass: 2
Flags: MW
HStem: 109 60<448 807 448 807> 333 60<448 807 448 807> 551 170<441.5 454.5>
VStem: 362 171<621.5 642.5 617 656>
LayerCount: 2
Fore
SplineSet
87 333 m 1
 75 338 64 346 64 362 c 0
 64 374 72 386 84 391 c 0
 89 393 110 393 448 393 c 2
 807 393 l 1
 811 390 l 2
 822 386 829 374 829 363 c 0
 829 348 819 339 807 333 c 1
 87 333 l 1
87 109 m 1
 74 114 64 124 64 139 c 0
 64 154 74 163 86 168 c 0
 89 169 155 169 448 169 c 2
 807 169 l 1
 811 166 l 2
 822 161 829 150 829 139 c 0
 829 123 819 115 807 109 c 1
 87 109 l 1
362 635 m 0
 362 677 392 710 431 720 c 0
 435 721 439 721 444 721 c 0
 481 721 506 705 520 680 c 0
 529 666 533 650 533 635 c 0
 533 599 510 565 472 553 c 0
 463 551 461 551 448 551 c 0
 420 551 409 557 393 570 c 0
 376 583 362 608 362 635 c 0
EndSplineSet
EndChar

StartChar: notequal
Encoding: 8800 8800 220
Width: 894
GlyphClass: 2
Flags: MW
HStem: 109 60<252.5 327 252.5 398 433 807> 333 60<448 461 448 532 567 807>
LayerCount: 2
Fore
SplineSet
189 -210 m 0
 172 -210 160 -195 160 -179 c 0
 160 -173 160 -171 162 -166 c 0
 164 -164 237 -42 327 109 c 1
 87 109 l 1
 74 114 64 124 64 139 c 0
 64 154 74 163 86 168 c 0
 89 169 142 169 363 169 c 1
 461 333 l 1
 87 333 l 1
 75 338 64 346 64 362 c 0
 64 374 72 386 84 391 c 0
 89 393 110 393 448 393 c 2
 496 393 l 1
 595 558 677 696 679 698 c 0
 683 705 693 711 704 711 c 0
 720 711 733 699 733 681 c 0
 733 673 733 672 730 667 c 0
 727 660 655 541 567 393 c 1
 807 393 l 1
 811 390 l 2
 822 386 829 374 829 363 c 0
 829 348 819 339 807 333 c 1
 532 333 l 1
 433 169 l 1
 807 169 l 1
 811 166 l 2
 822 161 829 150 829 139 c 0
 829 123 819 115 807 109 c 1
 398 109 l 1
 298 -59 213 -199 211 -201 c 0
 205 -207 197 -210 189 -210 c 0
EndSplineSet
EndChar

StartChar: equivalence
Encoding: 8801 8801 221
Width: 894
GlyphClass: 2
Flags: MW
HStem: -3 60<448 807 448 807> 221 60<448 807 448 807> 445 60<448 807 448 807>
CounterMasks: 1 e0
LayerCount: 2
Fore
SplineSet
87 445 m 1
 75 450 64 460 64 475 c 0
 64 487 71 499 84 503 c 0
 89 505 110 505 448 505 c 2
 807 505 l 1
 817 497 829 491 829 474 c 0
 829 459 819 451 807 445 c 1
 87 445 l 1
87 221 m 1
 75 226 64 235 64 251 c 0
 64 264 72 275 84 279 c 0
 89 281 110 281 448 281 c 2
 807 281 l 1
 811 278 l 2
 822 274 829 262 829 251 c 0
 829 235 819 227 807 221 c 1
 87 221 l 1
64 27 m 0
 64 42 75 52 87 56 c 0
 88 56 251 57 448 57 c 2
 807 57 l 1
 818 49 829 42 829 27 c 0
 829 11 818 3 807 -3 c 1
 87 -3 l 1
 74 2 64 12 64 27 c 0
EndSplineSet
EndChar

StartChar: lessequal
Encoding: 8804 8804 222
Width: 894
GlyphClass: 2
Flags: MW
HStem: -199 60<448 775 448 775> 645 52
LayerCount: 2
Fore
SplineSet
797 55 m 0
 797 39 784 25 767 25 c 2
 759 25 l 1
 434 180 l 2
 141 320 109 335 105 339 c 0
 99 345 96 352 96 360 c 0
 96 374 103 382 114 388 c 0
 126 394 751 693 757 695 c 0
 760 696 763 697 766 697 c 0
 785 697 797 682 797 666 c 0
 797 658 794 651 788 645 c 0
 778 635 199 362 197 361 c 2
 466 232 l 2
 806 70 786 79 790 74 c 0
 795 68 797 62 797 55 c 0
119 -199 m 1
 106 -194 96 -184 96 -169 c 0
 96 -157 106 -144 119 -140 c 0
 120 -140 268 -139 448 -139 c 2
 775 -139 l 1
 786 -145 797 -154 797 -169 c 0
 797 -184 787 -193 775 -199 c 1
 119 -199 l 1
EndSplineSet
EndChar

StartChar: greaterequal
Encoding: 8805 8805 223
Width: 894
GlyphClass: 2
Flags: MW
HStem: -199 60<448 775 448 775> 677 20G<118 128>
LayerCount: 2
Fore
SplineSet
127 25 m 2
 109 25 96 37 96 54 c 0
 96 62 99 69 105 75 c 0
 110 81 82 67 439 238 c 2
 696 361 l 1
 696 361 112 638 105 645 c 0
 99 651 96 659 96 667 c 0
 96 683 108 697 128 697 c 0
 140 695 783 387 788 382 c 0
 794 376 797 368 797 360 c 0
 797 352 794 345 788 339 c 0
 784 335 752 320 459 180 c 2
 135 25 l 1
 127 25 l 2
119 -199 m 1
 106 -194 96 -184 96 -169 c 0
 96 -157 106 -144 119 -140 c 0
 120 -140 268 -139 448 -139 c 2
 775 -139 l 1
 786 -145 797 -154 797 -169 c 0
 797 -184 787 -193 775 -199 c 1
 119 -199 l 1
EndSplineSet
EndChar

StartChar: uni226A
Encoding: 8810 8810 224
Width: 1150
GlyphClass: 2
Flags: W
LayerCount: 2
Fore
SplineSet
734 -86 m 0
 734 -102 721 -116 704 -116 c 0
 696 -116 695 -116 689 -113 c 0
 688 -112 86 219 73 229 c 0
 67 235 64 242 64 250 c 0
 64 258 67 266 73 272 c 0
 77 275 141 312 380 443 c 0
 680 609 691 616 696 617 c 2
 700 617 l 2
 720 617 734 605 734 588 c 0
 734 577 727 565 717 560 c 0
 715 559 588 489 435 404 c 2
 157 250 l 1
 439 94 l 2
 663 -29 722 -62 726 -66 c 0
 731 -71 734 -79 734 -86 c 0
1085 -86 m 0
 1085 -102 1072 -116 1055 -116 c 0
 1047 -116 1046 -116 1040 -113 c 0
 1039 -112 437 219 424 229 c 0
 418 235 415 242 415 250 c 0
 415 258 418 266 424 272 c 0
 428 275 492 312 731 443 c 0
 1031 609 1042 616 1047 617 c 2
 1051 617 l 2
 1071 617 1085 605 1085 588 c 0
 1085 577 1078 565 1068 560 c 0
 1066 559 939 489 786 404 c 2
 508 250 l 1
 790 94 l 2
 1014 -29 1073 -62 1077 -66 c 0
 1082 -71 1085 -79 1085 -86 c 0
EndSplineSet
EndChar

StartChar: uni226B
Encoding: 8811 8811 225
Width: 1150
GlyphClass: 2
Flags: W
LayerCount: 2
Fore
SplineSet
64 588 m 0
 64 603 76 618 94 618 c 0
 99 618 105 616 110 614 c 0
 125 604 705 287 725 272 c 0
 731 266 734 258 734 250 c 0
 734 242 731 235 725 229 c 0
 705 214 125 -103 110 -113 c 0
 103 -116 102 -116 95 -116 c 0
 77 -116 64 -103 64 -86 c 0
 64 -79 67 -71 72 -66 c 0
 76 -62 135 -29 359 94 c 2
 641 250 l 1
 363 404 l 2
 210 489 83 559 81 560 c 0
 72 565 64 575 64 588 c 0
415 588 m 0
 415 603 427 618 445 618 c 0
 450 618 456 616 461 614 c 0
 476 604 1056 287 1076 272 c 0
 1082 266 1085 258 1085 250 c 0
 1085 242 1082 235 1076 229 c 0
 1056 214 476 -103 461 -113 c 0
 454 -116 453 -116 446 -116 c 0
 428 -116 415 -103 415 -86 c 0
 415 -79 418 -71 423 -66 c 0
 427 -62 486 -29 710 94 c 2
 992 250 l 1
 714 404 l 2
 561 489 434 559 432 560 c 0
 423 565 415 575 415 588 c 0
EndSplineSet
EndChar

StartChar: uni227A
Encoding: 8826 8826 226
Width: 894
GlyphClass: 2
Flags: MW
HStem: 219 61<136 136>
VStem: 735 62
LayerCount: 2
Fore
SplineSet
797 -57 m 0
 797 -73 784 -86 766 -86 c 0
 745 -86 738 -73 735 -54 c 0
 729 -5 711 36 681 72 c 0
 615 149 485 196 295 212 c 0
 254 216 196 218 136 219 c 0
 116 220 112 221 105 228 c 0
 99 234 96 242 96 250 c 0
 96 258 99 265 105 271 c 0
 112 278 116 279 136 280 c 0
 389 284 608 316 698 450 c 0
 718 480 730 513 735 553 c 0
 738 570 745 585 763 585 c 0
 783 585 797 573 797 556 c 0
 797 550 794 532 791 518 c 0
 776 447 734 386 682 345 c 0
 629 304 564 275 481 254 c 2
 462 249 l 1
 482 247 514 236 537 229 c 0
 595 209 641 185 682 154 c 0
 734 113 776 52 791 -19 c 0
 794 -33 797 -51 797 -57 c 0
EndSplineSet
EndChar

StartChar: uni227B
Encoding: 8827 8827 227
Width: 894
GlyphClass: 2
Flags: MW
HStem: 219 61<758 758>
VStem: 96 62
LayerCount: 2
Fore
SplineSet
96 556 m 0
 96 571 108 586 126 586 c 0
 145 586 155 572 158 553 c 0
 163 513 175 480 195 450 c 0
 285 316 505 284 758 280 c 0
 784 279 797 272 797 250 c 0
 797 228 784 220 758 219 c 0
 621 217 530 209 447 190 c 0
 268 151 174 71 158 -54 c 0
 155 -73 147 -86 126 -86 c 0
 108 -86 96 -73 96 -57 c 0
 96 -51 99 -33 102 -19 c 0
 117 52 159 113 211 154 c 0
 264 195 329 224 412 245 c 2
 431 250 l 1
 411 252 379 263 357 270 c 0
 298 290 252 314 211 345 c 0
 159 386 117 447 102 518 c 0
 99 531 96 550 96 556 c 0
EndSplineSet
EndChar

StartChar: propersubset
Encoding: 8834 8834 228
Width: 894
GlyphClass: 2
Flags: MW
HStem: -85 60<597 775 597 775> 524 63
VStem: 96 62<238 267 238 344>
LayerCount: 2
Fore
SplineSet
96 251 m 0
 96 437 245 572 417 586 c 0
 422 586 505 587 601 587 c 2
 775 587 l 1
 779 584 l 2
 790 580 797 568 797 557 c 0
 797 541 787 533 775 527 c 1
 597 526 l 2
 440 525 418 525 409 524 c 0
 391 521 386 520 370 516 c 0
 276 492 200 422 171 334 c 0
 161 305 158 283 158 251 c 0
 158 225 159 215 164 192 c 0
 175 140 205 89 246 53 c 0
 291 11 345 -14 408 -23 c 0
 418 -24 437 -24 597 -25 c 2
 775 -25 l 1
 779 -28 l 2
 790 -32 797 -44 797 -56 c 0
 797 -71 787 -79 775 -85 c 1
 493 -85 l 2
 401 -85 402 -84 376 -79 c 0
 267 -57 174 13 128 110 c 0
 107 155 96 192 96 251 c 0
EndSplineSet
EndChar

StartChar: propersuperset
Encoding: 8835 8835 229
Width: 894
GlyphClass: 2
Flags: MW
HStem: -85 60<119 296> 527 58
VStem: 735 61<243.5 263.5>
LayerCount: 2
Fore
SplineSet
116 585 m 0
 121 587 132 587 300 587 c 0
 477 586 478 586 493 584 c 0
 637 566 749 466 785 338 c 0
 793 308 796 285 796 251 c 0
 796 236 796 221 795 215 c 0
 786 137 751 68 695 13 c 0
 641 -38 573 -71 497 -82 c 0
 473 -86 461 -86 289 -86 c 2
 119 -85 l 1
 106 -80 96 -71 96 -55 c 0
 96 -44 103 -32 114 -28 c 2
 119 -25 l 1
 296 -25 l 2
 453 -24 475 -24 484 -23 c 0
 502 -20 507 -19 523 -15 c 0
 617 9 693 79 722 167 c 0
 732 196 735 218 735 251 c 0
 735 276 734 286 729 309 c 0
 718 361 688 412 647 448 c 0
 602 490 548 515 485 524 c 0
 475 525 456 525 296 526 c 2
 119 527 l 1
 107 532 96 541 96 557 c 0
 96 570 104 581 116 585 c 0
EndSplineSet
EndChar

StartChar: reflexsubset
Encoding: 8838 8838 230
Width: 894
GlyphClass: 2
Flags: MW
HStem: -199 60<463 775 463 775> 25 60<597 775 597 775> 634 63
VStem: 96 62<348 377 348 454>
LayerCount: 2
Fore
SplineSet
96 361 m 0
 96 547 245 682 417 696 c 0
 422 696 505 697 601 697 c 2
 775 697 l 1
 779 694 l 2
 790 690 797 678 797 667 c 0
 797 651 787 643 775 637 c 1
 597 636 l 2
 440 635 418 635 409 634 c 0
 391 631 386 630 370 626 c 0
 276 602 200 532 171 444 c 0
 161 415 158 393 158 361 c 0
 158 335 159 325 164 302 c 0
 175 250 205 199 246 163 c 0
 291 121 345 96 408 87 c 0
 418 86 437 86 597 85 c 2
 775 85 l 1
 779 82 l 2
 790 78 797 66 797 54 c 0
 797 39 787 31 775 25 c 1
 493 25 l 2
 401 25 402 26 376 31 c 0
 267 53 174 123 128 220 c 0
 107 265 96 302 96 361 c 0
149 -199 m 1
 135 -194 127 -184 127 -169 c 0
 127 -156 136 -144 149 -140 c 0
 150 -140 292 -139 463 -139 c 2
 775 -139 l 1
 779 -142 l 2
 790 -146 797 -158 797 -169 c 0
 797 -185 787 -193 775 -199 c 1
 149 -199 l 1
EndSplineSet
EndChar

StartChar: reflexsuperset
Encoding: 8839 8839 231
Width: 894
GlyphClass: 2
Flags: MW
HStem: -199 60<433 745 433 745> 25 60<119 296> 637 58
VStem: 735 61<353.5 373.5>
LayerCount: 2
Fore
SplineSet
116 695 m 0
 121 697 132 697 300 697 c 0
 477 696 478 696 493 694 c 0
 637 676 749 576 785 448 c 0
 793 418 796 395 796 361 c 0
 796 346 796 331 795 325 c 0
 786 247 751 178 695 123 c 0
 641 72 573 39 497 28 c 0
 473 24 461 24 289 24 c 2
 119 25 l 1
 106 30 96 39 96 55 c 0
 96 66 103 78 114 82 c 2
 119 85 l 1
 296 85 l 2
 453 86 475 86 484 87 c 0
 502 90 507 91 523 95 c 0
 617 119 693 189 722 277 c 0
 732 306 735 328 735 361 c 0
 735 386 734 396 729 419 c 0
 718 471 688 522 647 558 c 0
 602 600 548 625 485 634 c 0
 475 635 456 635 296 636 c 2
 119 637 l 1
 107 642 96 651 96 667 c 0
 96 680 104 691 116 695 c 0
119 -199 m 1
 107 -194 96 -185 96 -169 c 0
 96 -156 104 -145 116 -141 c 0
 121 -139 140 -139 433 -139 c 2
 745 -139 l 1
 757 -146 766 -156 766 -170 c 0
 766 -183 758 -194 745 -199 c 1
 119 -199 l 1
EndSplineSet
EndChar

StartChar: uni228E
Encoding: 8846 8846 232
Width: 767
GlyphClass: 2
Flags: MW
HStem: -16 60<322 423.5 322 459.5> 280 61<281 353 281 281 414 486>
VStem: 64 62 353 61<208 280 136 280 341 411> 640 62
LayerCount: 2
Fore
SplineSet
672 603 m 0
 690 603 697 592 702 579 c 1
 702 378 l 2
 701 159 702 174 696 152 c 0
 666 44 536 -16 383 -16 c 0
 231 -16 101 42 70 152 c 0
 64 174 65 159 64 378 c 0
 64 556 64 579 65 583 c 0
 70 594 79 604 94 604 c 0
 109 604 118 595 123 584 c 0
 125 579 125 578 125 386 c 0
 125 254 125 190 126 184 c 0
 139 86 261 44 383 44 c 0
 464 44 531 62 577 92 c 0
 615 117 635 147 640 184 c 0
 641 190 641 254 641 386 c 0
 641 578 641 579 643 584 c 0
 648 595 657 603 672 603 c 0
187 310 m 0
 187 328 197 334 209 341 c 1
 353 341 l 1
 353 412 l 2
 353 479 353 482 355 487 c 0
 359 499 368 507 385 507 c 0
 398 506 408 499 412 487 c 0
 414 482 414 480 414 411 c 2
 414 341 l 1
 558 341 l 1
 569 335 579 328 579 311 c 0
 579 293 570 286 558 281 c 1
 486 280 l 1
 414 280 l 1
 414 136 l 1
 407 124 398 114 384 114 c 0
 370 114 359 123 354 136 c 1
 353 208 l 1
 353 280 l 1
 281 280 l 1
 209 281 l 1
 196 286 187 293 187 310 c 0
EndSplineSet
EndChar

StartChar: uni2291
Encoding: 8849 8849 233
Width: 894
GlyphClass: 2
Flags: MW
HStem: -199 60<463 805 463 806> 25 60<165 805 165 806 127 805> 636 61<468 485>
VStem: 104 61<85 362 362 362>
LayerCount: 2
Fore
SplineSet
827 55 m 0
 827 42 819 30 806 25 c 1
 127 25 l 1
 115 30 109 37 104 49 c 1
 104 362 l 1
 105 675 l 1
 110 685 117 693 127 696 c 0
 128 696 282 697 468 697 c 2
 806 697 l 1
 818 690 828 680 828 666 c 0
 828 653 819 642 806 637 c 1
 485 636 l 1
 165 636 l 1
 165 85 l 1
 805 85 l 1
 818 77 827 70 827 55 c 0
96 -169 m 0
 96 -154 107 -144 119 -140 c 0
 120 -140 275 -139 463 -139 c 2
 805 -139 l 1
 818 -147 827 -154 827 -169 c 0
 827 -182 819 -194 806 -199 c 1
 119 -199 l 1
 106 -194 96 -184 96 -169 c 0
EndSplineSet
EndChar

StartChar: uni2292
Encoding: 8850 8850 234
Width: 894
GlyphClass: 2
Flags: MW
HStem: -199 60<433 775 433 775> 25 60<89 728 89 767 88 728> 636 61<429 728 408 767>
VStem: 728 61<85 636 636 636>
LayerCount: 2
Fore
SplineSet
66 55 m 0
 66 70 76 78 89 85 c 1
 728 85 l 1
 728 636 l 1
 408 636 l 1
 88 637 l 1
 74 642 66 652 66 667 c 0
 66 680 75 692 88 696 c 0
 89 696 243 697 429 697 c 2
 767 697 l 1
 777 690 784 685 789 672 c 1
 789 49 l 1
 784 37 778 31 767 25 c 1
 88 25 l 1
 74 30 66 42 66 55 c 0
88 -199 m 1
 74 -194 66 -183 66 -169 c 0
 66 -153 76 -144 87 -140 c 0
 91 -139 154 -139 433 -139 c 2
 775 -139 l 1
 786 -147 797 -154 797 -169 c 0
 797 -185 786 -193 775 -199 c 1
 88 -199 l 1
EndSplineSet
EndChar

StartChar: uni2293
Encoding: 8851 8851 235
Width: 767
GlyphClass: 2
Flags: MW
HStem: 1 21G<91.5 109 656.5 674> 543 61<385 635>
VStem: 71 60<23 25> 635 61<283 543 543 543>
LayerCount: 2
Fore
SplineSet
131 25 m 1
 126 12 118 1 100 1 c 0
 83 1 76 11 71 23 c 1
 70 301 l 2
 70 547 70 579 72 583 c 0
 75 592 81 599 90 602 c 0
 95 604 112 604 385 604 c 2
 674 604 l 1
 684 597 691 592 696 579 c 1
 696 25 l 1
 691 12 683 1 665 1 c 0
 648 1 641 11 636 23 c 1
 635 283 l 1
 635 543 l 1
 131 543 l 1
 131 25 l 1
EndSplineSet
EndChar

StartChar: uni2294
Encoding: 8852 8852 236
Width: 767
GlyphClass: 2
Flags: MW
HStem: 1 60<131 635 131 674 93 635>
VStem: 71 60<23 579> 635 61<61 579 25 579>
LayerCount: 2
Fore
SplineSet
666 603 m 0
 684 603 691 592 696 579 c 1
 696 25 l 1
 691 13 685 7 674 1 c 1
 93 1 l 1
 82 5 75 12 71 23 c 2
 70 301 l 2
 70 547 70 579 72 583 c 0
 76 594 85 604 100 604 c 0
 118 604 126 592 131 579 c 1
 131 61 l 1
 635 61 l 1
 635 579 l 1
 640 592 648 603 666 603 c 0
EndSplineSet
EndChar

StartChar: circleplus
Encoding: 8853 8853 237
Width: 894
GlyphClass: 2
Flags: MW
HStem: -132 63<410 416 410 455> 220 62<127 416 127 416 478 766> 570 62<414 416 414 414 413 478 413 483>
VStem: 416 62<-69 220 -69 220 282 570>
LayerCount: 2
Fore
SplineSet
64 250 m 0
 64 478 204 615 413 632 c 1
 434 632 l 2
 456 632 485 632 496 631 c 0
 550 624 592 612 635 592 c 0
 741 539 810 440 827 299 c 0
 828 288 828 269 828 250 c 0
 828 231 828 213 827 202 c 0
 805 12 687 -109 491 -130 c 0
 483 -131 464 -132 446 -132 c 0
 366 -132 313 -117 259 -91 c 0
 152 -38 83 61 66 202 c 0
 65 213 64 231 64 250 c 0
416 282 m 1
 416 570 l 1
 414 570 l 1
 247 556 143 454 128 288 c 1
 127 282 l 1
 416 282 l 1
500 567 m 0
 493 568 485 569 483 570 c 2
 478 570 l 1
 478 282 l 1
 766 282 l 1
 765 288 l 1
 756 391 713 463 648 511 c 0
 610 540 555 561 500 567 c 0
416 -69 m 1
 416 220 l 1
 127 220 l 1
 128 213 l 1
 135 127 170 53 225 6 c 0
 272 -36 329 -60 410 -69 c 1
 416 -69 l 1
765 213 m 1
 766 220 l 1
 478 220 l 1
 478 -69 l 1
 483 -69 l 1
 649 -48 749 45 765 213 c 1
EndSplineSet
EndChar

StartChar: uni2296
Encoding: 8854 8854 238
Width: 894
GlyphClass: 2
Flags: MW
HStem: -132 62<406 455> 220 62<127 766 127 766> 571 61<413 434 434 445 413 539.5>
LayerCount: 2
Fore
SplineSet
64 250 m 0
 64 478 204 615 413 632 c 1
 434 632 l 2
 456 632 485 632 496 631 c 0
 550 624 592 612 635 592 c 0
 741 539 810 440 827 299 c 0
 828 288 828 269 828 250 c 0
 828 231 828 213 827 202 c 0
 805 12 687 -109 491 -130 c 0
 483 -131 464 -132 446 -132 c 0
 366 -132 313 -117 259 -91 c 0
 152 -38 83 61 66 202 c 0
 65 213 64 231 64 250 c 0
765 288 m 1
 749 462 633 571 446 571 c 0
 328 571 242 527 189 457 c 0
 155 412 134 355 128 288 c 1
 127 282 l 1
 766 282 l 1
 765 288 l 1
446 -70 m 0
 632 -70 751 42 765 213 c 1
 766 220 l 1
 127 220 l 1
 128 213 l 1
 135 127 170 53 225 6 c 0
 276 -40 357 -70 446 -70 c 0
EndSplineSet
EndChar

